<?xml version="1.0" encoding="UTF-8"?>
<svg xmlns="http://www.w3.org/2000/svg" xmlns:xlink="http://www.w3.org/1999/xlink" xmlns:svgjs="http://svgjs.com/svgjs" version="1.1" width="512" height="512" x="0" y="0" viewBox="0 0 512 512" style="enable-background:new 0 0 512 512" xml:space="preserve" class="">
  <g>
    <g>
      <path d="m494.47 24.725h-476.94c-9.666 0-17.53 7.864-17.53 17.53v323.678c0 9.666 7.864 17.53 17.53 17.53h98.577l2.023 9.414c2.152 10.021 10.293 17.639 20.14 19.397-4.048 7.262-6.365 15.616-6.365 24.504 0 27.844 22.653 50.497 50.497 50.497s50.497-22.653 50.497-50.497c0-8.729-2.228-16.947-6.143-24.118h41.938c-3.915 7.171-6.143 15.389-6.143 24.118 0 27.844 22.653 50.497 50.497 50.497s50.497-22.653 50.497-50.497c0-8.788-2.261-17.056-6.225-24.261 10.649-1.096 19.673-9.011 21.957-19.641l54.564-253.956h63.132v227.013c0 1.381-1.123 2.504-2.504 2.504h-81.859c-4.15 0-7.513 3.363-7.513 7.513s3.363 7.513 7.513 7.513h81.859c9.666 0 17.53-7.864 17.53-17.53v-323.678c.001-9.666-7.863-17.53-17.529-17.53zm-312.068 447.524c-19.559 0-35.472-15.913-35.472-35.472s15.912-35.472 35.472-35.472 35.472 15.913 35.472 35.472c0 19.56-15.913 35.472-35.472 35.472zm130.647 0c-19.559 0-35.472-15.913-35.472-35.472s15.913-35.472 35.472-35.472 35.472 15.913 35.472 35.472c-.001 19.56-15.914 35.472-35.472 35.472zm162.559-348.355c5.038-4.584 8.204-11.19 8.204-18.521 0-13.809-11.234-25.043-25.043-25.043h-23.634c-23.138 0-43.46 16.42-48.322 39.042l-.971 4.521h-70.945c-4.15 0-7.513 3.363-7.513 7.513s3.363 7.513 7.513 7.513h67.718l-7.625 35.491h-272.805c-7.602 0-14.702 3.392-19.48 9.305-4.777 5.912-6.601 13.566-5.004 20.999l18.524 86.217c.872 4.058 4.865 6.633 8.923 5.768 4.056-.872 6.638-4.867 5.767-8.923l-18.524-86.217c-.638-2.974.091-6.036 2.002-8.401 1.911-2.364 4.751-3.721 7.792-3.721h278.875c3.541 0 6.601-2.473 7.346-5.935l13.1-60.973c3.383-15.745 17.527-27.172 33.631-27.172h23.634c5.523 0 10.017 4.494 10.017 10.017s-4.494 10.017-10.017 10.017h-23.634c-6.724 0-12.631 4.772-14.045 11.348l-56.504 262.983c-.985 4.585-5.103 7.913-9.793 7.913h-9.887c-8.697-7.091-19.788-11.353-31.858-11.353s-23.161 4.262-31.858 11.353h-66.93c-8.697-7.091-19.788-11.353-31.858-11.353s-23.161 4.262-31.858 11.353h-7.93c-4.69 0-8.809-3.328-9.794-7.913l-15.419-71.761c-.871-4.058-4.862-6.63-8.923-5.768-4.057.872-6.638 4.867-5.767 8.923l10.168 47.322h-95.351c-1.381 0-2.504-1.123-2.504-2.504v-227.014h265.121c4.15 0 7.513-3.363 7.513-7.513s-3.363-7.513-7.513-7.513h-265.121v-81.64c0-1.381 1.124-2.504 2.504-2.504h476.94c1.381 0 2.504 1.123 2.504 2.504v81.64z" fill="#ac2dfe" data-original="#000000"/>
      <circle cx="55.532" cy="81.541" r="14.65" fill="#ac2dfe" data-original="#000000"/>
      <circle cx="100.084" cy="81.541" r="14.65" fill="#ac2dfe" data-original="#000000"/>
      <circle cx="144.636" cy="81.541" r="14.65" fill="#ac2dfe" data-original="#000000"/>
      <path d="m269.819 334.913h-44.186c-2.1 0-4.104.878-5.526 2.423s-2.134 3.614-1.961 5.706l2.278 27.661c.321 3.897 3.577 6.897 7.487 6.897h39.631c3.91 0 7.167-2.999 7.487-6.897l2.277-27.661c.172-2.092-.539-4.161-1.961-5.706-1.423-1.544-3.427-2.423-5.526-2.423zm-9.198 27.661h-25.791l-1.04-12.635h27.873z" fill="#ac2dfe" data-original="#000000"/>
      <path d="m122.479 246.223c.744 3.462 3.804 5.935 7.345 5.935h52.577c4.268.093 7.93-3.884 7.487-8.129l-2.277-27.661c-.321-3.897-3.577-6.897-7.487-6.897h-56.243c-4.643-.116-8.434 4.577-7.345 9.091zm50.726-21.726 1.04 12.635h-38.35l-2.715-12.635z" fill="#ac2dfe" data-original="#000000"/>
      <path d="m150.834 334.913c-2.27 0-4.418 1.026-5.844 2.791-1.426 1.766-1.978 4.081-1.501 6.3l5.943 27.661c.744 3.462 3.804 5.935 7.345 5.935h35.954c2.1 0 4.104-.878 5.526-2.423s2.134-3.614 1.961-5.706l-2.278-27.661c-.321-3.897-3.577-6.897-7.487-6.897zm12.013 27.661-2.715-12.635h23.401l1.04 12.635z" fill="#ac2dfe" data-original="#000000"/>
      <path d="m137.357 272.192c-2.27 0-4.417 1.026-5.844 2.791-1.426 1.766-1.978 4.081-1.501 6.3l5.943 27.662c.743 3.462 3.804 5.935 7.345 5.935h44.266c2.1 0 4.104-.878 5.526-2.423s2.134-3.614 1.961-5.706l-2.278-27.662c-.321-3.897-3.577-6.897-7.487-6.897zm12.013 27.661-2.715-12.636h31.713l1.04 12.636z" fill="#ac2dfe" data-original="#000000"/>
      <path d="m210.094 245.261c.321 3.897 3.577 6.897 7.487 6.897h60.288c3.91 0 7.167-2.999 7.487-6.897l2.277-27.661c.44-4.245-3.218-8.222-7.488-8.129h-64.843c-4.265-.093-7.932 3.884-7.487 8.129zm61.896-20.764-1.041 12.635h-46.449l-1.04-12.635z" fill="#ac2dfe" data-original="#000000"/>
      <path d="m307.885 314.879h46.223c3.541 0 6.601-2.473 7.346-5.935l5.943-27.662c.476-2.219-.075-4.534-1.502-6.3-1.426-1.765-3.574-2.791-5.844-2.791h-49.888c-3.91 0-7.167 2.999-7.487 6.897l-2.277 27.662c-.172 2.092.539 4.161 1.961 5.706 1.421 1.544 3.425 2.423 5.525 2.423zm9.197-27.662h33.67l-2.715 12.636h-31.996z" fill="#ac2dfe" data-original="#000000"/>
      <path d="m313.049 252.158h54.535c3.541 0 6.601-2.473 7.346-5.935l5.943-27.661c1.088-4.514-2.703-9.206-7.346-9.091h-58.2c-3.91 0-7.167 2.999-7.487 6.897l-2.277 27.661c-.445 4.245 3.218 8.222 7.486 8.129zm9.197-27.661h41.982l-2.715 12.635h-40.308z" fill="#ac2dfe" data-original="#000000"/>
      <path d="m274.983 272.192h-54.515c-2.1 0-4.104.878-5.526 2.423s-2.134 3.614-1.961 5.706l2.277 27.662c.321 3.897 3.577 6.897 7.487 6.897h49.96c3.91 0 7.167-2.999 7.487-6.897l2.277-27.662c.172-2.092-.539-4.161-1.961-5.706s-3.426-2.423-5.525-2.423zm-9.198 27.661h-36.12l-1.04-12.636h38.201z" fill="#ac2dfe" data-original="#000000"/>
      <path d="m302.72 377.599h37.91c3.541 0 6.601-2.473 7.346-5.935l5.944-27.661c.476-2.219-.075-4.534-1.502-6.3-1.426-1.765-3.574-2.791-5.844-2.791h-41.576c-3.91 0-7.167 2.999-7.487 6.897l-2.277 27.661c-.172 2.092.539 4.161 1.961 5.706s3.426 2.423 5.525 2.423zm9.198-27.66h25.357l-2.715 12.635h-23.683z" fill="#ac2dfe" data-original="#000000"/>
      <path d="m182.402 423.882c-7.122 0-12.895 5.774-12.895 12.895 0 7.122 5.773 12.896 12.895 12.896s12.895-5.774 12.895-12.896c0-7.121-5.773-12.895-12.895-12.895z" fill="#ac2dfe" data-original="#000000"/>
      <path d="m313.049 423.882c-7.122 0-12.895 5.774-12.895 12.895 0 7.122 5.773 12.896 12.895 12.896s12.895-5.774 12.895-12.896c0-7.121-5.773-12.895-12.895-12.895z" fill="#ac2dfe" data-original="#000000"/>
    </g>
  </g>
</svg>
