<?xml version="1.0" encoding="UTF-8"?>
<svg xmlns="http://www.w3.org/2000/svg" xmlns:xlink="http://www.w3.org/1999/xlink" xmlns:svgjs="http://svgjs.com/svgjs" version="1.1" width="512" height="512" x="0" y="0" viewBox="0 0 512 512" style="enable-background:new 0 0 512 512" xml:space="preserve" class="">
  <g>
<g>
	<path style="stroke-width:15;stroke-linecap:round;stroke-linejoin:round;stroke-miterlimit:10;" d="   M296.41,352.95v27.09c5.97,0,11.17,3.25,13.97,8.07c5.21-3.61,11.53-5.72,18.35-5.72c13.51,0,25.08,8.29,29.91,20.05   c2.83-2.42,6.49-3.89,10.51-3.89c7.53,0,13.84,5.16,15.63,12.14c4.23-2.03,8.96-3.17,13.96-3.17c17.85,0,32.33,14.48,32.33,32.33   c0,0.2-0.02,0.41-0.02,0.61c2.88-0.39,5.81-0.61,8.8-0.61c35.71,0,64.65,28.94,64.65,64.65H440" fill="none" stroke="#c84c09" stroke-width="15" stroke-linecap="round" stroke-linejoin="round" stroke-miterlimit="10" data-original="#000000" class=""/>
	<path style="stroke-width:15;stroke-linecap:round;stroke-linejoin:round;stroke-miterlimit:10;" d="   M215.59,352.95v27.09c-5.97,0-11.17,3.25-13.97,8.07c-5.21-3.61-11.53-5.72-18.35-5.72c-13.51,0-25.08,8.29-29.91,20.05   c-2.83-2.42-6.49-3.89-10.51-3.89c-7.53,0-13.84,5.16-15.63,12.14c-4.23-2.03-8.96-3.17-13.96-3.17   c-17.85,0-32.33,14.48-32.33,32.33c0,0.2,0.02,0.41,0.02,0.61c-2.88-0.39-5.81-0.61-8.8-0.61c-35.71,0-64.65,28.94-64.65,64.65H405   " fill="none" stroke="#c84c09" stroke-width="15" stroke-linecap="round" stroke-linejoin="round" stroke-miterlimit="10" data-original="#000000" class=""/>
	<path style="stroke-width:15;stroke-linecap:round;stroke-linejoin:round;stroke-miterlimit:10;" d="   M288.325,177.325v-26.913c0-2.92-1.575-5.612-4.119-7.043l-24.244-13.637c-2.46-1.384-5.464-1.384-7.924,0l-24.244,13.637   c-2.545,1.431-4.119,4.124-4.119,7.043v26.913c0,2.92,1.575,5.612,4.119,7.043l24.244,13.637c2.46,1.384,5.464,1.384,7.924,0   l24.244-13.637C286.75,182.937,288.325,180.244,288.325,177.325z" fill="none" stroke="#c84c09" stroke-width="15" stroke-linecap="round" stroke-linejoin="round" stroke-miterlimit="10" data-original="#000000" class=""/>
	<path style="stroke-width:15;stroke-linecap:round;stroke-linejoin:round;stroke-miterlimit:10;" d="   M191.35,137.48V85.22c0-4.55,1.5-8.96,4.28-12.56l44.1-57.16c3.89-5.05,9.9-8,16.27-8s12.38,2.95,16.27,8l44.1,57.16   c2.78,3.6,4.28,8.01,4.28,12.56v42.28" fill="none" stroke="#c84c09" stroke-width="15" stroke-linecap="round" stroke-linejoin="round" stroke-miterlimit="10" data-original="#000000" class=""/>
	<path style="stroke-width:15;stroke-linecap:round;stroke-linejoin:round;stroke-miterlimit:10;" d="   M320.65,162.5v141.96c0,8.93-7.24,16.16-16.16,16.16h-96.98c-8.92,0-16.16-7.23-16.16-16.16V172.48" fill="none" stroke="#c84c09" stroke-width="15" stroke-linecap="round" stroke-linejoin="round" stroke-miterlimit="10" data-original="#000000" class=""/>
	
		<line style="stroke-width:15;stroke-linecap:round;stroke-linejoin:round;stroke-miterlimit:10;" x1="191.35" y1="98.415" x2="320.65" y2="98.415" fill="none" stroke="#c84c09" stroke-width="15" stroke-linecap="round" stroke-linejoin="round" stroke-miterlimit="10" data-original="#000000" class=""/>
	
		<line style="stroke-width:15;stroke-linecap:round;stroke-linejoin:round;stroke-miterlimit:10;" x1="243.878" y1="229.348" x2="268.122" y2="229.348" fill="none" stroke="#c84c09" stroke-width="15" stroke-linecap="round" stroke-linejoin="round" stroke-miterlimit="10" data-original="#000000" class=""/>
	
		<line style="stroke-width:15;stroke-linecap:round;stroke-linejoin:round;stroke-miterlimit:10;" x1="243.878" y1="259.653" x2="268.122" y2="259.653" fill="none" stroke="#c84c09" stroke-width="15" stroke-linecap="round" stroke-linejoin="round" stroke-miterlimit="10" data-original="#000000" class=""/>
	<path style="stroke-width:15;stroke-linecap:round;stroke-linejoin:round;stroke-miterlimit:10;" d="   M320.65,199.404l51.613,34.409c5.621,3.747,8.997,10.055,8.997,16.81v35.655c0,7.811-6.332,14.142-14.142,14.142H320.65" fill="none" stroke="#c84c09" stroke-width="15" stroke-linecap="round" stroke-linejoin="round" stroke-miterlimit="10" data-original="#000000" class=""/>
	<path style="stroke-width:15;stroke-linecap:round;stroke-linejoin:round;stroke-miterlimit:10;" d="   M191.35,199.404l-51.613,34.409c-5.621,3.747-8.997,10.055-8.997,16.81v35.655c0,7.811,6.332,14.142,14.142,14.142h46.467" fill="none" stroke="#c84c09" stroke-width="15" stroke-linecap="round" stroke-linejoin="round" stroke-miterlimit="10" data-original="#000000" class=""/>
	<path style="stroke-width:15;stroke-linecap:round;stroke-linejoin:round;stroke-miterlimit:10;" d="   M304.488,352.949h-96.976c-8.926,0-16.163-7.236-16.163-16.163v0c0-8.926,7.236-16.163,16.163-16.163h96.976   c8.926,0,16.163,7.236,16.163,16.163v0C320.65,345.713,313.414,352.949,304.488,352.949z" fill="none" stroke="#c84c09" stroke-width="15" stroke-linecap="round" stroke-linejoin="round" stroke-miterlimit="10" data-original="#000000" class=""/>
	<path style="stroke-width:15;stroke-linecap:round;stroke-linejoin:round;stroke-miterlimit:10;" d="   M281.254,461.671c0-8.368,6.784-15.152,15.152-15.152c8.368,0,15.152,6.784,15.152,15.152" fill="none" stroke="#c84c09" stroke-width="15" stroke-linecap="round" stroke-linejoin="round" stroke-miterlimit="10" data-original="#000000" class=""/>
	<path style="stroke-width:15;stroke-linecap:round;stroke-linejoin:round;stroke-miterlimit:10;" d="   M240.848,405.398c0-8.368,6.784-15.152,15.152-15.152c8.368,0,15.152,6.784,15.152,15.152" fill="none" stroke="#c84c09" stroke-width="15" stroke-linecap="round" stroke-linejoin="round" stroke-miterlimit="10" data-original="#000000" class=""/>
	<path style="stroke-width:15;stroke-linecap:round;stroke-linejoin:round;stroke-miterlimit:10;" d="   M346.915,438.942c8.368,0,15.152,6.784,15.152,15.152" fill="none" stroke="#c84c09" stroke-width="15" stroke-linecap="round" stroke-linejoin="round" stroke-miterlimit="10" data-original="#000000" class=""/>
	<path style="stroke-width:15;stroke-linecap:round;stroke-linejoin:round;stroke-miterlimit:10;" d="   M396.344,454.094c8.368,0,15.152,6.784,15.152,15.152" fill="none" stroke="#c84c09" stroke-width="15" stroke-linecap="round" stroke-linejoin="round" stroke-miterlimit="10" data-original="#000000" class=""/>
	<path style="stroke-width:15;stroke-linecap:round;stroke-linejoin:round;stroke-miterlimit:10;" d="   M230.746,461.671c0-8.368-6.784-15.152-15.152-15.152c-8.368,0-15.152,6.784-15.152,15.152" fill="none" stroke="#c84c09" stroke-width="15" stroke-linecap="round" stroke-linejoin="round" stroke-miterlimit="10" data-original="#000000" class=""/>
	<path style="stroke-width:15;stroke-linecap:round;stroke-linejoin:round;stroke-miterlimit:10;" d="   M165.085,438.942c-8.368,0-15.152,6.784-15.152,15.152" fill="none" stroke="#c84c09" stroke-width="15" stroke-linecap="round" stroke-linejoin="round" stroke-miterlimit="10" data-original="#000000" class=""/>
	<path style="stroke-width:15;stroke-linecap:round;stroke-linejoin:round;stroke-miterlimit:10;" d="   M115.656,454.094c-8.368,0-15.152,6.784-15.152,15.152" fill="none" stroke="#c84c09" stroke-width="15" stroke-linecap="round" stroke-linejoin="round" stroke-miterlimit="10" data-original="#000000" class=""/>
</g>















</g>
</svg>
