<svg width="512" height="512" viewBox="0 0 512 512" fill="none" xmlns="http://www.w3.org/2000/svg">
<g clip-path="url(#clip0_555_383)">
<mask id="path-1-inside-1_555_383" fill="white">
<path d="M32 30C32 13.4315 45.4315 0 62 0H450C466.569 0 480 13.4315 480 30V48H32V30Z"/>
</mask>
<path d="M12 30C12 2.38576 34.3858 -20 62 -20H450C477.614 -20 500 2.38576 500 30H460C460 24.4772 455.523 20 450 20H62C56.4772 20 52 24.4772 52 30H12ZM480 48H32H480ZM12 48V30C12 2.38576 34.3858 -20 62 -20V20C56.4772 20 52 24.4772 52 30V48H12ZM450 -20C477.614 -20 500 2.38576 500 30V48H460V30C460 24.4772 455.523 20 450 20V-20Z" fill="#35B8FA" mask="url(#path-1-inside-1_555_383)"/>
<mask id="path-3-inside-2_555_383" fill="white">
<path d="M480 482C480 498.569 466.569 512 450 512L62 512C45.4315 512 32 498.569 32 482V464L480 464V482Z"/>
</mask>
<path d="M500 482C500 509.614 477.614 532 450 532H62C34.3858 532 12 509.614 12 482H52C52 487.523 56.4772 492 62 492L450 492C455.523 492 460 487.523 460 482H500ZM32 464L480 464L32 464ZM500 464V482C500 509.614 477.614 532 450 532V492C455.523 492 460 487.523 460 482V464H500ZM62 532C34.3858 532 12 509.614 12 482V464H52V482C52 487.523 56.4772 492 62 492V532Z" fill="#35B8FA" mask="url(#path-3-inside-2_555_383)"/>
<line x1="42.6562" y1="196" x2="42.6562" y2="168" stroke="#35B8FA" stroke-width="16"/>
<line x1="472" y1="344" x2="472" y2="316" stroke="#35B8FA" stroke-width="16"/>
<line x1="472" y1="196" x2="472" y2="168" stroke="#35B8FA" stroke-width="16"/>
<line x1="42.6562" y1="344" x2="42.6562" y2="316" stroke="#35B8FA" stroke-width="16"/>
<circle cx="440" cy="108" r="24" fill="#35B8FA"/>
<circle cx="360" cy="108" r="24" fill="#35B8FA"/>
<rect x="10" y="58" width="492" height="100" rx="20" stroke="#35B8FA" stroke-width="20"/>
<rect x="36" y="84" width="192" height="48" rx="24" fill="#35B8FA"/>
<circle cx="440" cy="256" r="24" fill="#35B8FA"/>
<circle cx="360" cy="256" r="24" fill="#35B8FA"/>
<rect x="10" y="206" width="492" height="100" rx="20" stroke="#35B8FA" stroke-width="20"/>
<rect x="36" y="232" width="192" height="48" rx="24" fill="#35B8FA"/>
<circle cx="440" cy="404" r="24" fill="#35B8FA"/>
<circle cx="360" cy="404" r="24" fill="#35B8FA"/>
<rect x="10" y="354" width="492" height="100" rx="20" stroke="#35B8FA" stroke-width="20"/>
<rect x="36" y="380" width="192" height="48" rx="24" fill="#35B8FA"/>
</g>
<defs>
<clipPath id="clip0_555_383">
<rect width="512" height="512" fill="white"/>
</clipPath>
</defs>
</svg>
