<svg width="512" height="512" viewBox="0 0 512 512" fill="none" xmlns="http://www.w3.org/2000/svg">
<path d="M444.564 311.356V335.511" stroke="white" stroke-width="15" stroke-miterlimit="10" stroke-linecap="round" stroke-linejoin="round"/>
<path d="M444.564 176.29V200.644" stroke="white" stroke-width="15" stroke-miterlimit="10" stroke-linecap="round" stroke-linejoin="round"/>
<mask id="mask0_2022_1993" style="mask-type:luminance" maskUnits="userSpaceOnUse" x="32" y="32" width="448" height="448">
<path d="M32 32H480V480H32V32Z" fill="white"/>
</mask>
<g mask="url(#mask0_2022_1993)">
<path d="M67.4375 60.5283C67.4375 48.3894 77.2777 38.5492 89.4166 38.5492H422.583C434.722 38.5492 444.562 48.3894 444.562 60.5283" stroke="white" stroke-width="15" stroke-miterlimit="10" stroke-linecap="round" stroke-linejoin="round"/>
<path d="M67.4375 200.645V177.166" stroke="white" stroke-width="15" stroke-miterlimit="10" stroke-linecap="round" stroke-linejoin="round"/>
<path d="M67.4375 335.511V311.356" stroke="white" stroke-width="15" stroke-miterlimit="10" stroke-linecap="round" stroke-linejoin="round"/>
<path d="M444.562 451.472C444.562 463.611 434.722 473.451 422.583 473.451H89.4166C77.2777 473.451 67.4375 463.611 67.4375 451.472" stroke="white" stroke-width="15" stroke-miterlimit="10" stroke-linecap="round" stroke-linejoin="round"/>
<path d="M102.874 176.491H59.9207C48.1178 176.491 38.5488 166.922 38.5488 155.119V87.1528C38.5488 75.3491 48.1178 65.781 59.9207 65.781H452.078C463.881 65.781 473.45 75.3491 473.45 87.1528V155.119C473.45 166.922 463.881 176.491 452.078 176.491H150.124" stroke="white" stroke-width="15" stroke-miterlimit="10" stroke-linecap="round" stroke-linejoin="round"/>
<path d="M348.749 311.355H59.9207C48.1178 311.355 38.5488 301.786 38.5488 289.984V222.017C38.5488 210.213 48.1178 200.645 59.9207 200.645H452.078C463.881 200.645 473.45 210.213 473.45 222.017V289.984C473.45 301.786 463.881 311.355 452.078 311.355H392.499" stroke="white" stroke-width="15" stroke-miterlimit="10" stroke-linecap="round" stroke-linejoin="round"/>
<path d="M103.749 446.222H59.9207C48.1178 446.222 38.5488 436.653 38.5488 424.85V356.882C38.5488 345.08 48.1178 335.511 59.9207 335.511H452.078C463.881 335.511 473.45 345.08 473.45 356.882V424.85C473.45 436.653 463.881 446.222 452.078 446.222H143.124" stroke="white" stroke-width="15" stroke-miterlimit="10" stroke-linecap="round" stroke-linejoin="round"/>
<path d="M83.6242 379.812C92.0688 379.812 92.0837 366.688 83.6242 366.688C75.1796 366.688 75.1647 379.812 83.6242 379.812Z" fill="white"/>
<path d="M121.249 379.812C129.694 379.812 129.709 366.688 121.249 366.688C112.805 366.688 112.79 379.812 121.249 379.812Z" fill="white"/>
<path d="M83.6242 413.938C92.0688 413.938 92.0837 400.812 83.6242 400.812C75.1796 400.812 75.1647 413.938 83.6242 413.938Z" fill="white"/>
<path d="M121.249 413.938C129.694 413.938 129.709 400.812 121.249 400.812C112.805 400.812 112.79 413.938 121.249 413.938Z" fill="white"/>
<path d="M158.874 379.812C167.319 379.812 167.334 366.688 158.874 366.688C150.43 366.688 150.415 379.812 158.874 379.812Z" fill="white"/>
<path d="M158.874 413.938C167.319 413.938 167.334 400.812 158.874 400.812C150.43 400.812 150.415 413.938 158.874 413.938Z" fill="white"/>
<path d="M83.6242 246.812C92.0688 246.812 92.0837 233.688 83.6242 233.688C75.1796 233.688 75.1647 246.812 83.6242 246.812Z" fill="white"/>
<path d="M121.249 246.812C129.694 246.812 129.709 233.688 121.249 233.688C112.805 233.688 112.79 246.812 121.249 246.812Z" fill="white"/>
<path d="M83.6242 280.938C92.0688 280.938 92.0837 267.812 83.6242 267.812C75.1796 267.812 75.1647 280.938 83.6242 280.938Z" fill="white"/>
<path d="M121.249 280.938C129.694 280.938 129.709 267.812 121.249 267.812C112.805 267.812 112.79 280.938 121.249 280.938Z" fill="white"/>
<path d="M158.874 246.812C167.319 246.812 167.334 233.688 158.874 233.688C150.43 233.688 150.415 246.812 158.874 246.812Z" fill="white"/>
<path d="M158.874 280.938C167.319 280.938 167.334 267.812 158.874 267.812C150.43 267.812 150.415 280.938 158.874 280.938Z" fill="white"/>
<path d="M83.6242 111.188C92.0688 111.188 92.0837 98.0625 83.6242 98.0625C75.1796 98.0625 75.1647 111.188 83.6242 111.188Z" fill="white"/>
<path d="M121.249 111.188C129.694 111.188 129.709 98.0625 121.249 98.0625C112.805 98.0625 112.79 111.188 121.249 111.188Z" fill="white"/>
<path d="M83.6242 145.312C92.0688 145.312 92.0837 132.188 83.6242 132.188C75.1796 132.188 75.1647 145.312 83.6242 145.312Z" fill="white"/>
<path d="M121.249 145.312C129.694 145.312 129.709 132.188 121.249 132.188C112.805 132.188 112.79 145.312 121.249 145.312Z" fill="white"/>
<path d="M158.874 111.188C167.319 111.188 167.334 98.0625 158.874 98.0625C150.43 98.0625 150.415 111.188 158.874 111.188Z" fill="white"/>
<path d="M158.874 145.312C167.319 145.312 167.334 132.188 158.874 132.188C150.43 132.188 150.415 145.312 158.874 145.312Z" fill="white"/>
<path d="M350.936 121.688C350.936 132.319 342.317 140.938 331.686 140.938C321.054 140.938 312.436 132.319 312.436 121.688C312.436 111.056 321.054 102.438 331.686 102.438C342.317 102.438 350.936 111.056 350.936 121.688Z" stroke="white" stroke-width="15" stroke-miterlimit="10" stroke-linecap="round" stroke-linejoin="round"/>
<path d="M428.814 121.688C428.814 132.319 420.196 140.938 409.564 140.938C398.933 140.938 390.314 132.319 390.314 121.688C390.314 111.056 398.933 102.438 409.564 102.438C420.196 102.438 428.814 111.056 428.814 121.688Z" stroke="white" stroke-width="15" stroke-miterlimit="10" stroke-linecap="round" stroke-linejoin="round"/>
<path d="M350.936 257.313C350.936 267.944 342.317 276.562 331.686 276.562C321.054 276.562 312.436 267.944 312.436 257.313C312.436 246.681 321.054 238.063 331.686 238.063C342.317 238.063 350.936 246.681 350.936 257.313Z" stroke="white" stroke-width="15" stroke-miterlimit="10" stroke-linecap="round" stroke-linejoin="round"/>
<path d="M428.814 257.313C428.814 267.944 420.196 276.562 409.564 276.562C398.933 276.562 390.314 267.944 390.314 257.313C390.314 246.681 398.933 238.063 409.564 238.063C420.196 238.063 428.814 246.681 428.814 257.313Z" stroke="white" stroke-width="15" stroke-miterlimit="10" stroke-linecap="round" stroke-linejoin="round"/>
<path d="M350.936 390.313C350.936 400.944 342.317 409.562 331.686 409.562C321.054 409.562 312.436 400.944 312.436 390.313C312.436 379.681 321.054 371.063 331.686 371.063C342.317 371.063 350.936 379.681 350.936 390.313Z" stroke="white" stroke-width="15" stroke-miterlimit="10" stroke-linecap="round" stroke-linejoin="round"/>
<path d="M428.814 390.313C428.814 400.944 420.196 409.562 409.564 409.562C398.933 409.562 390.314 400.944 390.314 390.313C390.314 379.681 398.933 371.063 409.564 371.063C420.196 371.063 428.814 379.681 428.814 390.313Z" stroke="white" stroke-width="15" stroke-miterlimit="10" stroke-linecap="round" stroke-linejoin="round"/>
</g>
</svg>
