<svg width="512" height="512" viewBox="0 0 512 512" fill="none" xmlns="http://www.w3.org/2000/svg">
<path d="M461.398 316.298V342.609" stroke="#AC2DFE" stroke-width="15" stroke-miterlimit="10" stroke-linecap="round" stroke-linejoin="round"/>
<path d="M461.398 169.173V195.701" stroke="#AC2DFE" stroke-width="15" stroke-miterlimit="10" stroke-linecap="round" stroke-linejoin="round"/>
<mask id="mask0_2022_2120" style="mask-type:luminance" maskUnits="userSpaceOnUse" x="12" y="12" width="488" height="488">
<path d="M12 12H500V500H12V12Z" fill="white"/>
</mask>
<g mask="url(#mask0_2022_2120)">
<path d="M50.6016 43.0752C50.6016 29.8525 61.3204 19.1337 74.5431 19.1337H437.457C450.68 19.1337 461.398 29.8525 461.398 43.0752" stroke="#AC2DFE" stroke-width="15" stroke-miterlimit="10" stroke-linecap="round" stroke-linejoin="round"/>
<path d="M50.6016 195.702V170.127" stroke="#AC2DFE" stroke-width="15" stroke-miterlimit="10" stroke-linecap="round" stroke-linejoin="round"/>
<path d="M50.6016 342.609V316.298" stroke="#AC2DFE" stroke-width="15" stroke-miterlimit="10" stroke-linecap="round" stroke-linejoin="round"/>
<path d="M461.398 468.925C461.398 482.147 450.68 492.866 437.457 492.866H74.5431C61.3204 492.866 50.6016 482.147 50.6016 468.925" stroke="#AC2DFE" stroke-width="15" stroke-miterlimit="10" stroke-linecap="round" stroke-linejoin="round"/>
<path d="M89.2037 169.392H42.4148C29.5581 169.392 19.1348 158.968 19.1348 146.112V72.0766C19.1348 59.2189 29.5581 48.7965 42.4148 48.7965H469.586C482.443 48.7965 492.867 59.2189 492.867 72.0766V146.112C492.867 158.968 482.443 169.392 469.586 169.392H140.672" stroke="#AC2DFE" stroke-width="15" stroke-miterlimit="10" stroke-linecap="round" stroke-linejoin="round"/>
<path d="M357.032 316.298H42.4149C29.5582 316.298 19.1348 305.874 19.1348 293.018V218.983C19.1348 206.125 29.5582 195.703 42.4149 195.703H469.586C482.443 195.703 492.867 206.125 492.867 218.983V293.018C492.867 305.874 482.443 316.298 469.586 316.298H404.688" stroke="#AC2DFE" stroke-width="15" stroke-miterlimit="10" stroke-linecap="round" stroke-linejoin="round"/>
<path d="M90.1569 463.205H42.4148C29.5581 463.205 19.1348 452.782 19.1348 439.925V365.889C19.1348 353.032 29.5581 342.61 42.4148 342.61H469.586C482.443 342.61 492.867 353.032 492.867 365.889V439.925C492.867 452.782 482.443 463.205 469.586 463.205H133.047" stroke="#AC2DFE" stroke-width="15" stroke-miterlimit="10" stroke-linecap="round" stroke-linejoin="round"/>
<path d="M68.2332 390.867C77.4318 390.867 77.448 376.57 68.2332 376.57C59.0346 376.57 59.0183 390.867 68.2332 390.867Z" fill="#AC2DFE"/>
<path d="M109.218 390.867C118.416 390.867 118.432 376.57 109.218 376.57C100.019 376.57 100.003 390.867 109.218 390.867Z" fill="#AC2DFE"/>
<path d="M68.2332 428.039C77.4318 428.039 77.448 413.742 68.2332 413.742C59.0346 413.742 59.0183 428.039 68.2332 428.039Z" fill="#AC2DFE"/>
<path d="M109.218 428.039C118.416 428.039 118.432 413.742 109.218 413.742C100.019 413.742 100.003 428.039 109.218 428.039Z" fill="#AC2DFE"/>
<path d="M150.202 390.867C159.401 390.867 159.417 376.57 150.202 376.57C141.003 376.57 140.987 390.867 150.202 390.867Z" fill="#AC2DFE"/>
<path d="M150.202 428.039C159.401 428.039 159.417 413.742 150.202 413.742C141.003 413.742 140.987 428.039 150.202 428.039Z" fill="#AC2DFE"/>
<path d="M68.2332 245.992C77.4318 245.992 77.448 231.695 68.2332 231.695C59.0346 231.695 59.0183 245.992 68.2332 245.992Z" fill="#AC2DFE"/>
<path d="M109.218 245.992C118.416 245.992 118.432 231.695 109.218 231.695C100.019 231.695 100.003 245.992 109.218 245.992Z" fill="#AC2DFE"/>
<path d="M68.2332 283.164C77.4318 283.164 77.448 268.867 68.2332 268.867C59.0346 268.867 59.0183 283.164 68.2332 283.164Z" fill="#AC2DFE"/>
<path d="M109.218 283.164C118.416 283.164 118.432 268.867 109.218 268.867C100.019 268.867 100.003 283.164 109.218 283.164Z" fill="#AC2DFE"/>
<path d="M150.202 245.992C159.401 245.992 159.417 231.695 150.202 231.695C141.003 231.695 140.987 245.992 150.202 245.992Z" fill="#AC2DFE"/>
<path d="M150.202 283.164C159.401 283.164 159.417 268.867 150.202 268.867C141.003 268.867 140.987 283.164 150.202 283.164Z" fill="#AC2DFE"/>
<path d="M68.2332 98.2578C77.4318 98.2578 77.448 83.9609 68.2332 83.9609C59.0346 83.9609 59.0183 98.2578 68.2332 98.2578Z" fill="#AC2DFE"/>
<path d="M109.218 98.2578C118.416 98.2578 118.432 83.9609 109.218 83.9609C100.019 83.9609 100.003 98.2578 109.218 98.2578Z" fill="#AC2DFE"/>
<path d="M68.2332 135.43C77.4318 135.43 77.448 121.133 68.2332 121.133C59.0346 121.133 59.0183 135.43 68.2332 135.43Z" fill="#AC2DFE"/>
<path d="M109.218 135.43C118.416 135.43 118.432 121.133 109.218 121.133C100.019 121.133 100.003 135.43 109.218 135.43Z" fill="#AC2DFE"/>
<path d="M150.202 98.2578C159.401 98.2578 159.417 83.9609 150.202 83.9609C141.003 83.9609 140.987 98.2578 150.202 98.2578Z" fill="#AC2DFE"/>
<path d="M150.202 135.43C159.401 135.43 159.417 121.133 150.202 121.133C141.003 121.133 140.987 135.43 150.202 135.43Z" fill="#AC2DFE"/>
<path d="M359.414 109.695C359.414 121.276 350.026 130.664 338.445 130.664C326.865 130.664 317.477 121.276 317.477 109.695C317.477 98.1148 326.865 88.7266 338.445 88.7266C350.026 88.7266 359.414 98.1148 359.414 109.695Z" stroke="#AC2DFE" stroke-width="15" stroke-miterlimit="10" stroke-linecap="round" stroke-linejoin="round"/>
<path d="M444.242 109.695C444.242 121.276 434.854 130.664 423.273 130.664C411.693 130.664 402.305 121.276 402.305 109.695C402.305 98.1148 411.693 88.7266 423.273 88.7266C434.854 88.7266 444.242 98.1148 444.242 109.695Z" stroke="#AC2DFE" stroke-width="15" stroke-miterlimit="10" stroke-linecap="round" stroke-linejoin="round"/>
<path d="M359.414 257.43C359.414 269.01 350.026 278.398 338.445 278.398C326.865 278.398 317.477 269.01 317.477 257.43C317.477 245.849 326.865 236.461 338.445 236.461C350.026 236.461 359.414 245.849 359.414 257.43Z" stroke="#AC2DFE" stroke-width="15" stroke-miterlimit="10" stroke-linecap="round" stroke-linejoin="round"/>
<path d="M444.242 257.43C444.242 269.01 434.854 278.398 423.273 278.398C411.693 278.398 402.305 269.01 402.305 257.43C402.305 245.849 411.693 236.461 423.273 236.461C434.854 236.461 444.242 245.849 444.242 257.43Z" stroke="#AC2DFE" stroke-width="15" stroke-miterlimit="10" stroke-linecap="round" stroke-linejoin="round"/>
<path d="M359.414 402.305C359.414 413.885 350.026 423.273 338.445 423.273C326.865 423.273 317.477 413.885 317.477 402.305C317.477 390.724 326.865 381.336 338.445 381.336C350.026 381.336 359.414 390.724 359.414 402.305Z" stroke="#AC2DFE" stroke-width="15" stroke-miterlimit="10" stroke-linecap="round" stroke-linejoin="round"/>
<path d="M444.242 402.305C444.242 413.885 434.854 423.273 423.273 423.273C411.693 423.273 402.305 413.885 402.305 402.305C402.305 390.724 411.693 381.336 423.273 381.336C434.854 381.336 444.242 390.724 444.242 402.305Z" stroke="#AC2DFE" stroke-width="15" stroke-miterlimit="10" stroke-linecap="round" stroke-linejoin="round"/>
</g>
</svg>
