<svg width="1920" height="768" viewBox="0 0 1920 768" fill="none" xmlns="http://www.w3.org/2000/svg">
<rect width="1920" height="768" fill="#E7E7E7"/>
<path d="M817.837 358.818V409H811.76V365.189H811.466L799.214 373.324V367.149L811.76 358.818H817.837ZM848.245 358.132C850.303 358.148 852.361 358.54 854.419 359.308C856.478 360.076 858.356 361.35 860.055 363.131C861.754 364.895 863.118 367.304 864.147 370.359C865.176 373.414 865.691 377.244 865.691 381.851C865.691 386.31 865.266 390.272 864.417 393.735C863.583 397.181 862.375 400.089 860.79 402.458C859.222 404.826 857.311 406.623 855.056 407.848C852.819 409.074 850.287 409.686 847.461 409.686C844.651 409.686 842.143 409.131 839.938 408.02C837.749 406.893 835.952 405.333 834.548 403.34C833.159 401.331 832.269 399.003 831.877 396.357H837.855C838.395 398.66 839.464 400.563 841.065 402.066C842.683 403.552 844.814 404.295 847.461 404.295C851.332 404.295 854.387 402.605 856.625 399.223C858.879 395.842 860.006 391.064 860.006 384.889H859.614C858.699 386.261 857.613 387.446 856.355 388.442C855.097 389.439 853.701 390.206 852.165 390.745C850.63 391.284 848.996 391.554 847.265 391.554C844.39 391.554 841.751 390.843 839.35 389.422C836.965 387.985 835.054 386.016 833.616 383.517C832.195 381.001 831.485 378.126 831.485 374.892C831.485 371.821 832.171 369.011 833.543 366.463C834.931 363.898 836.875 361.857 839.375 360.337C841.89 358.818 844.847 358.083 848.245 358.132ZM848.245 363.523C846.186 363.523 844.332 364.037 842.683 365.066C841.049 366.079 839.75 367.451 838.787 369.183C837.839 370.898 837.365 372.801 837.365 374.892C837.365 376.983 837.823 378.886 838.738 380.601C839.669 382.3 840.935 383.656 842.536 384.669C844.153 385.665 845.99 386.163 848.049 386.163C849.6 386.163 851.046 385.861 852.386 385.257C853.725 384.636 854.893 383.795 855.89 382.733C856.902 381.655 857.695 380.438 858.266 379.082C858.838 377.71 859.124 376.281 859.124 374.794C859.124 372.834 858.65 370.996 857.703 369.281C856.772 367.566 855.481 366.177 853.831 365.115C852.198 364.054 850.336 363.523 848.245 363.523ZM875.326 409V404.589L891.89 386.457C893.834 384.334 895.435 382.488 896.693 380.92C897.951 379.335 898.882 377.849 899.486 376.46C900.107 375.055 900.417 373.585 900.417 372.05C900.417 370.286 899.993 368.758 899.143 367.468C898.31 366.177 897.167 365.181 895.713 364.478C894.259 363.776 892.625 363.425 890.812 363.425C888.885 363.425 887.202 363.825 885.765 364.625C884.343 365.409 883.241 366.512 882.457 367.933C881.689 369.354 881.305 371.021 881.305 372.932H875.522C875.522 369.991 876.2 367.411 877.556 365.189C878.912 362.967 880.758 361.236 883.094 359.994C885.446 358.753 888.084 358.132 891.008 358.132C893.949 358.132 896.554 358.753 898.825 359.994C901.095 361.236 902.876 362.91 904.166 365.017C905.457 367.125 906.102 369.469 906.102 372.05C906.102 373.896 905.767 375.701 905.097 377.465C904.444 379.213 903.301 381.165 901.667 383.321C900.05 385.461 897.804 388.075 894.929 391.162L883.657 403.217V403.609H906.984V409H875.326ZM933.472 409.686C929.78 409.686 926.635 408.681 924.038 406.672C921.441 404.647 919.456 401.714 918.084 397.876C916.712 394.021 916.026 389.365 916.026 383.909C916.026 378.486 916.712 373.855 918.084 370.016C919.472 366.161 921.465 363.221 924.063 361.195C926.676 359.153 929.813 358.132 933.472 358.132C937.131 358.132 940.259 359.153 942.856 361.195C945.47 363.221 947.463 366.161 948.835 370.016C950.223 373.855 950.918 378.486 950.918 383.909C950.918 389.365 950.232 394.021 948.859 397.876C947.487 401.714 945.503 404.647 942.905 406.672C940.308 408.681 937.163 409.686 933.472 409.686ZM933.472 404.295C937.131 404.295 939.973 402.531 941.999 399.003C944.024 395.474 945.037 390.443 945.037 383.909C945.037 379.564 944.571 375.864 943.64 372.809C942.726 369.755 941.402 367.427 939.671 365.826C937.956 364.225 935.889 363.425 933.472 363.425C929.845 363.425 927.011 365.213 924.969 368.791C922.927 372.352 921.906 377.391 921.906 383.909C921.906 388.254 922.364 391.946 923.278 394.984C924.193 398.023 925.508 400.334 927.223 401.919C928.955 403.503 931.038 404.295 933.472 404.295ZM989.73 399.983L962.091 372.344L965.815 368.619L993.455 396.259L989.73 399.983ZM965.815 399.983L962.091 396.259L989.73 368.619L993.455 372.344L965.815 399.983ZM1007.28 409L1029.72 364.601V364.209H1003.85V358.818H1036V364.503L1013.65 409H1007.28ZM1060.71 409.686C1058.66 409.653 1056.6 409.261 1054.54 408.51C1052.48 407.759 1050.6 406.493 1048.9 404.712C1047.21 402.915 1045.84 400.489 1044.81 397.435C1043.78 394.364 1043.27 390.509 1043.27 385.869C1043.27 381.426 1043.69 377.489 1044.52 374.059C1045.35 370.612 1046.56 367.713 1048.14 365.36C1049.73 362.992 1051.64 361.195 1053.88 359.97C1056.13 358.745 1058.67 358.132 1061.5 358.132C1064.31 358.132 1066.81 358.696 1069 359.823C1071.2 360.934 1073 362.485 1074.39 364.478C1075.78 366.471 1076.67 368.766 1077.08 371.364H1071.1C1070.55 369.109 1069.47 367.239 1067.87 365.752C1066.27 364.266 1064.15 363.523 1061.5 363.523C1057.61 363.523 1054.55 365.213 1052.31 368.595C1050.09 371.976 1048.97 376.722 1048.95 382.831H1049.35C1050.26 381.442 1051.35 380.258 1052.6 379.278C1053.88 378.282 1055.28 377.514 1056.82 376.975C1058.35 376.436 1059.98 376.166 1061.7 376.166C1064.57 376.166 1067.2 376.885 1069.58 378.322C1071.97 379.744 1073.88 381.712 1075.32 384.228C1076.76 386.727 1077.47 389.594 1077.47 392.828C1077.47 395.932 1076.78 398.774 1075.39 401.355C1074 403.92 1072.05 405.962 1069.54 407.481C1067.04 408.984 1064.1 409.719 1060.71 409.686ZM1060.71 404.295C1062.77 404.295 1064.62 403.781 1066.25 402.752C1067.9 401.723 1069.2 400.342 1070.15 398.611C1071.11 396.879 1071.59 394.952 1071.59 392.828C1071.59 390.754 1071.13 388.867 1070.2 387.168C1069.28 385.453 1068.02 384.089 1066.4 383.076C1064.8 382.063 1062.97 381.557 1060.91 381.557C1059.36 381.557 1057.91 381.867 1056.57 382.488C1055.23 383.092 1054.06 383.925 1053.05 384.987C1052.05 386.049 1051.27 387.266 1050.69 388.638C1050.12 389.994 1049.84 391.423 1049.84 392.926C1049.84 394.919 1050.3 396.781 1051.23 398.513C1052.18 400.244 1053.47 401.641 1055.1 402.703C1056.75 403.765 1058.62 404.295 1060.71 404.295ZM1103.18 409.686C1099.82 409.686 1096.85 409.09 1094.27 407.897C1091.7 406.689 1089.7 405.031 1088.26 402.923C1086.82 400.8 1086.11 398.382 1086.13 395.67C1086.11 393.547 1086.53 391.587 1087.38 389.79C1088.23 387.977 1089.39 386.466 1090.86 385.257C1092.35 384.032 1094 383.256 1095.83 382.929V382.635C1093.43 382.014 1091.52 380.667 1090.1 378.592C1088.68 376.501 1087.98 374.124 1087.99 371.462C1087.98 368.913 1088.62 366.635 1089.93 364.625C1091.24 362.616 1093.03 361.032 1095.32 359.872C1097.62 358.712 1100.24 358.132 1103.18 358.132C1106.09 358.132 1108.69 358.712 1110.98 359.872C1113.26 361.032 1115.06 362.616 1116.37 364.625C1117.69 366.635 1118.36 368.913 1118.38 371.462C1118.36 374.124 1117.63 376.501 1116.2 378.592C1114.77 380.667 1112.89 382.014 1110.54 382.635V382.929C1112.35 383.256 1113.98 384.032 1115.44 385.257C1116.89 386.466 1118.05 387.977 1118.92 389.79C1119.78 391.587 1120.22 393.547 1120.24 395.67C1120.22 398.382 1119.49 400.8 1118.03 402.923C1116.6 405.031 1114.59 406.689 1112.03 407.897C1109.48 409.09 1106.53 409.686 1103.18 409.686ZM1103.18 404.295C1105.46 404.295 1107.42 403.928 1109.07 403.193C1110.72 402.458 1111.99 401.42 1112.89 400.081C1113.79 398.741 1114.24 397.173 1114.26 395.376C1114.24 393.482 1113.75 391.807 1112.79 390.353C1111.83 388.9 1110.51 387.756 1108.84 386.923C1107.19 386.09 1105.31 385.673 1103.18 385.673C1101.04 385.673 1099.13 386.09 1097.45 386.923C1095.78 387.756 1094.47 388.9 1093.51 390.353C1092.56 391.807 1092.09 393.482 1092.11 395.376C1092.09 397.173 1092.53 398.741 1093.41 400.081C1094.31 401.42 1095.59 402.458 1097.25 403.193C1098.92 403.928 1100.9 404.295 1103.18 404.295ZM1103.18 380.479C1104.98 380.479 1106.57 380.119 1107.96 379.401C1109.37 378.682 1110.47 377.677 1111.27 376.387C1112.07 375.096 1112.48 373.585 1112.5 371.854C1112.48 370.155 1112.08 368.676 1111.29 367.419C1110.51 366.145 1109.42 365.164 1108.04 364.478C1106.65 363.776 1105.03 363.425 1103.18 363.425C1101.31 363.425 1099.66 363.776 1098.26 364.478C1096.85 365.164 1095.77 366.145 1095 367.419C1094.23 368.676 1093.86 370.155 1093.87 371.854C1093.86 373.585 1094.24 375.096 1095.03 376.387C1095.83 377.677 1096.93 378.682 1098.33 379.401C1099.74 380.119 1101.35 380.479 1103.18 380.479Z" fill="black"/>
</svg>
