<svg width="1920" height="384" viewBox="0 0 1920 384" fill="none" xmlns="http://www.w3.org/2000/svg">
<rect width="1920" height="384" fill="#E7E7E7"/>
<path d="M821.837 177.318V227.5H815.76V183.689H815.466L803.214 191.824V185.649L815.76 177.318H821.837ZM852.245 176.632C854.303 176.648 856.361 177.04 858.419 177.808C860.478 178.576 862.356 179.85 864.055 181.631C865.754 183.395 867.118 185.804 868.147 188.859C869.176 191.914 869.691 195.744 869.691 200.351C869.691 204.81 869.266 208.772 868.417 212.235C867.583 215.681 866.375 218.589 864.79 220.958C863.222 223.326 861.311 225.123 859.056 226.348C856.819 227.574 854.287 228.186 851.461 228.186C848.651 228.186 846.143 227.631 843.938 226.52C841.749 225.393 839.952 223.833 838.548 221.84C837.159 219.831 836.269 217.503 835.877 214.857H841.855C842.395 217.16 843.464 219.063 845.065 220.566C846.683 222.052 848.814 222.795 851.461 222.795C855.332 222.795 858.387 221.105 860.625 217.723C862.879 214.342 864.006 209.564 864.006 203.389H863.614C862.699 204.761 861.613 205.946 860.355 206.942C859.097 207.939 857.701 208.706 856.165 209.245C854.63 209.784 852.996 210.054 851.265 210.054C848.39 210.054 845.751 209.343 843.35 207.922C840.965 206.485 839.054 204.516 837.616 202.017C836.195 199.501 835.485 196.626 835.485 193.392C835.485 190.321 836.171 187.511 837.543 184.963C838.931 182.398 840.875 180.357 843.375 178.837C845.89 177.318 848.847 176.583 852.245 176.632ZM852.245 182.023C850.186 182.023 848.332 182.537 846.683 183.566C845.049 184.579 843.75 185.951 842.787 187.683C841.839 189.398 841.365 191.301 841.365 193.392C841.365 195.483 841.823 197.386 842.738 199.101C843.669 200.8 844.935 202.156 846.536 203.169C848.153 204.165 849.99 204.663 852.049 204.663C853.6 204.663 855.046 204.361 856.386 203.757C857.725 203.136 858.893 202.295 859.89 201.233C860.902 200.155 861.695 198.938 862.266 197.582C862.838 196.21 863.124 194.781 863.124 193.294C863.124 191.334 862.65 189.496 861.703 187.781C860.772 186.066 859.481 184.677 857.831 183.615C856.198 182.554 854.336 182.023 852.245 182.023ZM879.326 227.5V223.089L895.89 204.957C897.834 202.834 899.435 200.988 900.693 199.42C901.951 197.835 902.882 196.349 903.486 194.96C904.107 193.555 904.417 192.085 904.417 190.55C904.417 188.786 903.993 187.258 903.143 185.968C902.31 184.677 901.167 183.681 899.713 182.978C898.259 182.276 896.625 181.925 894.812 181.925C892.885 181.925 891.202 182.325 889.765 183.125C888.343 183.909 887.241 185.012 886.457 186.433C885.689 187.854 885.305 189.521 885.305 191.432H879.522C879.522 188.491 880.2 185.911 881.556 183.689C882.912 181.467 884.758 179.736 887.094 178.494C889.446 177.253 892.084 176.632 895.008 176.632C897.949 176.632 900.554 177.253 902.825 178.494C905.095 179.736 906.876 181.41 908.166 183.517C909.457 185.625 910.102 187.969 910.102 190.55C910.102 192.396 909.767 194.201 909.097 195.965C908.444 197.713 907.301 199.665 905.667 201.821C904.05 203.961 901.804 206.575 898.929 209.662L887.657 221.717V222.109H910.984V227.5H879.326ZM937.472 228.186C933.78 228.186 930.635 227.181 928.038 225.172C925.441 223.147 923.456 220.214 922.084 216.376C920.712 212.521 920.026 207.865 920.026 202.409C920.026 196.986 920.712 192.355 922.084 188.516C923.472 184.661 925.465 181.721 928.063 179.695C930.676 177.653 933.813 176.632 937.472 176.632C941.131 176.632 944.259 177.653 946.856 179.695C949.47 181.721 951.463 184.661 952.835 188.516C954.223 192.355 954.918 196.986 954.918 202.409C954.918 207.865 954.232 212.521 952.859 216.376C951.487 220.214 949.503 223.147 946.905 225.172C944.308 227.181 941.163 228.186 937.472 228.186ZM937.472 222.795C941.131 222.795 943.973 221.031 945.999 217.503C948.024 213.974 949.037 208.943 949.037 202.409C949.037 198.064 948.571 194.364 947.64 191.309C946.726 188.255 945.402 185.927 943.671 184.326C941.956 182.725 939.889 181.925 937.472 181.925C933.845 181.925 931.011 183.713 928.969 187.291C926.927 190.852 925.906 195.891 925.906 202.409C925.906 206.754 926.364 210.446 927.278 213.484C928.193 216.523 929.508 218.834 931.223 220.419C932.955 222.003 935.038 222.795 937.472 222.795ZM993.73 218.483L966.091 190.844L969.815 187.119L997.455 214.759L993.73 218.483ZM969.815 218.483L966.091 214.759L993.73 187.119L997.455 190.844L969.815 218.483ZM1026.67 228.186C1023.43 228.186 1020.55 227.631 1018.02 226.52C1015.5 225.409 1013.5 223.865 1012.02 221.889C1010.55 219.896 1009.74 217.585 1009.61 214.955H1015.79C1015.92 216.572 1016.47 217.968 1017.46 219.145C1018.44 220.304 1019.72 221.203 1021.3 221.84C1022.89 222.477 1024.64 222.795 1026.57 222.795C1028.73 222.795 1030.64 222.42 1032.3 221.668C1033.97 220.917 1035.28 219.871 1036.22 218.532C1037.17 217.192 1037.65 215.641 1037.65 213.876C1037.65 212.031 1037.19 210.405 1036.27 209C1035.36 207.579 1034.02 206.468 1032.25 205.668C1030.49 204.868 1028.33 204.467 1025.79 204.467H1021.77V199.077H1025.79C1027.78 199.077 1029.53 198.717 1031.03 197.999C1032.55 197.28 1033.73 196.267 1034.58 194.96C1035.45 193.653 1035.88 192.118 1035.88 190.354C1035.88 188.655 1035.51 187.176 1034.75 185.919C1034 184.661 1032.94 183.681 1031.57 182.978C1030.21 182.276 1028.61 181.925 1026.77 181.925C1025.03 181.925 1023.4 182.243 1021.87 182.88C1020.35 183.501 1019.1 184.408 1018.14 185.6C1017.18 186.776 1016.65 188.197 1016.57 189.864H1010.69C1010.79 187.234 1011.58 184.93 1013.07 182.954C1014.56 180.961 1016.5 179.409 1018.9 178.298C1021.32 177.187 1023.97 176.632 1026.86 176.632C1029.97 176.632 1032.63 177.261 1034.85 178.519C1037.07 179.76 1038.78 181.402 1039.97 183.444C1041.17 185.486 1041.76 187.691 1041.76 190.06C1041.76 192.886 1041.02 195.295 1039.53 197.288C1038.06 199.281 1036.06 200.661 1033.53 201.429V201.821C1036.7 202.344 1039.17 203.691 1040.95 205.864C1042.73 208.02 1043.62 210.691 1043.62 213.876C1043.62 216.604 1042.88 219.055 1041.39 221.227C1039.92 223.384 1037.91 225.082 1035.37 226.324C1032.82 227.565 1029.92 228.186 1026.67 228.186ZM1069.72 228.186C1066.35 228.186 1063.38 227.59 1060.8 226.397C1058.24 225.189 1056.23 223.531 1054.8 221.423C1053.36 219.3 1052.65 216.882 1052.67 214.17C1052.65 212.047 1053.07 210.087 1053.92 208.29C1054.76 206.477 1055.92 204.966 1057.39 203.757C1058.88 202.532 1060.54 201.756 1062.37 201.429V201.135C1059.97 200.514 1058.06 199.167 1056.64 197.092C1055.21 195.001 1054.51 192.624 1054.53 189.962C1054.51 187.413 1055.16 185.135 1056.46 183.125C1057.77 181.116 1059.57 179.532 1061.85 178.372C1064.16 177.212 1066.78 176.632 1069.72 176.632C1072.63 176.632 1075.22 177.212 1077.51 178.372C1079.8 179.532 1081.6 181.116 1082.9 183.125C1084.23 185.135 1084.9 187.413 1084.91 189.962C1084.9 192.624 1084.17 195.001 1082.73 197.092C1081.31 199.167 1079.42 200.514 1077.07 201.135V201.429C1078.88 201.756 1080.52 202.532 1081.97 203.757C1083.42 204.966 1084.58 206.477 1085.45 208.29C1086.32 210.087 1086.76 212.047 1086.77 214.17C1086.76 216.882 1086.02 219.3 1084.57 221.423C1083.13 223.531 1081.13 225.189 1078.57 226.397C1076.02 227.59 1073.07 228.186 1069.72 228.186ZM1069.72 222.795C1071.99 222.795 1073.95 222.428 1075.6 221.693C1077.25 220.958 1078.52 219.92 1079.42 218.581C1080.32 217.241 1080.78 215.673 1080.79 213.876C1080.78 211.982 1080.29 210.307 1079.32 208.853C1078.36 207.4 1077.05 206.256 1075.38 205.423C1073.73 204.59 1071.84 204.173 1069.72 204.173C1067.58 204.173 1065.67 204.59 1063.99 205.423C1062.32 206.256 1061 207.4 1060.04 208.853C1059.09 210.307 1058.63 211.982 1058.64 213.876C1058.63 215.673 1059.06 217.241 1059.94 218.581C1060.84 219.92 1062.12 220.958 1063.79 221.693C1065.46 222.428 1067.43 222.795 1069.72 222.795ZM1069.72 198.979C1071.52 198.979 1073.11 198.619 1074.5 197.901C1075.9 197.182 1077.01 196.177 1077.81 194.887C1078.61 193.596 1079.01 192.085 1079.03 190.354C1079.01 188.655 1078.61 187.176 1077.83 185.919C1077.05 184.645 1075.96 183.664 1074.57 182.978C1073.18 182.276 1071.57 181.925 1069.72 181.925C1067.84 181.925 1066.2 182.276 1064.79 182.978C1063.39 183.664 1062.3 184.645 1061.54 185.919C1060.77 187.176 1060.39 188.655 1060.41 190.354C1060.39 192.085 1060.78 193.596 1061.56 194.887C1062.36 196.177 1063.46 197.182 1064.87 197.901C1066.27 198.619 1067.89 198.979 1069.72 198.979ZM1094.99 217.209V212.21L1117.04 177.318H1120.67V185.061H1118.22L1101.55 211.426V211.818H1131.25V217.209H1094.99ZM1118.61 227.5V215.69V213.362V177.318H1124.39V227.5H1118.61Z" fill="black"/>
</svg>
