<svg width="1920" height="1080" viewBox="0 0 1920 1080" fill="none" xmlns="http://www.w3.org/2000/svg">
<rect width="1920" height="1080" fill="#E7E7E7"/>
<path d="M798.837 514.818V565H792.76V521.189H792.466L780.214 529.324V523.149L792.76 514.818H798.837ZM829.245 514.132C831.303 514.148 833.361 514.54 835.419 515.308C837.478 516.076 839.356 517.35 841.055 519.131C842.754 520.895 844.118 523.304 845.147 526.359C846.176 529.414 846.691 533.244 846.691 537.851C846.691 542.31 846.266 546.272 845.417 549.735C844.583 553.181 843.375 556.089 841.79 558.458C840.222 560.826 838.311 562.623 836.056 563.848C833.819 565.074 831.287 565.686 828.461 565.686C825.651 565.686 823.143 565.131 820.938 564.02C818.749 562.893 816.952 561.333 815.548 559.34C814.159 557.331 813.269 555.003 812.877 552.357H818.855C819.395 554.66 820.464 556.563 822.065 558.066C823.683 559.552 825.814 560.295 828.461 560.295C832.332 560.295 835.387 558.605 837.625 555.223C839.879 551.842 841.006 547.064 841.006 540.889H840.614C839.699 542.261 838.613 543.446 837.355 544.442C836.097 545.439 834.701 546.206 833.165 546.745C831.63 547.284 829.996 547.554 828.265 547.554C825.39 547.554 822.751 546.843 820.35 545.422C817.965 543.985 816.054 542.016 814.616 539.517C813.195 537.001 812.485 534.126 812.485 530.892C812.485 527.821 813.171 525.011 814.543 522.463C815.931 519.898 817.875 517.857 820.375 516.337C822.89 514.818 825.847 514.083 829.245 514.132ZM829.245 519.523C827.186 519.523 825.332 520.037 823.683 521.066C822.049 522.079 820.75 523.451 819.787 525.183C818.839 526.898 818.365 528.801 818.365 530.892C818.365 532.983 818.823 534.886 819.738 536.601C820.669 538.3 821.935 539.656 823.536 540.669C825.153 541.665 826.99 542.163 829.049 542.163C830.6 542.163 832.046 541.861 833.386 541.257C834.725 540.636 835.893 539.795 836.89 538.733C837.902 537.655 838.695 536.438 839.266 535.082C839.838 533.71 840.124 532.281 840.124 530.794C840.124 528.834 839.65 526.996 838.703 525.281C837.772 523.566 836.481 522.177 834.831 521.115C833.198 520.054 831.336 519.523 829.245 519.523ZM856.326 565V560.589L872.89 542.457C874.834 540.334 876.435 538.488 877.693 536.92C878.951 535.335 879.882 533.849 880.486 532.46C881.107 531.055 881.417 529.585 881.417 528.05C881.417 526.286 880.993 524.758 880.143 523.468C879.31 522.177 878.167 521.181 876.713 520.478C875.259 519.776 873.625 519.425 871.812 519.425C869.885 519.425 868.202 519.825 866.765 520.625C865.343 521.409 864.241 522.512 863.457 523.933C862.689 525.354 862.305 527.021 862.305 528.932H856.522C856.522 525.991 857.2 523.411 858.556 521.189C859.912 518.967 861.758 517.236 864.094 515.994C866.446 514.753 869.084 514.132 872.008 514.132C874.949 514.132 877.554 514.753 879.825 515.994C882.095 517.236 883.876 518.91 885.166 521.017C886.457 523.125 887.102 525.469 887.102 528.05C887.102 529.896 886.767 531.701 886.097 533.465C885.444 535.213 884.301 537.165 882.667 539.321C881.05 541.461 878.804 544.075 875.929 547.162L864.657 559.217V559.609H887.984V565H856.326ZM914.472 565.686C910.78 565.686 907.635 564.681 905.038 562.672C902.441 560.647 900.456 557.714 899.084 553.876C897.712 550.021 897.026 545.365 897.026 539.909C897.026 534.486 897.712 529.855 899.084 526.016C900.472 522.161 902.465 519.221 905.063 517.195C907.676 515.153 910.813 514.132 914.472 514.132C918.131 514.132 921.259 515.153 923.856 517.195C926.47 519.221 928.463 522.161 929.835 526.016C931.223 529.855 931.918 534.486 931.918 539.909C931.918 545.365 931.232 550.021 929.859 553.876C928.487 557.714 926.503 560.647 923.905 562.672C921.308 564.681 918.163 565.686 914.472 565.686ZM914.472 560.295C918.131 560.295 920.973 558.531 922.999 555.003C925.024 551.474 926.037 546.443 926.037 539.909C926.037 535.564 925.571 531.864 924.64 528.809C923.726 525.755 922.402 523.427 920.671 521.826C918.956 520.225 916.889 519.425 914.472 519.425C910.845 519.425 908.011 521.213 905.969 524.791C903.927 528.352 902.906 533.391 902.906 539.909C902.906 544.254 903.364 547.946 904.278 550.984C905.193 554.023 906.508 556.334 908.223 557.919C909.955 559.503 912.038 560.295 914.472 560.295ZM970.73 555.983L943.091 528.344L946.815 524.619L974.455 552.259L970.73 555.983ZM946.815 555.983L943.091 552.259L970.73 524.619L974.455 528.344L946.815 555.983ZM1004.35 514.818V565H998.278V521.189H997.983L985.732 529.324V523.149L998.278 514.818H1004.35ZM1035.15 565.686C1031.46 565.686 1028.32 564.681 1025.72 562.672C1023.12 560.647 1021.14 557.714 1019.77 553.876C1018.39 550.021 1017.71 545.365 1017.71 539.909C1017.71 534.486 1018.39 529.855 1019.77 526.016C1021.16 522.161 1023.15 519.221 1025.75 517.195C1028.36 515.153 1031.5 514.132 1035.15 514.132C1038.81 514.132 1041.94 515.153 1044.54 517.195C1047.15 519.221 1049.15 522.161 1050.52 526.016C1051.91 529.855 1052.6 534.486 1052.6 539.909C1052.6 545.365 1051.91 550.021 1050.54 553.876C1049.17 557.714 1047.19 560.647 1044.59 562.672C1041.99 564.681 1038.85 565.686 1035.15 565.686ZM1035.15 560.295C1038.81 560.295 1041.66 558.531 1043.68 555.003C1045.71 551.474 1046.72 546.443 1046.72 539.909C1046.72 535.564 1046.25 531.864 1045.32 528.809C1044.41 525.755 1043.09 523.427 1041.35 521.826C1039.64 520.225 1037.57 519.425 1035.15 519.425C1031.53 519.425 1028.69 521.213 1026.65 524.791C1024.61 528.352 1023.59 533.391 1023.59 539.909C1023.59 544.254 1024.05 547.946 1024.96 550.984C1025.88 554.023 1027.19 556.334 1028.91 557.919C1030.64 559.503 1032.72 560.295 1035.15 560.295ZM1077.99 565.686C1074.62 565.686 1071.65 565.09 1069.07 563.897C1066.5 562.689 1064.5 561.031 1063.06 558.923C1061.63 556.8 1060.91 554.382 1060.93 551.67C1060.91 549.547 1061.33 547.587 1062.18 545.79C1063.03 543.977 1064.19 542.466 1065.66 541.257C1067.15 540.032 1068.8 539.256 1070.63 538.929V538.635C1068.23 538.014 1066.32 536.667 1064.9 534.592C1063.48 532.501 1062.78 530.124 1062.79 527.462C1062.78 524.913 1063.42 522.635 1064.73 520.625C1066.04 518.616 1067.83 517.032 1070.12 515.872C1072.42 514.712 1075.04 514.132 1077.99 514.132C1080.89 514.132 1083.49 514.712 1085.78 515.872C1088.06 517.032 1089.86 518.616 1091.17 520.625C1092.49 522.635 1093.16 524.913 1093.18 527.462C1093.16 530.124 1092.43 532.501 1091 534.592C1089.58 536.667 1087.69 538.014 1085.34 538.635V538.929C1087.15 539.256 1088.78 540.032 1090.24 541.257C1091.69 542.466 1092.85 543.977 1093.72 545.79C1094.58 547.587 1095.02 549.547 1095.04 551.67C1095.02 554.382 1094.29 556.8 1092.83 558.923C1091.4 561.031 1089.4 562.689 1086.83 563.897C1084.28 565.09 1081.33 565.686 1077.99 565.686ZM1077.99 560.295C1080.26 560.295 1082.22 559.928 1083.87 559.193C1085.52 558.458 1086.79 557.42 1087.69 556.081C1088.59 554.741 1089.04 553.173 1089.06 551.376C1089.04 549.482 1088.55 547.807 1087.59 546.353C1086.63 544.9 1085.31 543.756 1083.65 542.923C1082 542.09 1080.11 541.673 1077.99 541.673C1075.85 541.673 1073.93 542.09 1072.25 542.923C1070.59 543.756 1069.27 544.9 1068.31 546.353C1067.36 547.807 1066.89 549.482 1066.91 551.376C1066.89 553.173 1067.33 554.741 1068.21 556.081C1069.11 557.42 1070.39 558.458 1072.06 559.193C1073.72 559.928 1075.7 560.295 1077.99 560.295ZM1077.99 536.479C1079.78 536.479 1081.37 536.119 1082.76 535.401C1084.17 534.682 1085.27 533.677 1086.07 532.387C1086.87 531.096 1087.28 529.585 1087.3 527.854C1087.28 526.155 1086.88 524.676 1086.1 523.419C1085.31 522.145 1084.23 521.164 1082.84 520.478C1081.45 519.776 1079.83 519.425 1077.99 519.425C1076.11 519.425 1074.47 519.776 1073.06 520.478C1071.66 521.164 1070.57 522.145 1069.8 523.419C1069.03 524.676 1068.66 526.155 1068.67 527.854C1068.66 529.585 1069.04 531.096 1069.83 532.387C1070.63 533.677 1071.73 534.682 1073.13 535.401C1074.54 536.119 1076.16 536.479 1077.99 536.479ZM1120.8 565.686C1117.11 565.686 1113.96 564.681 1111.36 562.672C1108.77 560.647 1106.78 557.714 1105.41 553.876C1104.04 550.021 1103.35 545.365 1103.35 539.909C1103.35 534.486 1104.04 529.855 1105.41 526.016C1106.8 522.161 1108.79 519.221 1111.39 517.195C1114 515.153 1117.14 514.132 1120.8 514.132C1124.46 514.132 1127.59 515.153 1130.18 517.195C1132.8 519.221 1134.79 522.161 1136.16 526.016C1137.55 529.855 1138.24 534.486 1138.24 539.909C1138.24 545.365 1137.56 550.021 1136.19 553.876C1134.81 557.714 1132.83 560.647 1130.23 562.672C1127.63 564.681 1124.49 565.686 1120.8 565.686ZM1120.8 560.295C1124.46 560.295 1127.3 558.531 1129.32 555.003C1131.35 551.474 1132.36 546.443 1132.36 539.909C1132.36 535.564 1131.9 531.864 1130.97 528.809C1130.05 525.755 1128.73 523.427 1127 521.826C1125.28 520.225 1123.22 519.425 1120.8 519.425C1117.17 519.425 1114.34 521.213 1112.3 524.791C1110.25 528.352 1109.23 533.391 1109.23 539.909C1109.23 544.254 1109.69 547.946 1110.6 550.984C1111.52 554.023 1112.83 556.334 1114.55 557.919C1116.28 559.503 1118.36 560.295 1120.8 560.295Z" fill="black"/>
</svg>
