<svg width="1920" height="512" viewBox="0 0 1920 512" fill="none" xmlns="http://www.w3.org/2000/svg">
<rect width="1920" height="512" fill="#E7E7E7"/>
<path d="M821.837 230.818V281H815.76V237.189H815.466L803.214 245.324V239.149L815.76 230.818H821.837ZM852.245 230.132C854.303 230.148 856.361 230.54 858.419 231.308C860.478 232.076 862.356 233.35 864.055 235.131C865.754 236.895 867.118 239.304 868.147 242.359C869.176 245.414 869.691 249.244 869.691 253.851C869.691 258.31 869.266 262.272 868.417 265.735C867.583 269.181 866.375 272.089 864.79 274.458C863.222 276.826 861.311 278.623 859.056 279.848C856.819 281.074 854.287 281.686 851.461 281.686C848.651 281.686 846.143 281.131 843.938 280.02C841.749 278.893 839.952 277.333 838.548 275.34C837.159 273.331 836.269 271.003 835.877 268.357H841.855C842.395 270.66 843.464 272.563 845.065 274.066C846.683 275.552 848.814 276.295 851.461 276.295C855.332 276.295 858.387 274.605 860.625 271.223C862.879 267.842 864.006 263.064 864.006 256.889H863.614C862.699 258.261 861.613 259.446 860.355 260.442C859.097 261.439 857.701 262.206 856.165 262.745C854.63 263.284 852.996 263.554 851.265 263.554C848.39 263.554 845.751 262.843 843.35 261.422C840.965 259.985 839.054 258.016 837.616 255.517C836.195 253.001 835.485 250.126 835.485 246.892C835.485 243.821 836.171 241.011 837.543 238.463C838.931 235.898 840.875 233.857 843.375 232.337C845.89 230.818 848.847 230.083 852.245 230.132ZM852.245 235.523C850.186 235.523 848.332 236.037 846.683 237.066C845.049 238.079 843.75 239.451 842.787 241.183C841.839 242.898 841.365 244.801 841.365 246.892C841.365 248.983 841.823 250.886 842.738 252.601C843.669 254.3 844.935 255.656 846.536 256.669C848.153 257.665 849.99 258.163 852.049 258.163C853.6 258.163 855.046 257.861 856.386 257.257C857.725 256.636 858.893 255.795 859.89 254.733C860.902 253.655 861.695 252.438 862.266 251.082C862.838 249.71 863.124 248.281 863.124 246.794C863.124 244.834 862.65 242.996 861.703 241.281C860.772 239.566 859.481 238.177 857.831 237.115C856.198 236.054 854.336 235.523 852.245 235.523ZM879.326 281V276.589L895.89 258.457C897.834 256.334 899.435 254.488 900.693 252.92C901.951 251.335 902.882 249.849 903.486 248.46C904.107 247.055 904.417 245.585 904.417 244.05C904.417 242.286 903.993 240.758 903.143 239.468C902.31 238.177 901.167 237.181 899.713 236.478C898.259 235.776 896.625 235.425 894.812 235.425C892.885 235.425 891.202 235.825 889.765 236.625C888.343 237.409 887.241 238.512 886.457 239.933C885.689 241.354 885.305 243.021 885.305 244.932H879.522C879.522 241.991 880.2 239.411 881.556 237.189C882.912 234.967 884.758 233.236 887.094 231.994C889.446 230.753 892.084 230.132 895.008 230.132C897.949 230.132 900.554 230.753 902.825 231.994C905.095 233.236 906.876 234.91 908.166 237.017C909.457 239.125 910.102 241.469 910.102 244.05C910.102 245.896 909.767 247.701 909.097 249.465C908.444 251.213 907.301 253.165 905.667 255.321C904.05 257.461 901.804 260.075 898.929 263.162L887.657 275.217V275.609H910.984V281H879.326ZM937.472 281.686C933.78 281.686 930.635 280.681 928.038 278.672C925.441 276.647 923.456 273.714 922.084 269.876C920.712 266.021 920.026 261.365 920.026 255.909C920.026 250.486 920.712 245.855 922.084 242.016C923.472 238.161 925.465 235.221 928.063 233.195C930.676 231.153 933.813 230.132 937.472 230.132C941.131 230.132 944.259 231.153 946.856 233.195C949.47 235.221 951.463 238.161 952.835 242.016C954.223 245.855 954.918 250.486 954.918 255.909C954.918 261.365 954.232 266.021 952.859 269.876C951.487 273.714 949.503 276.647 946.905 278.672C944.308 280.681 941.163 281.686 937.472 281.686ZM937.472 276.295C941.131 276.295 943.973 274.531 945.999 271.003C948.024 267.474 949.037 262.443 949.037 255.909C949.037 251.564 948.571 247.864 947.64 244.809C946.726 241.755 945.402 239.427 943.671 237.826C941.956 236.225 939.889 235.425 937.472 235.425C933.845 235.425 931.011 237.213 928.969 240.791C926.927 244.352 925.906 249.391 925.906 255.909C925.906 260.254 926.364 263.946 927.278 266.984C928.193 270.023 929.508 272.334 931.223 273.919C932.955 275.503 935.038 276.295 937.472 276.295ZM993.73 271.983L966.091 244.344L969.815 240.619L997.455 268.259L993.73 271.983ZM969.815 271.983L966.091 268.259L993.73 240.619L997.455 244.344L969.815 271.983ZM1025.39 281.686C1022.52 281.686 1019.93 281.114 1017.63 279.971C1015.32 278.827 1013.48 277.259 1012.09 275.266C1010.7 273.273 1009.94 271.003 1009.81 268.455H1015.69C1015.92 270.725 1016.95 272.604 1018.78 274.09C1020.62 275.56 1022.83 276.295 1025.39 276.295C1027.45 276.295 1029.28 275.814 1030.88 274.85C1032.5 273.886 1033.77 272.563 1034.68 270.88C1035.61 269.181 1036.08 267.262 1036.08 265.122C1036.08 262.933 1035.6 260.981 1034.63 259.266C1033.68 257.534 1032.38 256.17 1030.71 255.174C1029.04 254.178 1027.14 253.671 1025 253.655C1023.47 253.638 1021.89 253.875 1020.27 254.365C1018.66 254.839 1017.32 255.452 1016.28 256.203L1010.59 255.517L1013.63 230.818H1039.7V236.209H1018.73L1016.97 251.009H1017.26C1018.29 250.192 1019.58 249.514 1021.13 248.975C1022.68 248.436 1024.3 248.166 1025.98 248.166C1029.05 248.166 1031.79 248.901 1034.19 250.371C1036.61 251.825 1038.5 253.818 1039.88 256.35C1041.26 258.882 1041.96 261.773 1041.96 265.024C1041.96 268.226 1041.24 271.085 1039.8 273.6C1038.38 276.099 1036.42 278.076 1033.92 279.53C1031.42 280.967 1028.58 281.686 1025.39 281.686ZM1069.33 230.818V281H1063.26V237.189H1062.96L1050.71 245.324V239.149L1063.26 230.818H1069.33ZM1083.77 281V276.589L1100.33 258.457C1102.27 256.334 1103.87 254.488 1105.13 252.92C1106.39 251.335 1107.32 249.849 1107.93 248.46C1108.55 247.055 1108.86 245.585 1108.86 244.05C1108.86 242.286 1108.43 240.758 1107.58 239.468C1106.75 238.177 1105.61 237.181 1104.15 236.478C1102.7 235.776 1101.06 235.425 1099.25 235.425C1097.32 235.425 1095.64 235.825 1094.2 236.625C1092.78 237.409 1091.68 238.512 1090.9 239.933C1090.13 241.354 1089.74 243.021 1089.74 244.932H1083.96C1083.96 241.991 1084.64 239.411 1086 237.189C1087.35 234.967 1089.2 233.236 1091.53 231.994C1093.89 230.753 1096.52 230.132 1099.45 230.132C1102.39 230.132 1104.99 230.753 1107.26 231.994C1109.53 233.236 1111.32 234.91 1112.61 237.017C1113.9 239.125 1114.54 241.469 1114.54 244.05C1114.54 245.896 1114.21 247.701 1113.54 249.465C1112.88 251.213 1111.74 253.165 1110.11 255.321C1108.49 257.461 1106.24 260.075 1103.37 263.162L1092.1 275.217V275.609H1115.42V281H1083.77Z" fill="black"/>
</svg>
