<?xml version="1.0" encoding="UTF-8"?>
<svg xmlns="http://www.w3.org/2000/svg" xmlns:xlink="http://www.w3.org/1999/xlink" xmlns:svgjs="http://svgjs.com/svgjs" version="1.1" width="512" height="512" x="0" y="0" viewBox="0 0 512 512" style="enable-background:new 0 0 512 512" xml:space="preserve" class="">
  <g>
    <g>
      <path d="m304.097 200.403h-8.016c-4.142 0-7.5 3.358-7.5 7.5s3.358 7.5 7.5 7.5h8.016c.285 0 .516.231.516.516v32.064c0 .285-.231.516-.516.516h-32.581v-8.532c0-4.142-3.358-7.5-7.5-7.5s-7.5 3.358-7.5 7.5v8.532h-17.064v-33.097h24.564c4.142 0 7.5-3.358 7.5-7.5s-3.358-7.5-7.5-7.5h-56.113c-8.556 0-15.516 6.96-15.516 15.516v32.064c0 2.936.834 5.673 2.256 8.016-1.422 2.343-2.256 5.081-2.256 8.016v32.064c0 8.556 6.96 15.516 15.516 15.516h96.193c8.556 0 15.516-6.96 15.516-15.516v-32.064c0-2.936-.834-5.673-2.256-8.016 1.422-2.343 2.256-5.081 2.256-8.016v-32.064c.001-8.554-6.96-15.515-15.515-15.515zm-96.71 15.516c0-.285.231-.516.516-.516h16.548v33.097h-16.548c-.285 0-.516-.231-.516-.516zm0 80.162v-32.064c0-.285.231-.516.516-.516h16.548v33.097h-16.548c-.284-.001-.516-.233-.516-.517zm97.226 0c0 .285-.231.516-.516.516h-32.581v-8.532c0-4.142-3.358-7.5-7.5-7.5s-7.5 3.358-7.5 7.5v8.532h-17.064v-33.097h64.645c.285 0 .516.231.516.516z" fill="#ffffff" data-original="#000000"/>
      <path d="m256 63.097c17.396 0 31.548-14.152 31.548-31.548s-14.152-31.549-31.548-31.549-31.548 14.152-31.548 31.548 14.152 31.549 31.548 31.549zm0-48.097c9.125 0 16.548 7.423 16.548 16.548s-7.423 16.549-16.548 16.549-16.548-7.423-16.548-16.548 7.423-16.549 16.548-16.549z" fill="#ffffff" data-original="#000000"/>
      <path d="m256 80.161c-4.142 0-7.5 3.358-7.5 7.5v41.629l-10.548-14.065c-2.486-3.314-7.186-3.985-10.5-1.5-3.313 2.485-3.985 7.186-1.5 10.5l24.048 32.066c1.417 1.889 3.639 3 6 3s4.583-1.111 6-3l24.048-32.065c2.485-3.314 1.813-8.015-1.5-10.5s-8.015-1.813-10.5 1.5l-10.548 14.064v-41.629c0-4.142-3.358-7.5-7.5-7.5z" fill="#ffffff" data-original="#000000"/>
      <path d="m256 448.903c-17.396 0-31.548 14.152-31.548 31.548s14.152 31.549 31.548 31.549 31.548-14.152 31.548-31.548-14.152-31.549-31.548-31.549zm0 48.097c-9.125 0-16.548-7.423-16.548-16.548s7.423-16.548 16.548-16.548 16.548 7.423 16.548 16.548-7.423 16.548-16.548 16.548z" fill="#ffffff" data-original="#000000"/>
      <path d="m256 431.839c4.142 0 7.5-3.358 7.5-7.5v-41.629l10.548 14.065c1.474 1.965 3.726 3 6.006 3 1.566 0 3.145-.489 4.494-1.5 3.313-2.485 3.985-7.186 1.5-10.5l-24.048-32.066c-1.417-1.889-3.639-3-6-3s-4.583 1.111-6 3l-24.048 32.065c-2.485 3.314-1.813 8.015 1.5 10.5 3.314 2.485 8.016 1.813 10.5-1.5l10.548-14.064v41.629c0 4.142 3.358 7.5 7.5 7.5z" fill="#ffffff" data-original="#000000"/>
      <path d="m480.452 224.452c-17.396 0-31.548 14.152-31.548 31.548s14.152 31.548 31.548 31.548 31.548-14.152 31.548-31.548-14.152-31.548-31.548-31.548zm0 48.096c-9.125 0-16.548-7.423-16.548-16.548s7.423-16.548 16.548-16.548 16.548 7.423 16.548 16.548-7.423 16.548-16.548 16.548z" fill="#ffffff" data-original="#000000"/>
      <path d="m398.274 227.452c-2.486-3.314-7.186-3.985-10.5-1.5l-32.065 24.048c-1.889 1.417-3 3.639-3 6s1.111 4.583 3 6l32.065 24.048c1.349 1.012 2.928 1.5 4.494 1.5 2.28 0 4.533-1.036 6.006-3 2.485-3.314 1.813-8.015-1.5-10.5l-14.064-10.548h41.629c4.142 0 7.5-3.358 7.5-7.5s-3.358-7.5-7.5-7.5h-41.629l14.065-10.548c3.313-2.486 3.985-7.186 1.499-10.5z" fill="#ffffff" data-original="#000000"/>
      <path d="m31.548 224.452c-17.396 0-31.548 14.152-31.548 31.548s14.152 31.548 31.548 31.548 31.549-14.152 31.549-31.548-14.153-31.548-31.549-31.548zm0 48.096c-9.125 0-16.548-7.423-16.548-16.548s7.423-16.548 16.548-16.548 16.549 7.423 16.549 16.548-7.424 16.548-16.549 16.548z" fill="#ffffff" data-original="#000000"/>
      <path d="m113.726 284.548c1.474 1.965 3.726 3 6.006 3 1.566 0 3.145-.489 4.494-1.5l32.065-24.048c1.889-1.417 3-3.639 3-6s-1.111-4.583-3-6l-32.065-24.048c-3.313-2.485-8.015-1.813-10.5 1.5-2.485 3.314-1.813 8.015 1.5 10.5l14.064 10.548h-41.629c-4.142 0-7.5 3.358-7.5 7.5s3.358 7.5 7.5 7.5h41.629l-14.065 10.548c-3.313 2.486-3.985 7.186-1.499 10.5z" fill="#ffffff" data-original="#000000"/>
      <path d="m414.711 383.163c-8.427 0-16.35 3.282-22.308 9.241-5.959 5.958-9.241 13.881-9.241 22.308s3.282 16.349 9.241 22.308c5.958 5.959 13.881 9.24 22.308 9.24s16.349-3.281 22.308-9.24c5.959-5.958 9.24-13.881 9.24-22.308s-3.281-16.35-9.24-22.308c-5.958-5.96-13.881-9.241-22.308-9.241zm11.702 43.25c-3.125 3.125-7.281 4.847-11.701 4.847s-8.576-1.721-11.702-4.847-4.847-7.281-4.847-11.701 1.722-8.576 4.847-11.702 7.281-4.847 11.702-4.847c4.42 0 8.576 1.722 11.701 4.847s4.847 7.281 4.847 11.702c-.001 4.419-1.722 8.575-4.847 11.701z" fill="#ffffff" data-original="#000000"/>
      <path d="m350.9 340.294 17.404 2.486c4.106.587 7.899-2.264 8.485-6.364.585-4.101-2.264-7.899-6.364-8.485l-39.678-5.668c-2.336-.332-4.694.453-6.364 2.122s-2.455 4.027-2.122 6.364l5.668 39.678c.535 3.741 3.743 6.44 7.416 6.44.353 0 .71-.025 1.07-.076 4.101-.586 6.95-4.385 6.364-8.485l-2.486-17.404 29.436 29.436c1.464 1.464 3.384 2.197 5.303 2.197s3.839-.732 5.303-2.197c2.929-2.929 2.929-7.678 0-10.606z" fill="#ffffff" data-original="#000000"/>
      <path d="m97.289 128.837c8.427 0 16.35-3.282 22.308-9.241 5.959-5.958 9.241-13.881 9.241-22.308s-3.282-16.349-9.241-22.308c-5.958-5.959-13.881-9.24-22.308-9.24s-16.349 3.281-22.308 9.24c-5.959 5.958-9.24 13.881-9.24 22.308s3.281 16.35 9.24 22.308c5.958 5.96 13.881 9.241 22.308 9.241zm-11.702-43.25c3.125-3.125 7.281-4.847 11.701-4.847s8.576 1.721 11.702 4.847 4.847 7.281 4.847 11.701-1.722 8.576-4.847 11.702-7.281 4.847-11.702 4.847c-4.42 0-8.576-1.722-11.701-4.847s-4.847-7.281-4.847-11.702c.001-4.419 1.722-8.575 4.847-11.701z" fill="#ffffff" data-original="#000000"/>
      <path d="m184.069 141.574c-.586-4.1-4.386-6.949-8.485-6.364-4.101.586-6.95 4.385-6.364 8.485l2.486 17.404-29.436-29.436c-2.929-2.929-7.678-2.929-10.606 0-2.929 2.929-2.929 7.678 0 10.606l29.436 29.436-17.404-2.486c-4.103-.584-7.899 2.264-8.485 6.364-.585 4.101 2.264 7.899 6.364 8.485l39.678 5.668c.354.05.708.075 1.061.075 1.975 0 3.886-.78 5.303-2.197 1.669-1.669 2.455-4.027 2.122-6.364z" fill="#ffffff" data-original="#000000"/>
      <path d="m414.711 65.741c-8.427 0-16.35 3.281-22.308 9.24-5.959 5.958-9.241 13.881-9.241 22.308s3.282 16.35 9.241 22.308c5.958 5.959 13.881 9.241 22.308 9.241s16.349-3.282 22.308-9.241c5.959-5.958 9.24-13.881 9.24-22.308s-3.281-16.349-9.24-22.308c-5.958-5.959-13.881-9.24-22.308-9.24zm11.702 43.249c-3.125 3.125-7.281 4.847-11.701 4.847s-8.576-1.722-11.702-4.847-4.847-7.281-4.847-11.702c0-4.42 1.722-8.576 4.847-11.701s7.281-4.847 11.702-4.847c4.42 0 8.576 1.721 11.701 4.847s4.847 7.281 4.847 11.701c-.001 4.421-1.722 8.577-4.847 11.702z" fill="#ffffff" data-original="#000000"/>
      <path d="m329.687 189.812c.353 0 .707-.025 1.061-.075l39.678-5.668c4.101-.586 6.95-4.385 6.364-8.485s-4.389-6.949-8.485-6.364l-17.404 2.486 29.436-29.436c2.929-2.929 2.929-7.678 0-10.606-2.929-2.929-7.678-2.929-10.606 0l-29.437 29.436 2.486-17.404c.585-4.101-2.264-7.899-6.364-8.485-4.104-.583-7.899 2.264-8.485 6.364l-5.668 39.678c-.333 2.337.452 4.695 2.122 6.364 1.416 1.415 3.327 2.195 5.302 2.195z" fill="#ffffff" data-original="#000000"/>
      <path d="m121.337 407.211c-4.142 0-7.5 3.358-7.5 7.5 0 9.125-7.423 16.548-16.548 16.548s-16.548-7.423-16.548-16.548 7.423-16.548 16.548-16.548c4.142 0 7.5-3.358 7.5-7.5s-3.358-7.5-7.5-7.5c-17.396 0-31.548 14.152-31.548 31.548s14.152 31.548 31.548 31.548 31.548-14.152 31.548-31.548c0-4.142-3.358-7.5-7.5-7.5z" fill="#ffffff" data-original="#000000"/>
      <path d="m181.252 322.263-39.678 5.668c-4.101.586-6.95 4.385-6.364 8.485.586 4.101 4.386 6.947 8.485 6.364l17.404-2.486-29.436 29.436c-2.929 2.929-2.929 7.678 0 10.606 1.464 1.464 3.384 2.197 5.303 2.197s3.839-.732 5.303-2.197l29.436-29.436-2.486 17.404c-.585 4.101 2.264 7.899 6.364 8.485.36.051.717.076 1.07.076 3.672 0 6.881-2.7 7.416-6.44l5.668-39.678c.333-2.337-.452-4.695-2.122-6.364s-4.026-2.452-6.363-2.12z" fill="#ffffff" data-original="#000000"/>
    </g>
  </g>
</svg>
