<svg width="512" height="512" viewBox="0 0 512 512" fill="none" xmlns="http://www.w3.org/2000/svg">
<path d="M197.736 411.572V402.257H305.388C420.166 402.257 415.1 402.304 421.104 401.159C432.879 398.913 444.44 392.505 452.945 383.511C462.285 373.634 467.708 361.735 469.214 347.819C469.56 344.63 469.347 336.723 468.828 333.423C465.77 313.984 453.891 297.489 436.607 288.684C434.875 287.801 432.456 286.696 431.232 286.229C430.009 285.761 428.48 285.091 427.835 284.739C425.528 283.481 423.803 280.967 423.285 278.108C423.032 276.712 423.077 276.173 423.751 272.452C427.185 253.506 425.906 234.867 419.942 216.924L418.534 212.689L418.861 210.633C420.24 201.961 419.76 190.948 417.371 176.434C417.046 174.458 416.779 172.729 416.779 172.592C416.779 171.967 421.727 178.824 424.469 183.249C435.437 200.952 441.158 217.447 443.618 238.458C444.101 242.583 444.169 244.302 444.162 252.128C444.154 258.978 444.057 261.904 443.742 264.589C443.516 266.518 443.268 268.75 443.191 269.549L443.05 271L445.158 272.041C456.638 277.709 467.635 287.589 475.102 298.945C482.327 309.932 486.658 322.306 487.798 335.219C488.206 339.85 487.966 349.444 487.339 353.512C484.636 371.046 476.785 386.358 464.202 398.634C453.178 409.388 439.434 416.631 424.524 419.544C417.244 420.966 424.227 420.887 306.057 420.887H197.736V411.572Z" fill="url(#paint0_linear_1746_1975)"/>
<path d="M335.05 357.549L318.7 340.87L317.327 342.368C316.571 343.192 313.562 346.526 310.64 349.778C298.449 363.345 298.437 363.357 297.877 363.178C297.359 363.014 268.884 351.216 268.833 351.145C268.819 351.127 269.782 348.744 270.976 345.854L273.08 340.633L273.78 340.924C275.252 341.537 295.099 349.804 295.271 349.733C295.373 349.691 297.021 347.914 298.935 345.785C300.848 343.656 303.874 340.303 305.658 338.334C307.544 336.253 308.812 334.666 308.685 334.544C308.565 334.429 307.054 333.735 305.327 333.002C303.6 332.269 300.177 330.799 297.72 329.735C280.882 322.443 283.839 323.829 280.922 322.477C281.413 321.238 281.931 319.241 283.112 316.369L285.259 311.148L289.376 313.016C291.641 314.043 298.763 317.289 305.204 320.229C316.228 325.261 316.937 325.549 317.307 325.155C317.522 324.924 324.746 316.352 333.36 306.106C341.974 295.859 352.503 283.338 356.758 278.281C366.393 266.832 365.898 267.439 369.369 262.797C376.952 252.655 382.003 245.085 386.905 236.517C394.134 223.882 397.664 215.111 399.315 205.68C399.836 202.704 399.91 192.588 399.439 188.519C398.182 177.639 396.27 167.935 393.267 157.187C389.731 144.537 383.699 128.169 379.355 119.443C376.171 113.047 371.064 104.697 370.57 104.807C370.42 104.84 370.412 104.57 370.412 104.431C370.412 104.079 375.701 91.3045 375.949 91.0556C376.06 90.9449 377.342 92.7411 378.799 95.0473C387.476 108.785 391.863 117.942 398.267 135.681C404.918 154.105 408.928 170.796 410.788 187.793C411.204 191.597 411.205 203.035 410.791 205.939C410.384 208.787 409.449 212.978 408.425 216.548C404.422 230.506 392.666 251.154 377.344 271.138L375.774 273.186L376.447 274.524C377.82 277.251 379.781 283.747 380.65 288.445C381.549 293.312 381.688 300.267 381.029 307.436C380.02 318.408 376.839 326.719 365.33 348.446C361.016 356.59 351.661 373.936 351.462 374.16C351.429 374.197 344.044 366.722 335.052 357.549L335.05 357.549ZM350.592 351.772C355.85 342.027 357.503 338.886 360.748 332.478C365.687 322.724 368.22 316.002 369.364 309.614C369.977 306.192 369.982 295.117 369.372 292.073C368.928 289.857 367.635 285.108 367.323 284.551C367.212 284.351 366.062 285.602 364.031 288.132C355.464 298.805 340.964 315.873 329.032 329.332C327.617 330.928 326.459 332.312 326.459 332.407C326.459 332.604 348.482 355.1 348.673 355.099C348.742 355.099 349.605 353.601 350.592 351.772H350.592ZM330.102 216.096C330.102 216.096 327.287 215.803 324.722 215.005C324.937 214.425 328.59 205.945 328.839 206C334.857 207.317 340.075 206.913 345.083 204.744C355.566 200.203 361.497 188.739 359.176 177.507C357.888 171.273 354.036 165.518 348.886 162.13L346.954 160.981L348.825 156.702C349.835 154.392 350.623 152.367 350.671 152.241C350.797 151.92 353.654 153.568 355.865 155.238C366.69 163.415 371.678 177.529 368.365 190.605C364.948 204.089 354.282 213.883 340.594 216.108C337.921 216.542 330.623 216.2 330.102 216.095C329.582 215.991 330.102 216.095 330.102 216.095V216.096Z" fill="url(#paint1_linear_1746_1975)"/>
<path d="M130.74 420.767C104.469 420.666 94.0168 420.548 92.7032 420.339C88.5777 419.682 85.4031 419.036 82.4394 418.251C60.751 412.504 42.2745 397.419 32.2265 377.255C26.553 365.869 24 354.936 24 342.024C24 336.154 24.2166 333.463 25.1003 328.354C28.9383 306.165 42.6214 286.31 62.2937 274.385C70.8198 269.216 82.3067 265.189 92.2648 263.878L93.3961 263.729L93.5255 262.471C93.5967 261.779 93.7182 260.451 93.7956 259.519C95.8065 235.34 107.113 210.759 124.42 192.941C136.487 180.517 149.666 171.832 165.421 165.919C178.098 161.161 190.238 158.961 203.794 158.962C210.94 158.963 215.495 159.303 221.545 160.284L223.477 160.597L225.547 158.637C234.462 150.194 244.479 142.976 254.631 137.679C257.73 136.062 266.138 132.134 266.5 132.134C266.566 132.134 265.696 133.141 264.568 134.372C257.197 142.415 250.508 153.413 246.909 163.406C246.239 165.266 246.212 165.3 243.55 167.518C242.073 168.749 238.787 171.795 236.248 174.288C231.048 179.391 230.432 179.79 227.462 179.971C226.094 180.055 224.697 179.901 221.756 179.345C214.418 177.956 212.069 177.743 204.157 177.753C198.095 177.76 196.276 177.848 193.02 178.29C182.981 179.652 174.236 182.109 165.999 185.884C138.341 198.558 118.505 224.208 113.357 253.952C112.543 258.652 112.207 262.444 112.058 268.598L111.903 275.015L111.112 276.624C110.116 278.649 108.214 280.449 106.287 281.188C105.203 281.604 104.079 281.765 101.156 281.923C94.7241 282.27 90.619 282.919 85.6996 284.364C76.2599 287.138 67.8299 292.101 60.7414 299.058C59.0353 300.732 56.8509 303.082 55.8872 304.28C50.4133 311.083 45.94 320.328 44.0568 328.732C42.1111 337.413 42.1161 346.644 44.071 355.452C47.4314 370.59 57.1538 384.342 70.5004 392.833C75.7624 396.181 81.8564 398.797 88.0205 400.352C94.9058 402.09 92.4258 401.994 133.034 402.092C158.639 402.153 171.25 402.034 172.641 401.909C187.95 401.906 199.277 403.391 210.746 397.749C216.181 395.075 219.972 389.676 223.345 384.638C226.958 379.243 229.058 372.938 231.198 366.805C232.61 362.758 233.477 358.539 234.462 354.367C235.176 351.342 236.379 345.24 236.379 345.24C236.379 345.24 242.601 347.79 244.162 348.406C245.744 349.03 255.59 353.083 256.96 353.613C258.457 354.193 268.576 358.589 270.677 359.53C274.071 360.957 279.437 363.441 282.714 364.831C282.367 365.506 274.335 374.645 270.214 379.61C266.335 384.284 262.86 389.307 258.707 393.737C253.338 399.464 247.958 405.378 241.445 409.756C234.293 414.563 228.257 418.835 218.012 420.659C215.428 421.119 209.514 421.071 130.74 420.767L130.74 420.767ZM256.201 345.999C249.493 343.218 240.008 339.281 235.123 337.251L226.242 333.56L226.371 332.59C226.442 332.056 226.879 328.081 227.342 323.756C227.805 319.432 228.24 315.403 228.308 314.804C228.376 314.206 228.703 311.212 229.035 308.151C229.366 305.09 229.702 302.008 229.781 301.302L229.925 300.018L202.682 300.062C185.115 300.092 175.41 300.023 175.359 299.87C175.26 299.573 178.801 288.145 181.827 278.997C187.45 261.996 193.263 248.338 197.943 241.132C200.153 237.729 201.392 236.159 204.03 233.42C211.32 225.851 218.647 222.064 238.84 215.427L245.268 213.315L246.527 207.868C247.22 204.872 248.204 200.733 248.715 198.67C249.226 196.607 250.091 192.851 250.638 190.323C254.518 172.403 256.469 165.939 260.34 158.174C267.497 143.818 276.746 133.825 290.575 125.509C296.773 121.781 303.011 118.731 315.369 113.384C317.428 112.493 320.851 111 322.976 110.065C339.94 102.608 358.532 95.7477 371.035 92.3327C375.112 91.2193 376.096 90.7079 375.983 91.1697C375.937 91.3618 374.671 94.7743 373.21 98.319L370.555 104.764L369.105 105.165C366.074 106.002 352.996 110.459 347.167 112.64C337.687 116.188 335.108 117.264 316.093 125.602C293.008 135.726 283.392 142.783 274.881 155.848C269.384 164.287 266.796 171.058 263.464 185.726C261.592 193.965 259.951 201.026 258.769 205.929C257.121 212.763 255.511 220.156 253.423 230.486C253.1 232.083 252.395 235.513 251.856 238.108C251.317 240.702 250.612 244.132 250.29 245.729C249.967 247.326 249.095 251.572 248.353 255.165C247.61 258.758 246.738 263.004 246.415 264.601C246.092 266.198 245.387 269.627 244.85 272.222C244.312 274.817 243.383 279.335 242.785 282.263C242.188 285.19 241.55 288.293 241.368 289.158C241.05 290.669 241.16 291.336 241.727 291.336C241.958 291.336 246.183 293.247 259.297 299.285L262.998 300.989L263.367 300.094C268.457 287.757 274.329 275.856 278.003 270.428C280.867 266.196 288.001 258.441 291.687 255.551C293.268 254.312 294.535 253.657 297.256 252.673C299.175 251.979 299.596 251.921 303.716 251.785C306.14 251.704 308.124 251.711 308.124 251.8C308.124 251.95 303.657 260.741 300.758 266.294C300.064 267.625 298.543 270.565 297.379 272.827C296.214 275.089 294.53 278.355 293.635 280.085C292.74 281.815 291.109 284.973 290.012 287.102C288.914 289.231 287.229 292.497 286.267 294.36C285.305 296.223 283.481 299.762 282.212 302.223C280.943 304.685 279.737 307.024 279.531 307.42C279.325 307.816 279.235 308.217 279.331 308.311C279.427 308.405 280.809 309.085 282.401 309.82C283.993 310.556 285.588 311.274 285.762 311.39C285.682 311.569 281.227 322.135 280.961 322.486C280.936 322.52 279.512 321.937 277.796 321.194C276.08 320.451 273.317 319.262 271.657 318.553L268.638 317.263L264.653 317.964C257.06 319.3 256.197 319.437 255.866 319.359C255.615 319.3 255.853 318.468 256.819 316.016C257.978 313.074 258.064 312.729 257.696 312.522C257.268 312.282 249.585 308.929 244.31 306.68C242.618 305.959 241.124 305.369 240.989 305.369C240.855 305.369 240.736 305.777 240.725 306.276C240.713 306.775 240.664 307.456 240.613 307.788C240.562 308.121 240.187 311.551 239.778 315.41C238.848 324.185 238.822 324.42 238.672 325.45L238.549 326.297L255.647 333.382C265.05 337.279 272.889 340.558 273.067 340.668C273.32 340.826 272.962 341.911 271.411 345.681C270.323 348.327 269.378 350.628 269.311 350.794C269.245 350.961 269.012 351.088 268.793 351.077C268.575 351.065 262.909 348.781 256.201 346L256.201 345.999ZM229.723 288.397C229.756 288.35 231.33 280.527 233.222 271.012C235.114 261.497 237.039 251.916 237.499 249.721C237.958 247.525 238.658 244.15 239.053 242.22C239.448 240.291 240.157 236.915 240.629 234.72C241.101 232.524 241.652 229.911 241.853 228.913C242.054 227.915 242.275 226.908 242.343 226.676C242.443 226.333 241.639 226.542 238.043 227.791C228.863 230.98 221.738 234.147 217.609 236.873C213.718 239.442 209.553 243.912 206.868 248.401C204.488 252.379 200.581 260.878 198.307 267.02C197.196 270.022 193.328 281.479 191.865 286.104L191.033 288.735L210.348 288.609C220.972 288.54 229.691 288.445 229.723 288.398L229.723 288.397ZM323.218 214.425C312.65 210.243 304.98 201.734 302.243 191.158C300.013 182.541 301.132 173.851 305.529 165.644C306.89 163.105 308.659 160.834 311.373 158.143C320.857 148.743 334.972 145.818 347.541 150.65C348.774 151.124 349.958 151.606 350.302 151.821L351.049 152.291L349.188 156.726C348.194 159.094 347.381 161.09 347.337 161.143C347.293 161.196 346.406 160.85 345.367 160.374C342.177 158.913 338.743 158.186 335.172 158.215C332.328 158.239 330.034 158.596 327.697 159.382C319.165 162.252 313.106 169.106 311.361 177.862C310.843 180.46 310.893 184.792 311.471 187.439C312.264 191.07 313.96 194.774 316.06 197.46C318.858 201.038 323.792 204.48 327.873 205.7C328.442 205.87 328.941 205.998 328.904 206.085C328.867 206.172 327.962 208.303 326.972 210.723C325.982 213.142 325.112 215.116 325.04 215.108C324.968 215.1 324.148 214.793 323.218 214.425V214.425Z" fill="url(#paint2_linear_1746_1975)"/>
<defs>
<linearGradient id="paint0_linear_1746_1975" x1="434.532" y1="341.322" x2="362.238" y2="235.771" gradientUnits="userSpaceOnUse">
<stop stop-color="#35B8FA"/>
<stop offset="1" stop-color="#AC2DFE"/>
</linearGradient>
<linearGradient id="paint1_linear_1746_1975" x1="557.134" y1="292.381" x2="372.299" y2="218.023" gradientUnits="userSpaceOnUse">
<stop stop-color="#35B8FA"/>
<stop offset="1" stop-color="#AC2DFE"/>
</linearGradient>
<linearGradient id="paint2_linear_1746_1975" x1="119.134" y1="250.317" x2="241.083" y2="245.551" gradientUnits="userSpaceOnUse">
<stop stop-color="#35B8FA"/>
<stop offset="0.5" stop-color="#35B8FA"/>
<stop offset="1" stop-color="#AC2DFE"/>
</linearGradient>
</defs>
</svg>
