
<svg xmlns="http://www.w3.org/2000/svg" fill="none" viewBox="0 0 512 512">
  <g clip-path="url(#a)">
    <path fill="#7C7C7C" d="M293.124 256.006c0 20.501-16.62 37.122-37.122 37.122s-37.123-16.621-37.123-37.122c0-20.503 16.621-37.123 37.123-37.123s37.122 16.62 37.122 37.123Z"/>
    <path stroke="#7C7C7C" stroke-linecap="round" stroke-linejoin="round" stroke-miterlimit="10" stroke-width="20" d="M256.004 370.342v131.662m0-492.004v179.179m66.812 66.813h179.179m-445.7177 0H189.177m-179.177 0h46.6509M379 256.004c0 135.859-55.069 246-123 246-67.932 0-123-110.141-123-246 0-135.859 55.068-246.0001 123-246.0001 67.931 0 123 110.1411 123 246.0001Zm-85.876.002c0 20.501-16.62 37.122-37.122 37.122s-37.123-16.621-37.123-37.122c0-20.503 16.621-37.123 37.123-37.123s37.122 16.62 37.122 37.123Z"/>
    <path stroke="#7C7C7C" stroke-linecap="round" stroke-linejoin="round" stroke-miterlimit="10" stroke-width="20" d="M405.957 451.002c-88.14-67.951-211.768-67.951-299.902 0m-.012-390.0098c88.141 67.9498 211.768 67.9498 299.902 0M502 256.004c0 135.859-110.141 246-246 246-135.859 0-246-110.141-246-246C10 120.145 120.141 10.0039 256 10.0039c135.859 0 246 110.1411 246 246.0001Zm-245.995-66.82c-36.904 0-66.821 29.917-66.821 66.821 0 14.53 4.639 27.974 12.515 38.939l54.306 75.399 54.305-75.399c7.876-10.965 12.515-24.409 12.515-38.939 0-36.904-29.917-66.821-66.82-66.821Z"/>
  </g>
  <defs>
    <clipPath id="a">
      <path fill="#fff" d="M0 0h512v512H0z"/>
    </clipPath>
  </defs>
</svg>
