<svg width="512" height="512" viewBox="0 0 512 512" fill="none" xmlns="http://www.w3.org/2000/svg">
<path d="M455.173 116.755C462.319 102.111 467.213 86.924 467.213 72.779C467.213 32.649 434.564 0 394.433 0C368.452 0 345.621 13.695 332.741 34.235C318.623 30.104 304.058 27.232 289.383 25.721C285.196 25.286 281.439 28.339 281.007 32.534C280.575 36.728 283.626 40.478 287.82 40.909C300.706 42.235 313.505 44.671 325.95 48.156C323.175 55.851 321.655 64.14 321.655 72.779C321.655 124.209 386.285 189.43 389.035 192.181C391.976 195.121 396.892 195.121 399.832 192.181C401.569 190.443 427.98 163.792 447.211 131.435C462.904 152.367 474.683 175.369 482.312 199.768L371.58 211.424C369.604 211.633 367.786 212.603 366.514 214.13C365.367 215.506 338.281 248.058 324.41 268.906C308.721 269.95 294.372 275.971 282.951 285.425L281.512 276.793L271.672 218.094C271.372 216.301 270.442 214.676 269.051 213.507L210.013 163.969C208.887 163.024 207.511 162.425 206.052 162.243L145.56 154.681C138.127 133.428 121.106 116.654 99.7012 109.555C140.365 67.335 194.554 42.693 253.3 39.95C257.512 39.754 260.766 36.18 260.57 31.969C260.374 27.758 256.8 24.483 252.589 24.699C219.417 26.247 187.519 34.356 157.78 48.797C128.955 62.795 103.492 82.065 82.0962 106.071C80.3622 105.947 78.6172 105.861 76.8522 105.861C36.7222 105.861 4.07324 138.51 4.07324 178.64C4.07324 196.771 12.1092 216.614 22.6312 234.832C21.1262 245.822 20.3592 257.05 20.3592 268.215C20.3592 333.333 45.7182 394.552 91.7622 440.597C137.806 486.641 199.026 512 264.143 512C329.261 512 390.48 486.641 436.525 440.597C482.57 394.552 507.928 333.332 507.928 268.215C507.928 212.571 489.685 160.218 455.173 116.755ZM394.433 175.692C379.184 159.147 336.922 109.94 336.922 72.779C336.922 41.068 362.721 15.268 394.433 15.268C426.145 15.268 451.944 41.067 451.944 72.779C451.944 109.941 409.682 159.148 394.433 175.692ZM329.288 283.992C360.999 283.992 386.799 309.791 386.799 341.503C386.799 378.664 344.537 427.871 329.288 444.416C314.039 427.871 271.777 378.664 271.777 341.503C271.777 309.792 297.577 283.992 329.288 283.992ZM19.3402 178.64C19.3402 146.929 45.1392 121.129 76.8512 121.129C108.563 121.129 134.362 146.929 134.362 178.64C134.362 215.801 92.1012 265.008 76.8512 281.553C61.6012 265.008 19.3402 215.801 19.3402 178.64ZM35.6262 268.215C35.6262 263.992 35.7472 259.759 35.9782 255.535C52.7162 279.149 70.0562 296.646 71.4532 298.042C74.3922 300.982 79.3112 300.982 82.2492 298.042C83.6852 296.606 101.985 278.141 119.15 253.505L148.932 320.514C149.569 321.949 150.634 323.152 151.981 323.96L195.944 350.338L176.201 410.167L125.058 449.398C70.7162 407.583 35.6262 341.924 35.6262 268.215ZM138.033 458.685L187.357 420.849C188.572 419.917 189.479 418.639 189.96 417.184L212.354 349.324C213.473 345.934 212.093 342.222 209.033 340.386L161.904 312.108L129.072 238.235C140.561 219.108 149.631 197.906 149.631 178.64C149.631 175.894 149.464 173.187 149.167 170.519L201.924 177.114L257.08 223.395L266.453 279.31L269.836 299.606C261.455 311.462 256.51 325.911 256.51 341.504C256.51 351.652 259.033 362.337 263.094 372.973L241.6 434.009L168.666 475.804C157.986 470.871 147.75 465.14 138.033 458.685ZM264.143 496.732C236.911 496.732 210.781 491.935 186.541 483.156L251.653 445.844C253.242 444.933 254.45 443.483 255.058 441.756L272.309 392.77C291.632 428.367 322.023 459.037 323.89 460.905C326.831 463.845 331.747 463.845 334.687 460.905C336.83 458.762 376.528 418.702 393.965 376.786L456.377 391.646C415.676 454.815 344.714 496.732 264.143 496.732ZM399.006 362.292C400.946 355.24 402.068 348.252 402.068 341.504C402.068 305.812 376.234 276.06 342.288 269.91C354.01 253.524 370.625 233.147 376.277 226.283L486.422 214.689C490.55 231.999 492.66 249.916 492.66 268.214C492.66 307.937 482.464 345.321 464.562 377.9L399.006 362.292Z" fill="#50514F"/>
<path d="M329.288 301.297C307.118 301.297 289.081 319.334 289.081 341.504C289.081 363.674 307.118 381.711 329.288 381.711C351.458 381.711 369.495 363.674 369.495 341.504C369.495 319.334 351.458 301.297 329.288 301.297ZM329.288 366.442C315.536 366.442 304.35 355.254 304.35 341.504C304.35 327.754 315.537 316.566 329.288 316.566C343.04 316.566 354.226 327.754 354.226 341.504C354.226 355.254 343.04 366.442 329.288 366.442Z" fill="#50514F"/>
<path d="M394.433 32.5723C372.263 32.5723 354.226 50.6093 354.226 72.7793C354.226 94.9493 372.263 112.986 394.433 112.986C416.603 112.986 434.64 94.9493 434.64 72.7793C434.64 50.6093 416.603 32.5723 394.433 32.5723ZM394.433 97.7173C380.681 97.7173 369.495 86.5293 369.495 72.7793C369.495 59.0283 380.682 47.8413 394.433 47.8413C408.185 47.8413 419.371 59.0293 419.371 72.7793C419.372 86.5293 408.185 97.7173 394.433 97.7173Z" fill="#50514F"/>
<path d="M76.8506 138.434C54.6806 138.434 36.6436 156.471 36.6436 178.641C36.6436 200.811 54.6806 218.848 76.8506 218.848C99.0206 218.848 117.058 200.811 117.058 178.641C117.058 156.471 99.0206 138.434 76.8506 138.434ZM76.8506 203.58C63.0996 203.58 51.9126 192.392 51.9126 178.642C51.9126 164.891 63.1006 153.704 76.8506 153.704C90.6016 153.704 101.789 164.892 101.789 178.642C101.789 192.392 90.6016 203.58 76.8506 203.58Z" fill="#50514F"/>
</svg>
