<svg width="611" height="689" viewBox="0 0 611 689" fill="none" xmlns="http://www.w3.org/2000/svg">
<path d="M298.922 2.66667C295.989 5.46667 294.922 12.4 297.055 15.4667C298.389 17.6 303.455 20 306.389 20C310.122 20 314.655 14.4 314.655 9.6C314.655 4.53333 310.255 0 305.322 0C303.455 0 300.522 1.2 298.922 2.66667Z" fill="#7C7C7C"/>
<path d="M195.455 21.6C192.522 25.6 192.789 32.4 195.722 35.0667C199.189 38.2667 207.055 38 209.989 34.6667C215.855 28.2667 211.322 18.6667 202.522 18.6667C198.789 18.6667 196.922 19.4667 195.455 21.6Z" fill="#7C7C7C"/>
<path d="M400.656 21.3333C394.789 27.7333 399.322 37.3333 408.122 37.3333C413.989 37.3333 417.322 33.7333 417.322 27.7333C417.322 19.7333 405.989 15.3333 400.656 21.3333Z" fill="#7C7C7C"/>
<path d="M290.533 51.303C280.666 54.6364 273.333 59.1697 264.933 67.303L256.533 75.303L248.533 75.0364C218.666 73.8364 200.399 110.503 219.999 132.236L224.533 137.17L220.399 151.036C217.999 158.636 216.133 165.036 215.999 165.17C215.866 165.303 211.066 164.236 205.199 162.77C169.066 154.103 131.199 151.97 110.533 157.436C89.7326 162.903 76.666 172.503 69.9993 186.903C65.1993 197.17 64.5326 213.303 68.3993 227.436C74.9326 251.17 93.1993 279.437 118.933 305.836L128.933 315.97L119.866 325.97L110.666 335.97L99.866 335.17C90.9326 334.636 87.9993 335.036 83.066 337.17C69.466 343.17 61.7326 354.637 61.3326 368.903C61.1993 377.57 63.1993 383.837 68.266 390.77L71.5993 395.17L69.066 403.436C67.1993 409.17 66.5326 415.703 66.5326 425.57C66.5326 438.103 66.9326 440.37 70.266 447.036C76.7993 460.503 90.3993 470.637 108.933 475.836C112.799 476.903 124.399 478.103 134.799 478.503L153.733 479.303L154.133 558.77C154.533 634.636 154.666 638.503 157.199 643.57C167.066 663.703 201.199 678.903 253.199 686.503C264.933 688.103 277.999 688.77 302.533 688.77C340.799 688.903 396.077 679.798 400.877 675.398C404.877 671.665 413.277 662.803 408.877 658.403C405.811 655.336 359.599 665.303 354.133 666.103C324.133 670.236 283.199 670.236 253.866 666.236C225.066 662.236 196.266 653.17 184.133 644.236C173.999 636.77 173.866 636.236 173.866 605.836C173.866 591.037 174.133 578.903 174.533 578.903C174.933 578.903 179.333 580.903 184.266 583.436C201.199 591.836 224.266 598.236 253.199 602.503C277.733 606.103 332.133 605.703 357.199 601.836C382.666 597.836 403.733 592.103 418.933 584.903C425.866 581.57 431.866 578.903 432.133 578.903C432.399 578.903 432.533 591.437 432.266 606.77L431.866 634.77L427.199 639.57C421.466 645.57 412.133 650.903 399.866 655.303C394.799 657.17 383.077 660.365 381.877 660.898C379.611 661.831 383.199 665.703 383.199 669.036C383.199 672.236 389.466 677.57 393.199 677.57C397.733 677.57 411.333 672.77 421.866 667.57C434.266 661.303 443.333 653.57 447.999 645.303L451.866 638.236L452.666 479.303L471.599 478.503C481.999 478.103 493.599 476.903 497.466 475.836C515.999 470.637 529.599 460.503 536.133 447.036C539.599 440.237 539.866 438.236 539.866 424.903C539.866 412.37 539.333 408.77 536.133 399.57C528.799 378.503 512.399 353.836 489.333 328.77L477.466 315.97L496.133 297.303L501.333 298.77C508.399 300.77 512.133 300.636 520.399 298.103C532.399 294.637 542.133 283.703 544.533 271.036C546.266 261.97 544.266 252.636 538.799 244.503L534.533 238.236L537.199 230.903C539.199 225.303 539.733 219.97 539.866 208.903C539.866 195.837 539.466 193.436 536.399 186.903C529.599 172.37 516.533 163.036 495.466 157.303C474.933 151.836 434.933 154.236 401.333 162.903C395.466 164.37 390.666 165.436 390.533 165.303C390.399 165.036 388.666 159.436 386.666 152.903C367.199 88.1034 338.266 51.5697 305.333 49.9697C299.866 49.8364 293.599 50.3697 290.533 51.303ZM314.933 72.2364C327.466 77.9697 342.933 97.0364 353.333 119.836C357.733 129.436 368.666 160.636 370.399 168.236C371.066 171.436 370.399 171.836 356.133 176.77C347.866 179.57 332.933 185.437 322.799 189.703C312.799 194.103 303.733 197.57 302.666 197.57C301.733 197.57 296.133 195.436 290.399 192.636C278.133 187.036 239.466 172.236 236.933 172.236C234.933 172.236 235.199 170.236 239.733 155.57L242.666 146.236L249.599 145.303C259.066 143.836 264.533 141.436 270.933 135.703C282.933 124.903 285.733 108.236 278.266 93.7031L274.133 85.7031L280.133 80.2364C291.333 69.8364 303.466 67.0364 314.933 72.2364ZM255.866 97.8364C266.933 106.503 262.666 123.436 248.933 125.036C236.533 126.636 226.933 111.17 234.266 101.57C239.599 94.5031 249.599 92.9031 255.866 97.8364ZM174.133 177.036C185.333 178.77 209.999 184.103 210.933 184.903C211.066 185.036 209.866 193.303 207.999 203.036C206.266 212.903 204.133 227.17 203.333 234.903C200.666 259.17 202.133 256.237 185.466 268.636C177.199 274.77 164.399 284.903 156.933 291.303L143.466 302.77L133.599 292.503C97.5993 254.77 79.1993 216.103 87.5993 195.836C91.866 185.97 105.866 177.703 123.466 175.036C133.866 173.436 157.599 174.37 174.133 177.036ZM481.333 175.036C496.666 177.17 505.466 180.903 512.666 188.236C520.933 196.636 522.799 207.97 518.533 222.503L516.533 229.303L508.133 229.836C498.399 230.503 491.199 233.57 484.799 239.97C474.799 250.103 471.733 266.637 477.599 278.903L480.533 284.77L471.733 293.703L462.799 302.636L449.999 291.703C442.933 285.703 430.133 275.57 421.599 269.17C408.399 259.17 405.866 256.77 405.333 253.17C404.933 250.77 403.999 242.903 403.066 235.57C401.733 223.57 397.999 199.436 395.866 188.77L394.933 184.77L407.599 181.836C438.533 174.77 463.066 172.503 481.333 175.036ZM249.199 197.57C258.933 201.17 269.733 205.436 273.333 206.903L279.599 209.703L260.799 220.236C250.266 226.103 238.666 232.903 234.799 235.303C221.066 244.103 221.999 244.636 223.999 229.836C226.399 212.237 230.133 190.903 230.799 190.903C231.199 190.903 239.333 193.837 249.199 197.57ZM378.399 204.503C379.599 211.303 381.333 222.77 382.399 229.836L384.133 242.77L381.333 241.17C379.733 240.237 371.333 235.303 362.533 230.103C353.733 224.903 341.999 218.236 336.533 215.17L326.533 209.703L331.866 207.436C344.933 201.97 374.533 191.17 375.333 191.703C375.866 191.97 377.199 197.703 378.399 204.503ZM323.333 230.903C346.399 243.303 379.999 263.57 383.999 267.57C386.666 270.236 386.933 272.37 387.733 299.436C388.266 315.436 388.266 329.036 387.599 329.57C387.066 330.103 379.866 329.17 371.599 327.57C351.466 323.436 329.466 321.57 300.533 321.57L276.03 321.77L234.53 327.459C231.33 330.793 230.168 344.837 230.834 347.77C234.334 347.27 273.066 341.57 300.533 341.57C347.333 341.57 383.333 347.57 409.733 359.703C421.733 365.17 427.866 369.703 430.533 375.036C432.399 378.636 432.399 379.436 430.399 383.57C426.133 392.503 406.399 402.637 380.399 408.903C354.533 415.17 338.533 416.77 303.199 416.77C267.866 416.77 251.866 415.17 225.999 408.903C200.133 402.637 180.799 392.903 175.866 383.703C173.599 379.436 173.599 379.17 175.999 374.103C181.199 363.436 197.866 355.436 227.999 349.036C241.333 346.236 244.399 345.17 246.933 342.103C250.533 337.97 249.999 332.903 245.599 329.17C242.399 326.503 238.799 326.37 227.466 328.77C222.266 329.97 218.799 330.103 218.399 329.303C217.999 328.636 217.999 315.17 218.533 299.436C219.333 275.97 219.866 270.37 221.733 268.236C224.399 265.17 247.999 250.236 267.866 239.17C282.399 231.17 302.133 220.636 303.066 220.37C303.333 220.236 312.399 225.036 323.333 230.903ZM517.599 251.436C524.266 254.903 527.066 265.037 523.199 272.103C521.199 275.97 514.133 280.236 509.866 280.236C505.599 280.236 498.533 275.97 496.399 272.103C494.133 267.837 494.399 259.703 497.066 256.103C501.466 249.703 510.399 247.703 517.599 251.436ZM198.533 310.503L197.999 336.903L193.066 339.17L187.999 341.303L180.533 335.436C176.399 332.236 169.866 326.636 165.866 322.903L158.533 316.236L163.199 312.103C170.799 305.303 197.066 284.37 198.133 284.236C198.533 284.236 198.666 296.103 198.533 310.503ZM423.466 295.836C431.066 301.97 439.599 308.903 442.533 311.57L447.866 316.236L440.533 322.903C436.533 326.636 429.999 332.236 425.866 335.436L418.399 341.303L413.333 339.17L408.266 336.903L407.866 310.503C407.599 295.703 407.999 284.236 408.533 284.503C409.199 284.77 415.999 289.837 423.466 295.836ZM151.333 337.17C155.333 340.77 160.933 345.436 163.866 347.703L169.066 351.836L163.466 358.236C154.399 368.503 153.866 371.97 153.866 418.636V459.303L136.266 458.503C116.266 457.703 107.866 455.57 98.266 449.17C89.5993 443.303 85.866 435.836 85.9993 424.236C85.9993 419.436 86.7993 413.17 87.5993 410.37C89.1993 405.17 89.1993 405.17 96.666 404.903C121.866 404.236 138.799 378.236 128.666 355.703L125.866 349.17L129.466 345.036C138.266 335.17 142.399 330.903 143.199 330.903C143.733 330.903 147.333 333.703 151.333 337.17ZM477.466 345.57C506.533 378.503 520.533 404.103 520.533 424.903C520.533 435.836 516.666 443.57 508.133 449.17C498.533 455.57 490.133 457.703 470.266 458.503L452.533 459.303V418.636C452.533 371.97 451.999 368.503 442.933 358.236L437.333 351.836L442.533 347.703C445.466 345.436 451.066 340.77 455.066 337.17C459.066 333.703 462.799 330.903 463.333 330.903C463.866 330.903 470.266 337.57 477.466 345.57ZM106.933 358.903C111.599 363.57 112.799 368.503 110.799 374.77C106.133 388.236 86.7993 388.103 82.266 374.503C78.7993 364.103 85.5993 354.903 96.7993 354.903C101.866 354.903 103.733 355.57 106.933 358.903ZM184.266 415.436C201.066 423.836 227.466 431.303 256.533 435.836C277.999 439.17 328.399 439.17 349.866 435.836C378.933 431.303 405.333 423.836 422.133 415.436C427.066 412.903 431.466 410.903 431.866 410.903C432.266 410.903 432.533 422.637 432.533 437.036C432.533 467.703 431.999 469.703 421.199 476.903C383.733 501.703 290.266 509.036 223.999 492.37C199.466 486.103 182.266 477.57 176.266 468.637C174.133 465.303 173.866 461.836 173.866 437.836C173.866 423.037 174.133 410.903 174.533 410.903C174.933 410.903 179.333 412.903 184.266 415.436ZM184.266 499.436C201.066 507.703 224.666 514.236 253.199 518.503C276.133 521.836 329.466 521.836 353.199 518.37C377.866 514.903 403.999 507.97 418.933 500.903C425.866 497.57 431.733 494.903 431.999 494.903C432.266 494.903 432.533 506.637 432.533 521.036C432.533 551.703 431.999 553.703 421.199 560.903C383.733 585.703 288.799 593.17 223.599 576.236C198.933 569.836 182.133 561.436 176.266 552.636C174.133 549.303 173.866 545.836 173.866 521.836C173.866 507.037 174.133 494.903 174.533 494.903C174.933 494.903 179.333 496.903 184.266 499.436Z" fill="#7C7C7C"/>
<path d="M192.655 440.667C190.789 442.401 189.322 445.467 189.322 447.334C189.322 449.201 190.789 452.267 192.655 454.001C194.389 455.867 197.455 457.334 199.322 457.334C201.189 457.334 204.255 455.867 205.989 454.001C207.855 452.267 209.322 449.201 209.322 447.334C209.322 445.467 207.855 442.401 205.989 440.667C204.255 438.801 201.189 437.334 199.322 437.334C197.455 437.334 194.389 438.801 192.655 440.667Z" fill="#7C7C7C"/>
<path d="M229.855 448.267C226.922 449.601 223.989 454.534 223.989 457.867C223.989 461.867 229.455 466.667 233.855 466.667C244.389 466.667 247.855 453.334 238.522 448.667C234.255 446.401 233.722 446.401 229.855 448.267Z" fill="#7C7C7C"/>
<path d="M261.455 456.801C257.855 461.334 257.989 464.401 261.722 468.801C267.855 475.867 278.655 471.867 278.655 462.534C278.655 453.734 266.922 449.867 261.455 456.801Z" fill="#7C7C7C"/>
<path d="M191.989 522.934C186.255 529.067 190.655 538.667 199.322 538.667C204.122 538.667 209.322 533.867 209.322 529.334C209.322 528.001 208.122 525.467 206.522 523.467C202.922 518.934 195.989 518.667 191.989 522.934Z" fill="#7C7C7C"/>
<path d="M227.322 532.667C225.455 534.401 223.989 537.467 223.989 539.334C223.989 543.734 229.589 549.334 233.989 549.334C238.389 549.334 243.989 543.734 243.989 539.334C243.989 534.934 238.389 529.334 233.989 529.334C232.122 529.334 229.055 530.801 227.322 532.667Z" fill="#7C7C7C"/>
<path d="M264.522 536.267C261.589 537.601 258.655 542.534 258.655 546.134C258.655 549.467 264.922 554.667 269.055 554.667C273.855 554.667 278.655 549.734 278.655 544.801C278.655 540.667 273.322 534.667 269.722 534.801C268.389 534.801 265.989 535.467 264.522 536.267Z" fill="#7C7C7C"/>
<path d="M105.589 73.7333C100.655 79.0666 101.989 86 108.522 88.6666C115.055 91.4666 122.522 87.2 122.655 80.5333C122.789 72 111.455 67.4666 105.589 73.7333Z" fill="#7C7C7C"/>
<path d="M490.789 74.1333C486.122 80 487.855 86.5333 494.789 89.0666C504.389 92.6666 512.255 80.5333 504.922 73.6C500.522 69.4666 494.255 69.7333 490.789 74.1333Z" fill="#7C7C7C"/>
<path d="M41.7221 150.668C38.2555 152.135 35.9888 156.001 35.9888 160.535C35.9888 168.935 47.8555 172.535 53.1888 165.868C56.7888 161.335 56.6555 158.268 53.0555 154.135C49.4555 150.268 45.7221 149.068 41.7221 150.668Z" fill="#7C7C7C"/>
<path d="M558.656 153.068C553.989 157.868 553.589 161.068 557.456 165.868C559.456 168.401 561.456 169.335 564.789 169.335C576.789 169.335 578.256 152.668 566.389 149.868C563.456 149.201 561.989 149.868 558.656 153.068Z" fill="#7C7C7C"/>
<path d="M2.78881 251.468C-1.74452 257.201 -0.677855 262.935 5.45548 266.135C10.1221 268.535 15.3221 267.468 17.9888 263.601C25.0555 253.468 10.3888 241.868 2.78881 251.468Z" fill="#7C7C7C"/>
<path d="M593.589 251.068C586.256 258.801 594.389 270.668 604.122 266.668C607.456 265.201 610.656 260.535 610.656 256.801C610.656 255.868 609.456 253.468 607.856 251.468C604.256 246.935 597.589 246.668 593.589 251.068Z" fill="#7C7C7C"/>
<path d="M3.32214 355.335C-2.67786 361.201 0.388808 369.868 8.92214 371.468C17.8555 373.201 23.5888 361.201 16.9221 354.935C12.7888 351.068 7.32214 351.201 3.32214 355.335Z" fill="#7C7C7C"/>
<path d="M593.589 355.068C587.456 361.468 591.722 371.201 600.522 371.201C606.255 371.201 608.922 368.935 610.122 363.068C611.856 354.135 599.856 348.401 593.589 355.068Z" fill="#7C7C7C"/>
<path d="M39.3221 452.667C33.0555 458.801 37.0555 469.334 45.8555 469.334C49.7221 469.334 55.9888 464.134 55.9888 460.801C55.9888 457.067 53.0555 452.267 49.7221 450.801C44.9221 448.667 42.9221 448.934 39.3221 452.667Z" fill="#7C7C7C"/>
<path d="M560.922 450.267C558.389 450.934 554.656 457.201 554.656 460.667C554.656 461.867 556.122 464.267 557.989 466.001C562.122 470.267 567.856 470.401 571.722 466.267C579.056 458.534 571.589 447.467 560.922 450.267Z" fill="#7C7C7C"/>
<path d="M105.989 532.667C104.122 534.401 102.655 537.467 102.655 539.334C102.655 543.734 108.255 549.334 112.655 549.334C114.522 549.334 117.589 547.867 119.322 546.001C121.189 544.267 122.655 541.201 122.655 539.334C122.655 537.467 121.189 534.401 119.322 532.667C117.589 530.801 114.522 529.334 112.655 529.334C110.789 529.334 107.722 530.801 105.989 532.667Z" fill="#7C7C7C"/>
<path d="M491.322 532.667C489.455 534.401 487.989 537.467 487.989 539.334C487.989 543.734 493.589 549.334 497.989 549.334C502.389 549.334 507.989 543.734 507.989 539.334C507.989 534.934 502.389 529.334 497.989 529.334C496.122 529.334 493.055 530.801 491.322 532.667Z" fill="#7C7C7C"/>
<path d="M192.655 607.334C190.789 609.067 189.322 612.134 189.322 614.001C189.322 618.401 194.922 624.001 199.322 624.001C203.722 624.001 209.322 618.401 209.322 614.001C209.322 609.601 203.722 604.001 199.322 604.001C197.455 604.001 194.389 605.467 192.655 607.334Z" fill="#7C7C7C"/>
<path d="M226.789 618.134C225.189 620.134 223.989 622.667 223.989 624.001C223.989 625.334 225.189 627.867 226.789 629.867C232.255 636.801 243.989 632.934 243.989 624.001C243.989 615.067 232.255 611.201 226.789 618.134Z" fill="#7C7C7C"/>
<path d="M261.455 623.468C258.255 627.468 257.989 629.201 260.122 633.867C263.189 640.667 273.855 641.201 277.189 634.801C282.789 624.401 268.655 614.268 261.455 623.468Z" fill="#7C7C7C"/>
</svg>
