<svg width="512" height="512" viewBox="0 0 512 512" fill="none" xmlns="http://www.w3.org/2000/svg">
<path d="M256 128C265.768 128 272 132.736 272 136C272 138.122 272.843 140.157 274.343 141.657C275.843 143.157 277.878 144 280 144C282.122 144 284.157 143.157 285.657 141.657C287.157 140.157 288 138.122 288 136C288 124.632 277.928 115.432 264 112.8V104C264 101.878 263.157 99.8434 261.657 98.3431C260.157 96.8429 258.122 96 256 96C253.878 96 251.843 96.8429 250.343 98.3431C248.843 99.8434 248 101.878 248 104V112.8C234.072 115.416 224 124.616 224 136C224 149.456 238.056 160 256 160C265.768 160 272 164.736 272 168C272 171.264 265.768 176 256 176C246.232 176 240 171.264 240 168C240 165.878 239.157 163.843 237.657 162.343C236.157 160.843 234.122 160 232 160C229.878 160 227.843 160.843 226.343 162.343C224.843 163.843 224 165.878 224 168C224 179.368 234.072 188.568 248 191.2V200C248 202.122 248.843 204.157 250.343 205.657C251.843 207.157 253.878 208 256 208C258.122 208 260.157 207.157 261.657 205.657C263.157 204.157 264 202.122 264 200V191.2C277.928 188.584 288 179.384 288 168C288 154.544 273.944 144 256 144C246.232 144 240 139.264 240 136C240 132.736 246.232 128 256 128Z" fill="white"/>
<path d="M224 80H288C290.122 80 292.157 79.1571 293.657 77.6569C295.157 76.1566 296 74.1217 296 72C296 69.8783 295.157 67.8434 293.657 66.3431C292.157 64.8429 290.122 64 288 64H224C221.878 64 219.843 64.8429 218.343 66.3431C216.843 67.8434 216 69.8783 216 72C216 74.1217 216.843 76.1566 218.343 77.6569C219.843 79.1571 221.878 80 224 80Z" fill="white"/>
<path d="M224 240H288C290.122 240 292.157 239.157 293.657 237.657C295.157 236.157 296 234.122 296 232C296 229.878 295.157 227.843 293.657 226.343C292.157 224.843 290.122 224 288 224H224C221.878 224 219.843 224.843 218.343 226.343C216.843 227.843 216 229.878 216 232C216 234.122 216.843 236.157 218.343 237.657C219.843 239.157 221.878 240 224 240Z" fill="white"/>
<path d="M160 336H352C354.122 336 356.157 335.157 357.657 333.657C359.157 332.157 360 330.122 360 328C360 325.878 359.157 323.843 357.657 322.343C356.157 320.843 354.122 320 352 320H160C157.878 320 155.843 320.843 154.343 322.343C152.843 323.843 152 325.878 152 328C152 330.122 152.843 332.157 154.343 333.657C155.843 335.157 157.878 336 160 336Z" fill="white"/>
<path d="M160 304H352C354.122 304 356.157 303.157 357.657 301.657C359.157 300.157 360 298.122 360 296C360 293.878 359.157 291.843 357.657 290.343C356.157 288.843 354.122 288 352 288H160C157.878 288 155.843 288.843 154.343 290.343C152.843 291.843 152 293.878 152 296C152 298.122 152.843 300.157 154.343 301.657C155.843 303.157 157.878 304 160 304Z" fill="white"/>
<path d="M320 352H160C157.878 352 155.843 352.843 154.343 354.343C152.843 355.843 152 357.878 152 360C152 362.122 152.843 364.157 154.343 365.657C155.843 367.157 157.878 368 160 368H320C322.122 368 324.157 367.157 325.657 365.657C327.157 364.157 328 362.122 328 360C328 357.878 327.157 355.843 325.657 354.343C324.157 352.843 322.122 352 320 352Z" fill="white"/>
<path d="M320 384H160C157.878 384 155.843 384.843 154.343 386.343C152.843 387.843 152 389.878 152 392C152 394.122 152.843 396.157 154.343 397.657C155.843 399.157 157.878 400 160 400H320C322.122 400 324.157 399.157 325.657 397.657C327.157 396.157 328 394.122 328 392C328 389.878 327.157 387.843 325.657 386.343C324.157 384.843 322.122 384 320 384Z" fill="white"/>
<path d="M320 240H328C330.122 240 332.157 239.157 333.657 237.657C335.157 236.157 336 234.122 336 232C336 229.878 335.157 227.843 333.657 226.343C332.157 224.843 330.122 224 328 224H320C317.878 224 315.843 224.843 314.343 226.343C312.843 227.843 312 229.878 312 232C312 234.122 312.843 236.157 314.343 237.657C315.843 239.157 317.878 240 320 240Z" fill="white"/>
<path d="M184 240H192C194.122 240 196.157 239.157 197.657 237.657C199.157 236.157 200 234.122 200 232C200 229.878 199.157 227.843 197.657 226.343C196.157 224.843 194.122 224 192 224H184C181.878 224 179.843 224.843 178.343 226.343C176.843 227.843 176 229.878 176 232C176 234.122 176.843 236.157 178.343 237.657C179.843 239.157 181.878 240 184 240Z" fill="white"/>
<path d="M320 80H328C330.122 80 332.157 79.1571 333.657 77.6569C335.157 76.1566 336 74.1217 336 72C336 69.8783 335.157 67.8434 333.657 66.3431C332.157 64.8429 330.122 64 328 64H320C317.878 64 315.843 64.8429 314.343 66.3431C312.843 67.8434 312 69.8783 312 72C312 74.1217 312.843 76.1566 314.343 77.6569C315.843 79.1571 317.878 80 320 80Z" fill="white"/>
<path d="M184 80H192C194.122 80 196.157 79.1571 197.657 77.6569C199.157 76.1566 200 74.1217 200 72C200 69.8783 199.157 67.8434 197.657 66.3431C196.157 64.8429 194.122 64 192 64H184C181.878 64 179.843 64.8429 178.343 66.3431C176.843 67.8434 176 69.8783 176 72C176 74.1217 176.843 76.1566 178.343 77.6569C179.843 79.1571 181.878 80 184 80Z" fill="white"/>
<path d="M424 336.4V192H480C482.122 192 484.157 191.157 485.657 189.657C487.157 188.157 488 186.122 488 184V56C488 50.7471 486.965 45.5457 484.955 40.6927C482.945 35.8396 479.999 31.4301 476.284 27.7157C472.57 24.0014 468.16 21.055 463.307 19.0448C458.454 17.0346 453.253 16 448 16H128C117.391 16 107.217 20.2143 99.7158 27.7157C92.2143 35.2172 88.0001 45.3913 88.0001 56V488C87.994 489.583 88.4637 491.13 89.3481 492.443C90.2325 493.755 91.4909 494.772 92.9601 495.36C93.9093 495.808 94.9506 496.028 96.0001 496C98.1253 496.006 100.167 495.172 101.68 493.68L128 467.28L154.32 493.68C155.831 495.179 157.872 496.02 160 496.02C162.128 496.02 164.17 495.179 165.68 493.68L192 467.28L218.32 493.68C219.831 495.179 221.872 496.02 224 496.02C226.128 496.02 228.17 495.179 229.68 493.68L256 467.28L282.32 493.68C283.831 495.179 285.872 496.02 288 496.02C290.128 496.02 292.17 495.179 293.68 493.68L320 467.28L346.32 493.68C347.831 495.179 349.872 496.02 352 496.02C354.128 496.02 356.17 495.179 357.68 493.68L370 481.36C380.004 488.425 391.497 493.1 403.593 495.022C415.688 496.945 428.064 496.065 439.766 492.449C451.467 488.834 462.183 482.58 471.086 474.17C479.989 465.76 486.843 455.418 491.118 443.941C495.394 432.464 496.977 420.158 495.746 407.973C494.515 395.787 490.502 384.047 484.018 373.657C477.533 363.267 468.749 354.505 458.344 348.045C447.938 341.586 436.188 337.602 424 336.4ZM424 56C424 49.6348 426.529 43.5303 431.03 39.0294C435.53 34.5286 441.635 32 448 32C454.365 32 460.47 34.5286 464.971 39.0294C469.471 43.5303 472 49.6348 472 56V176H424V56ZM352 476.72L325.68 450.32C324.17 448.821 322.128 447.98 320 447.98C317.872 447.98 315.831 448.821 314.32 450.32L288 476.72L261.68 450.32C260.17 448.821 258.128 447.98 256 447.98C253.872 447.98 251.831 448.821 250.32 450.32L224 476.72L197.68 450.32C196.17 448.821 194.128 447.98 192 447.98C189.872 447.98 187.831 448.821 186.32 450.32L160 476.72L133.68 450.32C132.17 448.821 130.128 447.98 128 447.98C125.872 447.98 123.831 448.821 122.32 450.32L104 468.72V56C104.019 49.6406 106.554 43.5472 111.05 39.0504C115.547 34.5537 121.641 32.019 128 32H416.24C410.921 38.8721 408.024 47.3101 408 56V336.4C393.128 337.865 378.965 343.476 367.124 352.593C355.283 361.711 346.239 373.969 341.021 387.973C335.803 401.976 334.62 417.164 337.608 431.807C340.595 446.449 347.633 459.96 357.92 470.8L352 476.72ZM416 480C403.342 480 390.968 476.246 380.444 469.214C369.919 462.182 361.716 452.186 356.872 440.492C352.028 428.797 350.76 415.929 353.23 403.514C355.699 391.099 361.795 379.696 370.745 370.745C379.696 361.795 391.099 355.699 403.514 353.23C415.929 350.76 428.797 352.028 440.492 356.872C452.186 361.716 462.182 369.919 469.214 380.444C476.247 390.968 480 403.342 480 416C479.977 432.967 473.226 449.232 461.229 461.229C449.232 473.226 432.967 479.977 416 480Z" fill="white"/>
<path d="M458.912 389.088C457.412 387.588 455.377 386.746 453.256 386.746C451.135 386.746 449.1 387.588 447.6 389.088L408 428.688L391.024 411.712C389.515 410.255 387.494 409.448 385.397 409.467C383.299 409.485 381.293 410.326 379.809 411.809C378.326 413.293 377.485 415.299 377.467 417.397C377.448 419.494 378.255 421.515 379.712 423.024L402.344 445.656C403.844 447.156 405.879 447.998 408 447.998C410.121 447.998 412.156 447.156 413.656 445.656L458.912 400.4C460.412 398.9 461.254 396.865 461.254 394.744C461.254 392.623 460.412 390.588 458.912 389.088Z" fill="white"/>
</svg>
