<svg width="512" height="512" viewBox="0 0 512 512" fill="none" xmlns="http://www.w3.org/2000/svg">
<g clip-path="url(#clip0_1802_8724)">
<path d="M300.233 176.933H211.767C192.56 176.933 176.933 192.56 176.933 211.767V300.233C176.933 319.44 192.56 335.067 211.767 335.067H300.233C319.44 335.067 335.067 319.44 335.067 300.233V211.767C335.067 192.56 319.44 176.933 300.233 176.933ZM318.479 300.233C318.479 310.294 310.294 318.479 300.233 318.479H211.767C201.706 318.479 193.521 310.294 193.521 300.233V211.767C193.521 201.706 201.706 193.521 211.767 193.521H300.233C310.294 193.521 318.479 201.706 318.479 211.767V300.233Z" fill="#50514F"/>
<path d="M123.3 176.933H34.8337C15.6265 176.933 0 192.56 0 211.767V300.233C0 319.44 15.6265 335.067 34.8337 335.067H123.3C142.507 335.067 158.134 319.44 158.134 300.233V211.767C158.134 192.56 142.507 176.933 123.3 176.933ZM141.546 300.233C141.546 310.294 133.361 318.479 123.3 318.479H34.8337C24.7728 318.479 16.5875 310.294 16.5875 300.233V211.767C16.5875 201.706 24.7728 193.521 34.8337 193.521H123.3C133.361 193.521 141.546 201.706 141.546 211.767V300.233Z" fill="#50514F"/>
<path d="M477.166 176.933H388.7C369.493 176.933 353.866 192.56 353.866 211.767V300.233C353.866 319.44 369.493 335.067 388.7 335.067H477.166C496.373 335.067 512 319.44 512 300.233V211.767C512 192.56 496.373 176.933 477.166 176.933ZM495.413 300.233C495.413 310.294 487.227 318.479 477.166 318.479H388.7C378.639 318.479 370.454 310.294 370.454 300.233V211.767C370.454 201.706 378.639 193.521 388.7 193.521H477.166C487.227 193.521 495.413 201.706 495.413 211.767V300.233Z" fill="#50514F"/>
<path d="M300.233 0H211.767C192.56 0 176.933 15.6265 176.933 34.8337V123.3C176.933 142.507 192.56 158.134 211.767 158.134H300.233C319.44 158.134 335.067 142.507 335.067 123.3V34.8337C335.067 15.6265 319.44 0 300.233 0ZM318.479 123.3C318.479 133.361 310.294 141.546 300.233 141.546H211.767C201.706 141.546 193.521 133.361 193.521 123.3V34.8337C193.521 24.7728 201.706 16.5875 211.767 16.5875H300.233C310.294 16.5875 318.479 24.7728 318.479 34.8337V123.3Z" fill="#50514F"/>
<path d="M123.3 0H34.8337C15.6265 0 0 15.6265 0 34.8337V123.3C0 142.507 15.6265 158.134 34.8337 158.134H123.3C142.507 158.134 158.134 142.507 158.134 123.3V34.8337C158.134 15.6265 142.507 0 123.3 0ZM141.546 123.3C141.546 133.361 133.361 141.546 123.3 141.546H34.8337C24.7728 141.546 16.5875 133.361 16.5875 123.3V34.8337C16.5875 24.7728 24.7728 16.5875 34.8337 16.5875H123.3C133.361 16.5875 141.546 24.7728 141.546 34.8337V123.3Z" fill="#50514F"/>
<path d="M477.166 0H388.7C369.493 0 353.866 15.6265 353.866 34.8337V123.3C353.866 142.507 369.493 158.134 388.7 158.134H477.166C496.373 158.134 512 142.507 512 123.3V34.8337C512 15.6265 496.373 0 477.166 0ZM495.413 123.3C495.413 133.361 487.227 141.546 477.166 141.546H388.7C378.639 141.546 370.454 133.361 370.454 123.3V34.8337C370.454 24.7728 378.639 16.5875 388.7 16.5875H477.166C487.227 16.5875 495.413 24.7728 495.413 34.8337V123.3Z" fill="#50514F"/>
<path d="M300.233 353.866H211.767C192.56 353.866 176.933 369.493 176.933 388.7V477.166C176.933 496.373 192.56 512 211.767 512H300.233C319.44 512 335.067 496.373 335.067 477.166V388.7C335.067 369.493 319.44 353.866 300.233 353.866ZM318.479 477.166C318.479 487.227 310.294 495.413 300.233 495.413H211.767C201.706 495.413 193.521 487.227 193.521 477.166V388.7C193.521 378.639 201.706 370.454 211.767 370.454H300.233C310.294 370.454 318.479 378.639 318.479 388.7V477.166Z" fill="#50514F"/>
<path d="M123.3 353.866H34.8337C15.6265 353.866 0 369.493 0 388.7V477.166C0 496.373 15.6265 512 34.8337 512H123.3C142.507 512 158.134 496.373 158.134 477.166V388.7C158.134 369.493 142.507 353.866 123.3 353.866ZM141.546 477.166C141.546 487.227 133.361 495.413 123.3 495.413H34.8337C24.7728 495.413 16.5875 487.227 16.5875 477.166V388.7C16.5875 378.639 24.7728 370.454 34.8337 370.454H123.3C133.361 370.454 141.546 378.639 141.546 388.7V477.166Z" fill="#50514F"/>
<path d="M477.166 353.866H388.7C369.493 353.866 353.866 369.493 353.866 388.7V477.166C353.866 496.373 369.493 512 388.7 512H477.166C496.373 512 512 496.373 512 477.166V388.7C512 369.493 496.373 353.866 477.166 353.866ZM495.413 477.166C495.413 487.227 487.227 495.413 477.166 495.413H388.7C378.639 495.413 370.454 487.227 370.454 477.166V388.7C370.454 378.639 378.639 370.454 388.7 370.454H477.166C487.227 370.454 495.413 378.639 495.413 388.7V477.166Z" fill="#50514F"/>
</g>
<defs>
<clipPath id="clip0_1802_8724">
<rect width="512" height="512" fill="white"/>
</clipPath>
</defs>
</svg>
