<svg width="512" height="512" viewBox="0 0 512 512" fill="none" xmlns="http://www.w3.org/2000/svg">
<path fill-rule="evenodd" clip-rule="evenodd" d="M62.6725 128.828C64.5367 129.764 65.9535 131.4 66.6123 133.378C67.2711 135.357 67.1181 137.515 66.1869 139.381L20.6891 230.369L66.2027 321.342C66.6758 322.268 66.9609 323.278 67.0415 324.314C67.1222 325.35 66.9968 326.392 66.6727 327.38C66.3486 328.367 65.832 329.281 65.1529 330.068C64.4738 330.855 63.6455 331.5 62.7157 331.965C61.786 332.431 60.7733 332.708 59.7359 332.781C58.6985 332.853 57.657 332.72 56.6714 332.388C55.6859 332.057 54.7757 331.534 53.9935 330.849C53.2112 330.164 52.5723 329.331 52.1136 328.398L4.83499 233.897C4.28591 232.802 4 231.594 4 230.369C4 229.145 4.28591 227.937 4.83499 226.841L52.1136 132.34C53.05 130.477 54.6873 129.061 56.6666 128.403C58.646 127.745 60.8058 127.897 62.6725 128.828Z" fill="#50514F"/>
<g clip-path="url(#clip0_1912_2494)">
<path d="M363.776 178.096C363.333 178.133 362.891 178.222 362.459 178.366L349.082 182.825C347.688 183.289 346.165 183.195 344.848 182.545C341.799 181.04 338.638 179.727 335.382 178.62C333.993 178.148 332.852 177.138 332.195 175.826L325.892 163.219C324.939 161.313 322.992 160.109 320.861 160.109H299.141C297.01 160.109 295.062 161.313 294.11 163.219L287.806 175.826C287.15 177.138 286.009 178.148 284.619 178.62C281.363 179.726 278.202 181.04 275.154 182.545C273.836 183.195 272.313 183.289 270.92 182.825L257.543 178.366C255.522 177.692 253.293 178.218 251.787 179.725L236.428 195.083C234.921 196.59 234.396 198.818 235.069 200.84L239.528 214.217C239.993 215.61 239.898 217.133 239.248 218.45C237.744 221.5 236.43 224.66 235.323 227.916C234.851 229.305 233.841 230.447 232.529 231.103L219.922 237.407C218.016 238.359 216.812 240.307 216.812 242.438V264.158C216.812 266.288 218.016 268.236 219.922 269.189L232.529 275.492C233.841 276.149 234.851 277.289 235.323 278.679C236.429 281.936 237.743 285.096 239.248 288.145C239.898 289.463 239.992 290.985 239.528 292.379L235.069 305.756C234.396 307.777 234.921 310.005 236.428 311.512L251.787 326.87C253.293 328.377 255.522 328.903 257.543 328.229L270.92 323.771C272.313 323.306 273.837 323.4 275.154 324.05C278.203 325.555 281.364 326.868 284.619 327.975C286.008 328.447 287.15 329.457 287.806 330.77L294.11 343.376C295.062 345.282 297.01 346.486 299.141 346.486H320.861C322.992 346.486 324.939 345.282 325.892 343.376L332.195 330.77C332.852 329.457 333.993 328.447 335.382 327.975C338.639 326.869 341.799 325.556 344.848 324.05C346.166 323.4 347.688 323.306 349.082 323.771L362.459 328.229C364.48 328.903 366.708 328.377 368.215 326.87L383.573 311.512C385.08 310.005 385.606 307.777 384.933 305.756L380.474 292.379C380.009 290.985 380.103 289.462 380.754 288.145C382.258 285.095 383.571 281.935 384.678 278.679C385.15 277.29 386.16 276.149 387.473 275.492L400.08 269.189C401.985 268.236 403.189 266.288 403.189 264.158V242.438C403.189 240.307 401.985 238.359 400.08 237.407L387.473 231.103C386.16 230.447 385.15 229.306 384.678 227.916C383.572 224.66 382.259 221.499 380.754 218.45C380.103 217.133 380.009 215.61 380.474 214.217L384.933 200.84C385.606 198.818 385.08 196.59 383.573 195.083" stroke="#50514F" stroke-width="15" stroke-miterlimit="10" stroke-linecap="round" stroke-linejoin="round"/>
<path d="M275.054 230L251.758 253.297L275.054 276.594" stroke="#50514F" stroke-width="15" stroke-miterlimit="10" stroke-linecap="round" stroke-linejoin="round"/>
<path d="M344.945 230L368.242 253.297L344.945 276.594" stroke="#50514F" stroke-width="15" stroke-miterlimit="10" stroke-linecap="round" stroke-linejoin="round"/>
<path d="M321.648 230L298.352 276.594" stroke="#50514F" stroke-width="15" stroke-miterlimit="10" stroke-linecap="round" stroke-linejoin="round"/>
<path d="M212.775 381.429H477.626C487.981 381.429 496.376 373.035 496.376 362.679V125.164" stroke="#50514F" stroke-width="15" stroke-miterlimit="10" stroke-linecap="round" stroke-linejoin="round"/>
<path d="M123.625 125.164V362.68C123.625 373.035 132.02 381.43 142.375 381.43H186.524" stroke="#50514F" stroke-width="15" stroke-miterlimit="10" stroke-linecap="round" stroke-linejoin="round"/>
<path d="M159.74 78.5703H142.375C132.02 78.5703 123.625 86.9651 123.625 97.3203V125.164H496.375V97.3203C496.375 86.9651 487.98 78.5703 477.625 78.5703H185.99" stroke="#50514F" stroke-width="15" stroke-miterlimit="10" stroke-linecap="round" stroke-linejoin="round"/>
</g>
<defs>
<clipPath id="clip0_1912_2494">
<rect width="384" height="384" fill="white" transform="translate(118 38)"/>
</clipPath>
</defs>
</svg>
