<svg width="512" height="512" viewBox="0 0 512 512" fill="none" xmlns="http://www.w3.org/2000/svg">
<path d="M327.699 186.795C327.109 186.844 326.519 186.963 325.943 187.155L308.107 193.1C306.249 193.719 304.218 193.594 302.462 192.727C298.396 190.721 294.182 188.969 289.841 187.493C287.989 186.864 286.467 185.518 285.592 183.768L277.187 166.958C275.917 164.417 273.32 162.812 270.479 162.812H241.519C238.678 162.812 236.081 164.417 234.811 166.958L226.406 183.768C225.531 185.518 224.01 186.864 222.157 187.493C217.815 188.968 213.601 190.72 209.536 192.727C207.779 193.594 205.749 193.719 203.891 193.1L186.055 187.155C183.36 186.257 180.389 186.958 178.38 188.967L157.902 209.445C155.893 211.454 155.192 214.425 156.09 217.12L162.035 234.956C162.655 236.814 162.529 238.845 161.662 240.601C159.656 244.667 157.905 248.88 156.429 253.221C155.8 255.073 154.453 256.596 152.703 257.471L135.894 265.876C133.353 267.146 131.748 269.743 131.748 272.584V301.544C131.748 304.385 133.353 306.982 135.894 308.252L152.703 316.657C154.453 317.532 155.8 319.053 156.429 320.906C157.904 325.248 159.655 329.462 161.662 333.527C162.529 335.284 162.654 337.313 162.035 339.171L156.09 357.007C155.192 359.702 155.893 362.674 157.902 364.683L178.38 385.161C180.389 387.17 183.36 387.87 186.055 386.972L203.891 381.028C205.749 380.408 207.78 380.533 209.536 381.4C213.602 383.406 217.816 385.157 222.157 386.633C224.009 387.262 225.531 388.61 226.406 390.36L234.811 407.169C236.081 409.71 238.678 411.314 241.519 411.314H270.479C273.32 411.314 275.917 409.71 277.187 407.169L285.592 390.36C286.467 388.61 287.988 387.262 289.841 386.633C294.183 385.158 298.397 383.407 302.462 381.4C304.219 380.533 306.249 380.409 308.107 381.028L325.943 386.972C328.638 387.87 331.609 387.17 333.618 385.161L354.096 364.683C356.105 362.674 356.806 359.702 355.908 357.007L349.963 339.171C349.343 337.313 349.469 335.283 350.336 333.527C352.342 329.461 354.093 325.247 355.569 320.906C356.198 319.054 357.545 317.532 359.295 316.657L376.104 308.252C378.645 306.982 380.25 304.385 380.25 301.544V272.584C380.25 269.743 378.645 267.146 376.104 265.876L359.295 257.471C357.545 256.596 356.198 255.074 355.569 253.221C354.094 248.879 352.343 244.666 350.336 240.601C349.469 238.844 349.344 236.814 349.963 234.956L355.908 217.12C356.806 214.425 356.105 211.454 354.096 209.445" stroke="#50514F" stroke-width="15" stroke-miterlimit="10" stroke-linecap="round" stroke-linejoin="round"/>
<path d="M209.406 256L178.344 287.062L209.406 318.125" stroke="#50514F" stroke-width="15" stroke-miterlimit="10" stroke-linecap="round" stroke-linejoin="round"/>
<path d="M302.594 256L333.656 287.062L302.594 318.125" stroke="#50514F" stroke-width="15" stroke-miterlimit="10" stroke-linecap="round" stroke-linejoin="round"/>
<path d="M271.531 256L240.469 318.125" stroke="#50514F" stroke-width="15" stroke-miterlimit="10" stroke-linecap="round" stroke-linejoin="round"/>
<path d="M126.365 457.906H479.499C493.306 457.906 504.499 446.713 504.499 432.906V116.219" stroke="#50514F" stroke-width="15" stroke-miterlimit="10" stroke-linecap="round" stroke-linejoin="round"/>
<path d="M7.5 116.219V432.907C7.5 446.714 18.693 457.907 32.5 457.907H91.366" stroke="#50514F" stroke-width="15" stroke-miterlimit="10" stroke-linecap="round" stroke-linejoin="round"/>
<path d="M55.653 54.0938H32.5C18.693 54.0938 7.5 65.2867 7.5 79.0938V116.219H504.5V79.0938C504.5 65.2867 493.307 54.0938 479.5 54.0938H90.653" stroke="#50514F" stroke-width="15" stroke-miterlimit="10" stroke-linecap="round" stroke-linejoin="round"/>
</svg>
