<svg width="512" height="512" viewBox="0 0 512 512" fill="none" xmlns="http://www.w3.org/2000/svg">
<g clip-path="url(#clip0_555_380)">
<path d="M210.062 275L179 306.062L210.062 337.125" stroke="#7C7C7C" stroke-width="20" stroke-miterlimit="10" stroke-linecap="round" stroke-linejoin="round"/>
<path d="M303.25 275L334.312 306.062L303.25 337.125" stroke="#7C7C7C" stroke-width="20" stroke-miterlimit="10" stroke-linecap="round" stroke-linejoin="round"/>
<path d="M272.187 275L241.125 337.125" stroke="#7C7C7C" stroke-width="20" stroke-miterlimit="10" stroke-linecap="round" stroke-linejoin="round"/>
<path d="M354.348 228.633C353.758 228.682 326.771 206.151 326.195 206.343L308.359 212.288C306.501 212.907 304.47 212.782 302.714 211.915C298.648 209.909 294.434 208.157 290.093 206.681C288.241 206.052 286.719 204.706 285.844 202.956L277.439 186.146C276.169 183.605 273.572 182 270.731 182H241.771C238.93 182 236.333 183.605 235.063 186.146L226.658 202.956C225.783 204.706 224.262 206.052 222.409 206.681C218.067 208.156 213.853 209.908 209.788 211.915C208.031 212.782 206.001 212.907 204.143 212.288L186.307 206.343C183.612 205.445 180.641 206.146 178.632 208.155L158.154 228.633C156.145 230.642 155.444 233.613 156.342 236.308L162.287 254.144C162.907 256.002 162.781 258.033 161.914 259.789C159.908 263.855 158.157 268.068 156.681 272.409C156.052 274.261 154.705 275.784 152.955 276.659L136.146 285.064C133.605 286.334 132 288.931 132 291.772V320.732C132 323.573 133.605 326.17 136.146 327.44L152.955 335.845C154.705 336.72 156.052 338.241 156.681 340.094C158.156 344.436 159.907 348.65 161.914 352.715C162.781 354.472 162.906 356.501 162.287 358.359L156.342 376.195C155.444 378.89 156.145 381.862 158.154 383.871L178.632 404.349C180.641 406.358 183.612 407.058 186.307 406.16L204.143 400.216C206.001 399.596 208.032 399.721 209.788 400.588C213.854 402.594 218.068 404.345 222.409 405.821C224.261 406.45 225.783 407.798 226.658 409.548L235.063 426.357C236.333 428.898 238.93 430.502 241.771 430.502H270.731C273.572 430.502 276.169 428.898 277.439 426.357L285.844 409.548C286.719 407.798 288.24 406.45 290.093 405.821C294.435 404.346 298.649 402.595 302.714 400.588C304.471 399.721 306.501 399.597 308.359 400.216L326.195 406.16C328.89 407.058 331.861 406.358 333.87 404.349L354.348 383.871C356.357 381.862 357.058 378.89 356.16 376.195L350.215 358.359C349.595 356.501 349.721 354.471 350.588 352.715C352.594 348.649 354.345 344.435 355.821 340.094C356.45 338.242 357.797 336.72 359.547 335.845L376.356 327.44C378.897 326.17 380.502 323.573 380.502 320.732V291.772C380.502 288.931 378.897 286.334 376.356 285.064L359.547 276.659C357.797 275.784 356.45 274.262 355.821 272.409C354.346 268.067 352.595 263.854 350.588 259.789C349.721 258.032 349.596 256.002 350.215 254.144L356.16 236.308C357.058 233.613 356.357 230.642 354.348 228.633Z" stroke="#7C7C7C" stroke-width="20" stroke-miterlimit="10" stroke-linecap="round" stroke-linejoin="round"/>
<path d="M10 110H502V482C502 493.046 493.046 502 482 502H30C18.9543 502 10 493.046 10 482V110Z" stroke="#7C7C7C" stroke-width="20"/>
<mask id="path-6-inside-1_555_380" fill="white">
<path d="M0 30C0 13.4315 13.4315 0 30 0H482C498.569 0 512 13.4315 512 30V100H0V30Z"/>
</mask>
<path d="M-20 30C-20 2.38576 2.38576 -20 30 -20H482C509.614 -20 532 2.38576 532 30H492C492 24.4772 487.523 20 482 20H30C24.4772 20 20 24.4772 20 30H-20ZM512 100H0H512ZM-20 100V30C-20 2.38576 2.38576 -20 30 -20V20C24.4772 20 20 24.4772 20 30V100H-20ZM482 -20C509.614 -20 532 2.38576 532 30V100H492V30C492 24.4772 487.523 20 482 20V-20Z" fill="#7C7C7C" mask="url(#path-6-inside-1_555_380)"/>
<circle cx="58" cy="58" r="20" fill="#7C7C7C"/>
<circle cx="114" cy="58" r="20" fill="#7C7C7C"/>
</g>
<defs>
<clipPath id="clip0_555_380">
<rect width="512" height="512" fill="white"/>
</clipPath>
</defs>
</svg>
