<svg width="512" height="512" viewBox="0 0 512 512" fill="none" xmlns="http://www.w3.org/2000/svg">
<g clip-path="url(#clip0_1902_2531)">
<path d="M58.9612 187.546C60.4221 189.007 62.3401 189.741 64.2581 189.741C66.176 189.741 68.094 189.011 69.5589 187.546C72.4846 184.62 72.4846 179.874 69.5589 176.948L51.3635 158.753L69.5589 140.562C72.4846 137.632 72.4846 132.89 69.5589 129.964C66.6331 127.038 61.8869 127.038 58.9612 129.964L35.4689 153.456C34.0626 154.862 33.2736 156.769 33.2736 158.753C33.2736 160.741 34.0626 162.648 35.4689 164.054L58.9612 187.546Z" fill="#50514F"/>
<path d="M133.321 158.753L115.125 176.948C112.2 179.874 112.2 184.62 115.129 187.546C116.59 189.007 118.508 189.741 120.426 189.741C122.344 189.741 124.262 189.007 125.723 187.546L149.219 164.05C152.145 161.124 152.145 156.378 149.219 153.456L125.723 129.96C122.797 127.034 118.055 127.034 115.129 129.96C112.2 132.89 112.2 137.632 115.129 140.558L133.321 158.753Z" fill="#50514F"/>
<path d="M81.1721 189.222C82.0706 189.573 83.0003 189.741 83.9104 189.741C86.9026 189.741 89.7269 187.937 90.887 184.987L109.344 137.999C110.86 134.147 108.961 129.8 105.11 128.284C101.262 126.772 96.9105 128.667 95.3988 132.518L76.9377 179.507C75.426 183.358 77.3206 187.71 81.1721 189.222Z" fill="#50514F"/>
<path d="M45.008 233.703H95.4886C99.6254 233.703 102.981 230.348 102.981 226.207C102.981 222.07 99.6254 218.715 95.4886 218.715H45.008C40.8673 218.715 37.5157 222.07 37.5157 226.207C37.5157 230.348 40.8673 233.703 45.008 233.703Z" fill="#50514F"/>
<path d="M211.755 218.715H123.004C118.868 218.715 115.512 222.07 115.512 226.207C115.512 230.348 118.868 233.703 123.004 233.703H211.755C215.895 233.703 219.251 230.348 219.251 226.207C219.251 222.07 215.895 218.715 211.755 218.715Z" fill="#50514F"/>
<path d="M45.008 265.309H66.512C70.6487 265.309 74.0042 261.953 74.0042 257.813C74.0042 253.676 70.6487 250.32 66.512 250.32H45.008C40.8673 250.32 37.5157 253.676 37.5157 257.813C37.5157 261.953 40.8673 265.309 45.008 265.309Z" fill="#50514F"/>
<path d="M184.341 250.32C180.2 250.32 176.848 253.676 176.848 257.813C176.848 261.953 180.2 265.309 184.341 265.309H197.434C201.575 265.309 204.931 261.953 204.931 257.813C204.931 253.676 201.575 250.32 197.434 250.32H184.341Z" fill="#50514F"/>
<path d="M164.618 257.813C164.618 253.676 161.262 250.32 157.126 250.32H92.8051C88.6644 250.32 85.3129 253.676 85.3129 257.813C85.3129 261.953 88.6644 265.309 92.8051 265.309H157.126C161.262 265.309 164.618 261.953 164.618 257.813Z" fill="#50514F"/>
<path d="M213.704 257.813C213.704 261.953 217.059 265.309 221.196 265.309H245.724C249.864 265.309 253.22 261.953 253.22 257.813C253.22 253.676 249.864 250.32 245.724 250.32H221.196C217.059 250.32 213.704 253.676 213.704 257.813Z" fill="#50514F"/>
<path d="M172.895 164.766H198.766C202.907 164.766 206.262 161.41 206.262 157.27C206.262 153.133 202.907 149.777 198.766 149.777H172.895C168.755 149.777 165.399 153.133 165.399 157.27C165.399 161.41 168.755 164.766 172.895 164.766Z" fill="#50514F"/>
<path d="M227.743 164.766H385.599C389.74 164.766 393.091 161.41 393.091 157.27C393.091 153.133 389.74 149.777 385.599 149.777H227.743C223.602 149.777 220.247 153.133 220.247 157.27C220.247 161.41 223.602 164.766 227.743 164.766Z" fill="#50514F"/>
<path d="M361.623 182.746H297.677C293.54 182.746 290.185 186.102 290.185 190.242C290.185 194.379 293.54 197.734 297.677 197.734H361.623C365.759 197.734 369.115 194.379 369.115 190.242C369.115 186.102 365.759 182.746 361.623 182.746Z" fill="#50514F"/>
<path d="M273.7 182.746H251.72C247.579 182.746 244.228 186.102 244.228 190.242C244.228 194.379 247.579 197.734 251.72 197.734H273.7C277.841 197.734 281.193 194.379 281.193 190.242C281.193 186.102 277.841 182.746 273.7 182.746Z" fill="#50514F"/>
<path d="M172.895 197.734H226.743C230.88 197.734 234.235 194.379 234.235 190.242C234.235 186.102 230.88 182.746 226.743 182.746H172.895C168.755 182.746 165.399 186.102 165.399 190.242C165.399 194.379 168.755 197.734 172.895 197.734Z" fill="#50514F"/>
<path d="M157.219 281.66H106.743C102.602 281.66 99.2465 285.016 99.2465 289.152C99.2465 293.289 102.602 296.645 106.743 296.645H157.219C161.356 296.645 164.712 293.289 164.712 289.152C164.712 285.016 161.356 281.66 157.219 281.66Z" fill="#50514F"/>
<path d="M83.7894 281.66H45.008C40.8673 281.66 37.5157 285.016 37.5157 289.152C37.5157 293.289 40.8673 296.645 45.008 296.645H83.7894C87.93 296.645 91.2816 293.289 91.2816 289.152C91.2816 285.016 87.93 281.66 83.7894 281.66Z" fill="#50514F"/>
<path d="M248.724 281.66H182.782C178.641 281.66 175.29 285.016 175.29 289.152C175.29 293.289 178.641 296.645 182.782 296.645H248.724C252.86 296.645 256.216 293.289 256.216 289.152C256.216 285.016 252.86 281.66 248.724 281.66Z" fill="#50514F"/>
<path d="M337.9 243.168H301.841C297.704 243.168 294.349 246.523 294.349 250.66C294.349 254.801 297.704 258.156 301.841 258.156H337.9C342.04 258.156 345.392 254.801 345.392 250.66C345.392 246.523 342.04 243.168 337.9 243.168Z" fill="#50514F"/>
<path d="M400.47 258.156H451.373C455.513 258.156 458.869 254.801 458.869 250.66C458.869 246.523 455.513 243.168 451.373 243.168H400.47C396.33 243.168 392.978 246.523 392.978 250.66C392.978 254.801 396.334 258.156 400.47 258.156Z" fill="#50514F"/>
<path d="M375.017 243.168H363.353C359.212 243.168 355.857 246.523 355.857 250.66C355.857 254.801 359.212 258.156 363.353 258.156H375.017C379.158 258.156 382.509 254.801 382.509 250.66C382.509 246.523 379.158 243.168 375.017 243.168Z" fill="#50514F"/>
<path d="M301.841 339.813H337.9C342.04 339.813 345.392 336.461 345.392 332.32C345.392 328.184 342.04 324.828 337.9 324.828H301.841C297.704 324.828 294.349 328.184 294.349 332.32C294.349 336.461 297.704 339.813 301.841 339.813Z" fill="#50514F"/>
<path d="M400.47 339.813H451.373C455.513 339.813 458.869 336.461 458.869 332.32C458.869 328.184 455.513 324.828 451.373 324.828H400.47C396.33 324.828 392.978 328.184 392.978 332.32C392.978 336.461 396.334 339.813 400.47 339.813Z" fill="#50514F"/>
<path d="M363.353 339.813H375.017C379.158 339.813 382.513 336.461 382.513 332.32C382.513 328.184 379.158 324.828 375.017 324.828H363.353C359.212 324.828 355.861 328.184 355.861 332.32C355.861 336.461 359.212 339.813 363.353 339.813Z" fill="#50514F"/>
<path d="M337.9 406.488H301.841C297.704 406.488 294.349 409.844 294.349 413.98C294.349 418.117 297.704 421.473 301.841 421.473H337.9C342.04 421.473 345.392 418.117 345.392 413.98C345.392 409.844 342.04 406.488 337.9 406.488Z" fill="#50514F"/>
<path d="M451.373 406.488H400.47C396.33 406.488 392.978 409.844 392.978 413.98C392.978 418.117 396.33 421.473 400.47 421.473H451.373C455.513 421.473 458.869 418.117 458.869 413.98C458.869 409.844 455.513 406.488 451.373 406.488Z" fill="#50514F"/>
<path d="M375.017 406.488H363.353C359.212 406.488 355.857 409.844 355.857 413.98C355.857 418.117 359.212 421.473 363.353 421.473H375.017C379.158 421.473 382.509 418.117 382.509 413.98C382.509 409.844 379.158 406.488 375.017 406.488Z" fill="#50514F"/>
<path d="M479.025 0.998047H32.9806C14.7969 0.998047 0 15.7911 0 33.9786V396.547C0 414.73 14.7969 429.523 32.9806 429.523H61.1799C65.3167 429.523 68.6721 426.172 68.6721 422.031C68.6721 417.894 65.3167 414.539 61.1799 414.539H32.9806C23.0587 414.539 14.9883 406.468 14.9883 396.547V368.121H287.986V381.035H282.044C273.915 381.035 267.306 387.644 267.306 395.773V414.539H106.739C102.602 414.539 99.2465 417.894 99.2465 422.031C99.2465 426.172 102.602 429.523 106.739 429.523H178.786V456.398H156.161C141.067 456.398 128.79 468.68 128.79 483.77V499.957C128.79 506.844 134.391 512.445 141.278 512.445H370.154C377.041 512.445 382.642 506.844 382.642 499.957V483.77C382.642 468.68 370.365 456.398 355.271 456.398H332.646V446.926H471.174C479.299 446.926 485.908 440.316 485.908 432.187V428.66C500.514 425.269 511.432 412.164 511.432 396.547L511.998 33.9747C512.002 15.7911 497.209 0.998047 479.025 0.998047ZM282.294 350.281V314.363H470.924V350.281H282.294ZM302.97 299.374V283.609H450.244V299.374H302.97ZM450.244 365.265V381.035H302.97V365.265H450.244ZM193.77 429.523H267.306V432.191C267.306 440.316 273.915 446.926 282.044 446.926H317.661V456.398H193.77V429.523ZM355.275 471.387C362.103 471.387 367.658 476.941 367.658 483.77V497.461H143.774V483.77C143.774 476.941 149.333 471.387 156.161 471.387H355.275ZM470.924 431.937H282.294V396.023H470.924V431.937ZM496.447 396.547C496.447 403.804 492.119 410.058 485.912 412.898V395.769C485.912 387.644 479.299 381.035 471.174 381.035H465.232V368.121H496.447V396.547ZM496.447 353.136H485.666C485.818 352.289 485.912 314.113 485.912 314.113C485.912 305.984 479.299 299.374 471.174 299.374H465.232V283.609H471.174C479.299 283.609 485.912 276.995 485.912 268.87V232.452C485.912 224.327 479.299 217.714 471.174 217.714H428.849C424.709 217.714 421.357 221.069 421.357 225.21C421.357 229.347 424.709 232.702 428.849 232.702H470.924V268.62H282.294V232.702H382.224C386.365 232.702 389.716 229.347 389.716 225.21C389.716 221.069 386.365 217.714 382.224 217.714H282.044C273.915 217.714 267.306 224.327 267.306 232.452V268.87C267.306 276.995 273.915 283.609 282.044 283.609H287.986V299.374H282.044C273.915 299.374 267.306 305.988 267.306 314.113C267.306 314.113 267.399 352.289 267.552 353.136H14.9883V102.928H496.447V353.136ZM496.447 87.9398H15.5391V33.9747C15.5391 24.0567 23.6095 15.9864 33.5314 15.9864H478.455C488.377 15.9864 496.447 24.0567 496.447 33.9786V87.9398Z" fill="#50514F"/>
<path d="M55.2619 29.7617C43.1369 29.7617 33.2736 39.625 33.2736 51.7501C33.2736 63.8751 43.1369 73.7424 55.2619 73.7424C67.387 73.7424 77.2542 63.8751 77.2542 51.7501C77.2542 39.625 67.387 29.7617 55.2619 29.7617ZM55.2619 58.754C51.4025 58.754 48.258 55.6134 48.258 51.7501C48.258 47.8907 51.4025 44.7462 55.2619 44.7462C59.1252 44.7462 62.2659 47.8907 62.2659 51.7501C62.2659 55.6134 59.1252 58.754 55.2619 58.754Z" fill="#50514F"/>
<path d="M111.25 29.7617C99.1254 29.7617 89.2582 39.625 89.2582 51.7501C89.2582 63.8751 99.1254 73.7424 111.25 73.7424C123.376 73.7424 133.239 63.8751 133.239 51.7501C133.239 39.625 123.372 29.7617 111.25 29.7617ZM111.25 58.754C107.387 58.754 104.247 55.6134 104.247 51.7501C104.247 47.8907 107.387 44.7462 111.25 44.7462C115.11 44.7462 118.254 47.8907 118.254 51.7501C118.254 55.6134 115.11 58.754 111.25 58.754Z" fill="#50514F"/>
<path d="M167.235 29.7617C155.11 29.7617 145.247 39.625 145.247 51.7501C145.247 63.8751 155.11 73.7424 167.235 73.7424C179.36 73.7424 189.227 63.8751 189.227 51.7501C189.227 39.625 179.36 29.7617 167.235 29.7617ZM167.235 58.754C163.376 58.754 160.231 55.6134 160.231 51.7501C160.231 47.8907 163.376 44.7462 167.235 44.7462C171.098 44.7462 174.239 47.8907 174.239 51.7501C174.239 55.6134 171.098 58.754 167.235 58.754Z" fill="#50514F"/>
</g>
<defs>
<clipPath id="clip0_1902_2531">
<rect width="512" height="512" fill="white"/>
</clipPath>
</defs>
</svg>
