<svg width="512" height="512" viewBox="0 0 512 512" fill="none" xmlns="http://www.w3.org/2000/svg">
<path fill-rule="evenodd" clip-rule="evenodd" d="M73.6725 153.828C75.5367 154.764 76.9535 156.4 77.6123 158.378C78.2711 160.357 78.1181 162.515 77.1869 164.381L31.6891 255.369L77.2027 346.342C77.6758 347.268 77.9609 348.278 78.0415 349.314C78.1222 350.35 77.9968 351.392 77.6727 352.38C77.3486 353.367 76.832 354.281 76.1529 355.068C75.4738 355.855 74.6455 356.5 73.7157 356.965C72.786 357.431 71.7733 357.708 70.7359 357.781C69.6985 357.853 68.657 357.72 67.6714 357.388C66.6859 357.057 65.7757 356.534 64.9935 355.849C64.2112 355.164 63.5723 354.331 63.1136 353.398L15.835 258.897C15.2859 257.802 15 256.594 15 255.369C15 254.145 15.2859 252.937 15.835 251.841L63.1136 157.34C64.05 155.477 65.6873 154.061 67.6666 153.403C69.646 152.745 71.8058 152.897 73.6725 153.828Z" fill="#7C7C7C"/>
<circle cx="174.058" cy="382.287" r="56.0582" stroke="#7C7C7C" stroke-width="20"/>
<circle cx="174.056" cy="382.285" r="23.0291" stroke="#7C7C7C" stroke-width="20"/>
<circle cx="426.281" cy="382.287" r="56.0582" stroke="#7C7C7C" stroke-width="20"/>
<circle cx="426.279" cy="382.285" r="23.0291" stroke="#7C7C7C" stroke-width="20"/>
<line x1="238.615" y1="372.289" x2="361.724" y2="372.289" stroke="#7C7C7C" stroke-width="20"/>
<mask id="path-7-inside-1_563_49" fill="white">
<path d="M141.027 235.127C141.027 218.558 154.459 205.127 171.027 205.127H429.308C445.876 205.127 459.308 218.558 459.308 235.127V325.233H141.027V235.127Z"/>
</mask>
<path d="M121.027 235.127C121.027 207.513 143.413 185.127 171.027 185.127H429.308C456.922 185.127 479.308 207.513 479.308 235.127H439.308C439.308 229.604 434.831 225.127 429.308 225.127H171.027C165.504 225.127 161.027 229.604 161.027 235.127H121.027ZM459.308 325.233H141.027H459.308ZM121.027 325.233V235.127C121.027 207.513 143.413 185.127 171.027 185.127V225.127C165.504 225.127 161.027 229.604 161.027 235.127V325.233H121.027ZM429.308 185.127C456.922 185.127 479.308 207.513 479.308 235.127V325.233H439.308V235.127C439.308 229.604 434.831 225.127 429.308 225.127V185.127Z" fill="#7C7C7C" mask="url(#path-7-inside-1_563_49)"/>
<mask id="path-9-inside-2_563_49" fill="white">
<path d="M168.051 205.127C168.051 190.202 180.15 178.104 195.075 178.104H405.26C420.185 178.104 432.284 190.202 432.284 205.127V205.127H168.051V205.127Z"/>
</mask>
<path d="M148.051 205.127C148.051 179.157 169.104 158.104 195.075 158.104H405.26C431.23 158.104 452.284 179.157 452.284 205.127L412.284 205.127C412.284 201.248 409.139 198.104 405.26 198.104H195.075C191.195 198.104 188.051 201.248 188.051 205.127L148.051 205.127ZM432.284 205.127H168.051H432.284ZM148.051 205.127V205.127C148.051 179.157 169.104 158.104 195.075 158.104L195.075 198.104C191.195 198.104 188.051 201.248 188.051 205.127H148.051ZM405.26 158.104C431.23 158.104 452.284 179.157 452.284 205.127V205.127H412.284C412.284 201.248 409.139 198.104 405.26 198.104L405.26 158.104Z" fill="#7C7C7C" mask="url(#path-9-inside-2_563_49)"/>
<mask id="path-11-inside-3_563_49" fill="white">
<path d="M204.086 94C204.086 77.4315 217.517 64 234.086 64H366.255C382.824 64 396.255 77.4315 396.255 94V178.101H204.086V94Z"/>
</mask>
<path d="M184.086 94C184.086 66.3858 206.472 44 234.086 44H366.255C393.87 44 416.255 66.3858 416.255 94H376.255C376.255 88.4772 371.778 84 366.255 84H234.086C228.563 84 224.086 88.4772 224.086 94H184.086ZM396.255 178.101H204.086H396.255ZM184.086 178.101V94C184.086 66.3858 206.472 44 234.086 44V84C228.563 84 224.086 88.4772 224.086 94V178.101H184.086ZM366.255 44C393.87 44 416.255 66.3858 416.255 94V178.101H376.255V94C376.255 88.4772 371.778 84 366.255 84V44Z" fill="#7C7C7C" mask="url(#path-11-inside-3_563_49)"/>
<mask id="path-13-inside-4_563_49" fill="white">
<path d="M270.145 79.0117H330.197V109.065C330.197 125.633 316.74 139.065 300.171 139.065V139.065C283.602 139.065 270.145 125.633 270.145 109.065V79.0117Z"/>
</mask>
<path d="M270.145 79.0117H330.197H270.145ZM350.197 109.065C350.197 136.679 327.812 159.065 300.197 159.065H300.145C272.53 159.065 250.145 136.679 250.145 109.065H290.145C290.145 114.587 294.622 119.065 300.145 119.065H300.197C305.72 119.065 310.197 114.587 310.197 109.065H350.197ZM300.145 159.065C272.53 159.065 250.145 136.679 250.145 109.065V79.0117H290.145V109.065C290.145 114.587 294.622 119.065 300.145 119.065V159.065ZM350.197 79.0117V109.065C350.197 136.679 327.812 159.065 300.197 159.065V119.065C305.72 119.065 310.197 114.587 310.197 109.065V79.0117H350.197Z" fill="#7C7C7C" mask="url(#path-13-inside-4_563_49)"/>
<path d="M351.215 262.924C351.215 249.657 361.969 238.902 375.236 238.902H447.3V286.945H375.236C361.969 286.945 351.215 276.19 351.215 262.924V262.924Z" fill="#7C7C7C"/>
<path d="M174.059 262.925C174.059 256.291 179.436 250.914 186.069 250.914H306.175C312.808 250.914 318.186 256.291 318.186 262.925V262.925C318.186 269.558 312.808 274.935 306.175 274.935H186.069C179.436 274.935 174.059 269.558 174.059 262.925V262.925Z" fill="#7C7C7C"/>
</svg>
