<svg width="150" height="178" viewBox="0 0 150 178" fill="none" xmlns="http://www.w3.org/2000/svg">
<rect width="150" height="178" fill="white"/>
<path d="M74.8582 140.341L31.1832 115.112L118.456 115.183L74.8582 140.341ZM73.8588 33.5456L28.5719 111.166L28.4365 59.935L73.8588 33.5456ZM75.864 33.5391L121.428 59.6833L121.563 110.58L75.864 33.5391ZM74.8646 86.2082L119.146 114.042L31.3636 113.971L74.8582 86.2082H74.8646ZM74.8646 34.0935L120.313 110.721L74.8517 82.1528L30.1967 110.651L74.8646 34.0935ZM124.858 57.6975L74.8517 29L25 57.9554L25.1483 115.609L74.8646 144.306L125 115.351L124.852 57.6975H124.858Z" fill="#686868"/>
</svg>
