<svg width="315" height="512" viewBox="0 0 315 512" fill="none" xmlns="http://www.w3.org/2000/svg">
<path d="M247.774 283.584C227.902 283.584 210.087 292.417 197.887 306.325L166.625 284.12C169.944 274.953 171.849 265.109 171.849 254.806C171.849 244.682 170.01 235.004 166.801 225.972L197.992 204.003C210.191 217.84 227.96 226.625 247.774 226.625C284.452 226.625 314.297 196.686 314.297 159.88C314.297 123.075 284.452 93.1353 247.774 93.1353C211.096 93.1353 181.251 123.075 181.251 159.88C181.251 166.468 182.243 172.82 184.023 178.836L152.811 200.817C139.773 184.588 120.999 173.256 99.6101 169.797V132.055C129.743 125.705 152.448 98.8423 152.448 66.7448C152.448 29.9393 122.603 0 85.9246 0C49.2464 0 19.4017 29.9393 19.4017 66.7448C19.4017 98.4124 41.5179 124.943 71.0483 131.747V169.98C30.7471 177.077 0 212.367 0 254.806C0 297.453 31.0516 332.872 71.6438 339.728V380.099C41.8113 386.679 19.4017 413.372 19.4017 445.255C19.4017 482.061 49.2464 512 85.9246 512C122.603 512 152.448 482.061 152.448 445.255C152.448 413.372 130.038 386.679 100.206 380.099V339.727C120.751 336.254 139.339 325.408 152.506 309.207L183.977 331.556C182.23 337.518 181.251 343.808 181.251 350.329C181.251 387.134 211.096 417.074 247.774 417.074C284.452 417.074 314.297 387.134 314.297 350.329C314.297 313.523 284.452 283.584 247.774 283.584ZM247.774 127.519C265.56 127.519 280.026 142.04 280.026 159.88C280.026 177.72 265.56 192.24 247.774 192.24C229.988 192.24 215.522 177.72 215.522 159.88C215.522 142.04 229.988 127.519 247.774 127.519ZM53.6711 66.7448C53.6711 48.9044 68.1386 34.385 85.9246 34.385C103.711 34.385 118.177 48.9044 118.177 66.7448C118.177 84.5852 103.711 99.1046 85.9246 99.1046C68.1386 99.1046 53.6711 84.5852 53.6711 66.7448ZM118.177 445.255C118.177 463.096 103.711 477.615 85.9246 477.615C68.1386 477.615 53.6711 463.096 53.6711 445.255C53.6711 427.415 68.1386 412.895 85.9246 412.895C103.711 412.895 118.177 427.415 118.177 445.255ZM85.9222 299.938C61.116 299.938 40.936 279.694 40.936 254.806C40.936 229.918 61.116 209.67 85.9222 209.67C110.727 209.67 130.907 229.918 130.907 254.806C130.907 279.694 110.727 299.938 85.9222 299.938ZM247.774 382.69C229.988 382.69 215.522 368.169 215.522 350.329C215.522 332.488 229.988 317.969 247.774 317.969C265.56 317.969 280.026 332.488 280.026 350.329C280.026 368.169 265.56 382.69 247.774 382.69Z" fill="black"/>
</svg>
