<svg width="512" height="512" viewBox="0 0 512 512" fill="none" xmlns="http://www.w3.org/2000/svg">
<path d="M163.469 503.84C151.551 503.84 140.296 498.402 132.681 488.542L16.8141 340.654C9.19921 330.794 6.2206 318.217 9.19921 305.976L50.581 121.371C53.2289 109.132 61.1745 99.272 72.1007 93.8336L239.614 11.5581C244.912 8.84097 250.871 7.48034 256.83 7.48034C262.79 7.48034 268.747 8.83891 274.045 11.5602L441.56 93.494C452.484 98.9324 460.43 108.792 463.078 121.032L504.46 305.636C507.11 317.875 504.46 330.455 496.847 340.314L380.976 488.202C373.361 497.721 362.106 503.501 350.188 503.501L163.473 503.84H163.469Z" fill="#326DE6"/>
<path d="M256.496 15.9796C261.132 15.9796 265.766 16.9985 270.07 19.0384L437.585 100.972C446.192 105.392 452.813 113.551 454.8 123.072L496.181 307.676C498.498 317.536 496.181 327.735 489.891 335.553L374.022 483.443C368.063 491.261 358.793 495.681 349.193 495.681H163.469C153.868 495.681 144.599 491.261 138.64 483.443L22.7712 335.553C16.812 327.735 14.4928 317.536 16.4813 307.676L57.863 123.072C60.1802 113.212 66.4701 105.052 75.0772 100.972L242.595 18.7009C246.898 17.0006 251.863 15.9817 256.498 15.9817L256.496 15.9796ZM256.496 0C249.544 0 242.593 1.70027 235.97 4.7591L68.4565 87.0346C55.2132 93.494 45.9446 105.392 42.6333 120.011L1.25147 304.617C-2.05787 319.236 1.25147 334.195 10.522 346.095L126.391 493.983C135.331 505.541 148.903 512 163.139 512H348.861C363.096 512 376.67 505.541 385.608 493.983L501.479 346.092C510.748 334.534 514.059 319.236 510.748 304.615L469.366 120.011C466.056 105.392 456.786 93.494 443.545 87.0346L276.69 4.75704C270.401 1.70027 263.449 0 256.496 0Z" fill="white"/>
<path d="M424.342 293.057C424.011 293.057 424.011 293.057 424.342 293.057H424.011C423.68 293.057 423.35 293.057 423.35 292.717C422.688 292.717 422.027 292.378 421.363 292.378C419.046 292.038 417.06 291.698 415.073 291.698C414.079 291.698 413.087 291.698 411.762 291.357H411.431C404.48 290.677 398.851 289.998 393.554 288.298C391.237 287.277 390.575 285.918 389.912 284.558C389.912 284.218 389.581 284.218 389.581 283.878L385.277 282.52C387.311 266.527 386.526 250.289 382.96 234.581C379.345 218.743 373.072 203.672 364.421 190.045L367.732 186.986V186.307C367.732 184.606 368.063 182.906 369.386 181.206C373.359 177.466 378.326 174.407 384.285 170.667C385.277 169.987 386.269 169.648 387.264 168.966C389.25 167.947 390.906 166.929 392.892 165.568C393.223 165.228 393.884 164.889 394.548 164.209C394.879 163.868 395.209 163.868 395.209 163.528C399.844 159.448 400.838 152.649 397.526 148.228C395.871 145.848 392.892 144.49 389.912 144.49C387.266 144.49 384.947 145.509 382.629 147.209L381.968 147.888C381.306 148.228 380.974 148.909 380.312 149.249C378.657 150.949 377.332 152.308 376.009 154.008C375.347 154.687 374.686 155.708 373.692 156.387C369.055 161.488 364.752 165.568 360.448 168.627C359.456 169.306 358.464 169.648 357.47 169.648C356.808 169.648 356.145 169.648 355.483 169.306H354.822L350.847 172.027C346.543 167.268 341.909 163.188 337.275 159.109C317.319 143.09 293.303 133.295 268.083 130.89L267.753 126.47L267.091 125.791C266.097 124.77 264.774 123.751 264.441 121.371C264.111 115.931 264.774 109.811 265.435 103.012V102.673C265.435 101.652 265.766 100.293 266.097 99.272C266.428 97.2342 266.758 95.1922 267.091 92.8126V89.7538C267.091 83.6341 262.455 78.5354 256.828 78.5354C254.179 78.5354 251.531 79.8939 249.544 81.9338C247.56 83.9737 246.566 86.6929 246.566 89.7538V92.473C246.566 94.8526 246.896 96.8925 247.558 98.9324C247.889 99.9533 247.889 100.972 248.219 102.333V102.673C248.881 109.472 249.875 115.591 249.214 121.032C248.883 123.411 247.558 124.43 246.566 125.451L245.904 126.13L245.571 130.55C239.612 131.229 233.653 131.908 227.694 133.269C202.203 139.049 179.691 152.31 162.146 171.346L158.835 168.966H158.174C157.512 168.966 156.849 169.306 156.187 169.306C155.193 169.306 154.201 168.966 153.207 168.287C148.903 165.228 144.599 160.807 139.965 155.708C139.304 155.029 138.642 154.008 137.648 153.328C136.323 151.628 134.998 150.268 133.342 148.569C133.012 148.228 132.35 147.89 131.689 147.209C131.358 146.869 131.027 146.869 131.027 146.529C128.976 144.789 126.404 143.828 123.743 143.808C120.763 143.808 117.784 145.169 116.128 147.548C112.817 151.968 113.811 158.767 118.445 162.847C118.776 162.847 118.776 163.188 119.107 163.188C119.768 163.528 120.101 164.207 120.763 164.547C122.749 165.906 124.405 166.926 126.391 167.947C127.385 168.287 128.377 168.966 129.372 169.648C135.329 173.386 140.296 176.447 144.269 180.187C145.924 181.885 145.924 183.585 145.924 185.286V185.965L149.234 189.026C148.572 190.045 147.911 190.726 147.578 191.745C131.025 218.603 124.735 250.221 129.039 281.499L124.735 282.857C124.735 283.199 124.405 283.199 124.405 283.537C123.743 284.897 122.749 286.258 120.763 287.277C115.798 288.977 109.838 289.658 102.887 290.338H102.554C101.562 290.338 100.237 290.338 99.2449 290.677C97.2584 290.677 95.272 291.017 92.9549 291.357C92.2934 291.357 91.632 291.698 90.9685 291.698C90.6378 291.698 90.307 291.698 89.9743 292.038C84.0151 293.397 80.373 299.177 81.3672 304.615C82.3614 309.376 86.665 312.437 91.9607 312.437C92.9549 312.437 93.6164 312.437 94.6106 312.095C94.9413 312.095 95.272 312.095 95.272 311.756C95.9335 311.756 96.595 311.416 97.2564 311.416C99.5756 310.737 101.231 310.058 103.218 309.037C104.21 308.697 105.202 308.016 106.196 307.678H106.527C112.817 305.296 118.445 303.256 123.743 302.577H124.405C126.391 302.577 127.716 303.596 128.708 304.277C129.039 304.277 129.039 304.617 129.37 304.617L134.006 303.938C141.952 329.094 157.179 351.533 177.374 367.852C182.008 371.59 186.643 374.651 191.61 377.712L189.623 382.129C189.623 382.471 189.954 382.471 189.954 382.809C190.616 384.169 191.277 385.87 190.616 388.249C188.631 393.35 185.651 398.449 182.008 404.229V404.568C181.347 405.589 180.685 406.269 180.024 407.288C178.699 408.988 177.705 410.688 176.38 412.728C176.049 413.068 175.718 413.747 175.388 414.428C175.388 414.768 175.057 415.108 175.057 415.108C172.409 420.888 174.396 427.347 179.361 429.727C180.683 430.406 182.008 430.748 183.333 430.748C187.306 430.748 191.279 428.026 193.265 424.286C193.265 423.946 193.596 423.607 193.596 423.607C193.927 422.928 194.258 422.248 194.588 421.907C195.583 419.527 195.913 417.827 196.575 415.787L197.569 412.728C199.886 405.929 201.542 400.489 204.52 395.729C205.843 393.69 207.501 393.35 208.824 392.669C209.155 392.669 209.155 392.669 209.485 392.329L211.805 387.909C226.371 393.69 242.262 396.748 258.151 396.748C267.753 396.748 277.685 395.729 286.955 393.35C292.789 392.01 298.538 390.307 304.169 388.249L306.154 391.989C306.487 391.989 306.487 391.989 306.817 392.329C308.473 392.669 309.796 393.35 311.121 395.39C313.769 400.149 315.755 405.929 318.072 412.388V412.728L319.066 415.787C319.728 417.827 320.059 419.867 321.051 421.907C321.384 422.586 321.714 422.928 322.045 423.607C322.045 423.946 322.378 424.286 322.378 424.286C324.362 428.366 328.335 430.748 332.308 430.748C333.633 430.748 334.958 430.406 336.281 429.727C338.598 428.368 340.584 426.326 341.248 423.607C341.909 420.888 341.909 417.827 340.586 415.108C340.586 414.768 340.253 414.768 340.253 414.428C339.923 413.749 339.592 413.07 339.261 412.728C338.267 410.688 336.944 408.988 335.619 407.288C334.958 406.269 334.296 405.589 333.635 404.57V404.229C329.991 398.449 326.679 393.35 325.026 388.249C324.364 385.87 325.026 384.511 325.356 382.811C325.356 382.471 325.687 382.471 325.687 382.131L324.031 378.052C341.578 367.512 356.475 352.552 367.732 334.195C373.692 324.674 378.326 314.135 381.635 303.596L385.608 304.275C385.941 304.275 385.941 303.936 386.27 303.936C387.594 303.256 388.589 302.238 390.575 302.238H391.237C396.534 302.917 402.161 304.955 408.453 307.336H408.783C409.776 307.676 410.768 308.355 411.762 308.695C413.748 309.716 415.404 310.395 417.721 311.076C418.383 311.076 419.044 311.416 419.708 311.416C420.038 311.416 420.369 311.416 420.7 311.756C421.694 312.095 422.356 312.095 423.35 312.095C428.315 312.095 432.618 308.697 433.943 304.277C433.943 300.198 430.301 294.757 424.342 293.059V293.057ZM271.062 276.398L256.496 283.539L241.929 276.398L238.289 260.42L248.219 247.502H264.441L274.373 260.42L271.064 276.398H271.062ZM357.47 241.042C360.038 252.284 360.82 263.879 359.787 275.377L309.134 260.42C304.5 259.062 301.852 254.301 302.844 249.542C303.175 248.181 303.839 246.82 304.831 245.801L344.89 208.744C350.516 218.264 354.82 229.145 357.47 241.042ZM328.998 188.347L285.63 219.964C281.988 222.344 277.021 221.662 274.043 217.924C273.05 216.903 272.72 215.543 272.387 214.184L269.408 158.767C291.955 161.433 312.958 171.859 328.998 188.347ZM232.992 160.465C236.634 159.786 239.943 159.106 243.585 158.427L240.606 212.821C240.276 217.58 236.634 221.66 231.667 221.66C230.344 221.66 228.688 221.321 227.694 220.641L183.664 188.347C197.238 174.407 214.122 164.885 232.992 160.465ZM167.773 208.741L207.168 244.778C210.81 247.839 211.141 253.617 208.162 257.358C207.168 258.716 205.845 259.737 204.19 260.079L152.876 275.377C150.889 252.259 155.854 228.801 167.773 208.741ZM158.833 300.875L211.474 291.694C215.777 291.355 219.75 294.415 220.742 298.835C221.073 300.873 221.073 302.575 220.412 304.275L200.217 354.25C181.678 342.011 166.779 323.312 158.833 300.875ZM279.671 368.529C272.056 370.23 264.441 371.249 256.496 371.249C244.91 371.249 233.653 369.211 223.062 365.81L249.214 317.194C251.861 314.133 256.165 312.775 259.807 314.815C261.353 315.787 262.702 317.056 263.78 318.553L289.27 365.81C286.292 366.829 282.98 367.51 279.669 368.529H279.671ZM344.226 321.274C335.95 334.872 325.024 345.751 312.446 354.25L291.59 302.913C290.595 298.835 292.251 294.415 296.224 292.374C297.547 291.694 299.202 291.355 300.858 291.355L353.828 300.535C351.841 308.014 348.53 314.815 344.226 321.274Z" fill="white"/>
</svg>
