<svg width="512" height="512" viewBox="0 0 512 512" fill="none" xmlns="http://www.w3.org/2000/svg">
<path d="M256 0C114.615 0 0 114.615 0 256C0 397.385 114.615 512 256 512C397.385 512 512 397.385 512 256C512 114.615 397.385 0 256 0ZM256 468.114C138.854 468.114 43.8857 373.146 43.8857 256C43.8857 138.854 138.854 43.8857 256 43.8857C373.146 43.8857 468.114 138.854 468.114 256C468.114 373.146 373.146 468.114 256 468.114Z" fill="#717074"/>
<path d="M257.232 472.551C376.491 472.551 473.17 375.872 473.17 256.613C473.17 137.355 376.491 40.6762 257.232 40.6762C137.974 40.6762 41.2952 137.355 41.2952 256.613C41.2952 375.872 137.974 472.551 257.232 472.551Z" fill="white"/>
<path d="M257.232 398.711C334.622 398.711 397.359 335.974 397.359 258.584C397.359 181.194 334.622 118.457 257.232 118.457C179.842 118.457 117.105 181.194 117.105 258.584C117.105 335.974 179.842 398.711 257.232 398.711Z" fill="#1D428A"/>
<path d="M454.805 253.238L403.8 236.659C394.487 170.294 341.434 117.778 274.776 109.39C275.02 109.098 275.166 108.61 275.02 108.123L258.392 57.1177C257.515 54.4846 253.76 54.4846 252.98 57.1177L236.352 108.123C236.206 108.61 236.352 109.147 236.645 109.439C207.68 113.145 181.349 125.238 160.04 143.134L159.601 142.841L128.003 126.75C126.248 125.872 124.395 127.725 125.272 129.383L141.413 161.127C141.461 161.273 141.559 161.371 141.656 161.468C124.005 182.436 112.009 208.328 108.059 236.708L57.2007 253.238C56.6086 253.416 56.0895 253.78 55.7206 254.277C55.3516 254.773 55.1524 255.375 55.1524 255.993C55.1524 256.612 55.3516 257.213 55.7206 257.71C56.0895 258.206 56.6086 258.57 57.2007 258.748L107.669 275.181C115.666 343.009 169.353 397.037 236.937 405.619L252.98 454.82C253.76 457.55 257.515 457.55 258.392 454.82L274.386 405.668C303.985 402.059 330.95 389.674 352.6 371.242L382.686 386.553C384.442 387.431 386.197 385.578 385.32 383.822L370.008 353.688C388.881 331.472 400.772 304.178 404.19 275.23L454.805 258.748C455.397 258.57 455.917 258.206 456.285 257.71C456.654 257.213 456.854 256.612 456.854 255.993C456.854 255.375 456.654 254.773 456.285 254.277C455.917 253.78 455.397 253.416 454.805 253.238ZM255.954 386.261C184.908 386.261 127.174 328.478 127.174 257.48C127.174 186.483 184.908 128.749 255.954 128.749C326.952 128.749 384.686 186.483 384.686 257.48C384.686 328.478 326.952 386.261 255.954 386.261Z" fill="#0091DA"/>
<path d="M284.305 282.86L121.279 390.497C120.651 390.894 119.906 391.065 119.167 390.982C118.428 390.898 117.74 390.565 117.216 390.038C116.692 389.511 116.364 388.82 116.285 388.081C116.206 387.342 116.382 386.598 116.784 385.972L225.415 223.936L387.524 115.416C388.15 115.018 388.893 114.844 389.631 114.924C390.369 115.004 391.057 115.332 391.584 115.855C392.11 116.379 392.442 117.066 392.526 117.803C392.61 118.54 392.44 119.284 392.044 119.912L284.305 282.86Z" fill="#00C1D5"/>
</svg>
