<svg width="150" height="178" viewBox="0 0 150 178" fill="none" xmlns="http://www.w3.org/2000/svg">
<rect width="150" height="178" />
<path d="M58.2838 75.7908V69.8092C58.8727 69.7723 59.4615 69.7354 60.0504 69.7354C76.392 69.2185 87.1023 83.84 87.1023 83.84C87.1023 83.84 75.5455 99.9385 63.1421 99.9385C61.4858 99.9385 59.8664 99.68 58.3206 99.1631V80.9969C64.6879 81.7723 65.9761 84.5785 69.767 90.9662L78.269 83.8031C78.269 83.8031 72.049 75.6431 61.5962 75.6431C60.4921 75.6062 59.3879 75.68 58.2838 75.7908ZM58.2838 56V64.9354L60.0504 64.8246C82.7593 64.0492 97.5918 83.5077 97.5918 83.5077C97.5918 83.5077 80.5878 104.259 62.8844 104.259C61.3386 104.259 59.8296 104.111 58.3206 103.852V109.391C59.572 109.539 60.8601 109.649 62.1115 109.649C78.6003 109.649 90.5252 101.194 102.082 91.2247C103.996 92.7754 111.835 96.5047 113.455 98.1293C102.487 107.36 76.9072 114.782 62.406 114.782C61.0074 114.782 59.6824 114.708 58.3574 114.56V122.351H121V56H58.2838ZM58.2838 99.1631V103.889C43.0464 101.157 38.8138 85.2431 38.8138 85.2431C38.8138 85.2431 46.138 77.12 58.2838 75.7908V80.96H58.247C51.8796 80.1846 46.8741 86.1662 46.8741 86.1662C46.8741 86.1662 49.7081 96.2462 58.2838 99.1631ZM31.2319 84.5785C31.2319 84.5785 40.2492 71.2123 58.3206 69.8092V64.9354C38.2985 66.56 21 83.5446 21 83.5446C21 83.5446 30.7902 111.975 58.2838 114.56V109.391C38.1145 106.88 31.2319 84.5785 31.2319 84.5785Z" fill="#666666"/>
</svg>
