<svg width="512" height="255" viewBox="0 0 512 255" fill="none" xmlns="http://www.w3.org/2000/svg">
<path d="M380.474 0C336.397 0 296.198 24.6832 257.058 67.7025C218.623 23.978 177.366 0 131.526 0C55.361 0 0 54.3029 0 127.295C0 200.287 55.7136 254.237 131.526 254.237C178.424 254.237 214.391 232.375 254.942 188.65C294.082 232.375 333.927 254.59 380.474 254.59C456.64 254.59 512 200.992 512 127.647C512 54.3029 456.64 0 380.474 0ZM132.231 177.366C100.143 177.366 80.7492 156.209 80.7492 128C80.7492 99.7907 99.7907 77.9283 132.231 77.9283C159.383 77.9283 181.598 99.7907 205.576 129.41C183.008 156.915 159.03 177.366 132.231 177.366ZM378.358 177.366C351.56 177.366 328.991 156.209 305.014 128C329.696 98.3803 350.855 77.9283 378.358 77.9283C410.447 77.9283 429.488 100.143 429.488 128C429.488 155.857 410.447 177.366 378.358 177.366Z" fill="black"/>
<path d="M312.42 235.901L363.55 174.898C343.099 168.904 324.409 150.568 305.015 127.647L255.296 188.297C271.516 207.339 290.91 223.559 312.42 235.901Z" fill="#20A8C9"/>
<path d="M257.058 67.7049C240.837 48.6637 221.443 32.0907 200.286 19.0439L149.157 80.7519C168.551 87.4517 185.829 105.083 204.165 127.297L206.281 128.708L257.058 67.7049Z" fill="#20A7C9"/>
</svg>
