<svg width="150" height="178" viewBox="0 0 150 178" fill="none" xmlns="http://www.w3.org/2000/svg">
<g clip-path="url(#clip0_1919_2485)">
<g clip-path="url(#clip1_1919_2485)">
<path d="M138.635 85.5778C133.867 85.5778 130.002 81.7124 130.002 76.9442C130.002 72.1759 133.867 68.3105 138.635 68.3105C143.403 68.3105 147.268 72.1759 147.268 76.9442C147.268 81.7124 143.403 85.5778 138.635 85.5778ZM133.247 75.9073C132.676 75.9073 132.212 76.3711 132.212 76.9455C132.212 77.5159 132.676 77.9811 133.247 77.9811C133.82 77.9811 134.288 77.5159 134.288 76.9455C134.288 76.3711 133.82 75.9073 133.247 75.9073ZM140.655 80.6239C140.163 80.907 139.991 81.5435 140.275 82.0356C140.563 82.5372 141.198 82.7058 141.69 82.4186C142.189 82.1354 142.36 81.499 142.071 81.0028C141.785 80.5039 141.151 80.334 140.655 80.6239ZM135.502 76.9455C135.502 75.9208 136.011 75.0119 136.791 74.4645L136.033 73.193C135.123 73.7998 134.447 74.7274 134.167 75.8129C134.498 76.0826 134.703 76.4871 134.703 76.9455C134.703 77.3999 134.498 77.8085 134.167 78.0754C134.447 79.1609 135.124 80.0872 136.033 80.6913L136.791 79.4238C136.011 78.8764 135.502 77.9676 135.502 76.9455ZM138.53 73.9117C140.117 73.9117 141.415 75.1279 141.55 76.6785L143.031 76.6516C142.956 75.5122 142.458 74.4807 141.69 73.7323C141.293 73.878 140.836 73.8577 140.443 73.6272C140.049 73.4006 139.805 73.0177 139.737 72.6024C139.352 72.4972 138.949 72.4406 138.53 72.4406C137.815 72.4406 137.138 72.6078 136.534 72.9044L137.256 74.1962C137.643 74.0142 138.078 73.9117 138.53 73.9117ZM138.53 79.9753C138.077 79.9753 137.643 79.8728 137.256 79.6921L136.534 80.9839C137.137 81.2805 137.815 81.4477 138.53 81.4477C138.951 81.4477 139.352 81.3938 139.737 81.2859C139.804 80.8679 140.049 80.4836 140.443 80.2585C140.84 80.0319 141.293 80.0077 141.69 80.16C142.459 79.4009 142.955 78.3748 143.031 77.2341L141.55 77.2125C141.415 78.7591 140.117 79.9753 138.53 79.9753ZM140.655 73.2658C141.151 73.553 141.785 73.3845 142.071 72.8856C142.36 72.3907 142.189 71.7529 141.693 71.4671C141.2 71.1839 140.564 71.3525 140.277 71.8487C139.99 72.3435 140.161 72.98 140.655 73.2658ZM20.2679 99.6008C19.3915 99.8193 18.2319 100.055 16.7933 100.299C15.3533 100.547 13.6867 100.671 11.7991 100.671C10.1515 100.671 8.76944 100.431 7.6436 99.9514C6.52045 99.4727 5.61708 98.7945 4.93348 97.9154C4.24584 97.0389 3.75371 96.0034 3.45303 94.8141C3.14831 93.6154 3 92.2967 3 90.8405V78.8373H6.82247V90.0193C6.82247 92.6257 7.23236 94.4905 8.05753 95.6124C8.88 96.7369 10.2647 97.2978 12.2103 97.2978C12.6202 97.2978 13.0463 97.2843 13.4845 97.2547C13.924 97.2277 14.3366 97.194 14.7169 97.1535C15.0998 97.1131 15.4503 97.0726 15.7658 97.0322C16.0813 96.989 16.3052 96.9445 16.4454 96.8866V78.8373H20.2679V99.6008ZM29.5996 79.7811C30.0674 79.4818 30.7726 79.1636 31.7191 78.8373C32.6629 78.5096 33.751 78.3424 34.9874 78.3424C36.5204 78.3424 37.8836 78.6202 39.0769 79.1649C40.2715 79.7124 41.2773 80.4823 42.1011 81.4706C42.9196 82.455 43.5438 83.6334 43.9685 85.0034C44.396 86.3747 44.6076 87.8835 44.6076 89.5285C44.6076 91.2544 44.3542 92.8091 43.8445 94.1939C43.3362 95.5773 42.6175 96.749 41.6872 97.7077C40.7542 98.6705 39.6324 99.4067 38.3137 99.9285C37.0018 100.45 35.5227 100.711 33.8737 100.711C32.0912 100.711 30.5164 100.585 29.1452 100.338C27.7753 100.092 26.6508 99.8435 25.7744 99.5968V68.9699L29.5982 68.3119L29.5996 79.7811ZM31.2256 97.194C31.9227 97.2924 32.7897 97.3383 33.8346 97.3383C35.8867 97.3383 37.5357 96.6573 38.7667 95.3022C40.0004 93.9444 40.618 92.0189 40.618 89.5258C40.618 88.4296 40.5101 87.4021 40.289 86.4407C40.0692 85.4807 39.7119 84.6528 39.2198 83.953C38.7263 83.2518 38.0872 82.7085 37.3106 82.308C36.5258 81.9089 35.5874 81.7107 34.4926 81.7107C33.449 81.7107 32.4917 81.89 31.6139 82.2433C30.7375 82.6033 30.0634 82.9714 29.5982 83.3557V96.8825C29.9838 96.9971 30.5245 97.0996 31.2256 97.194ZM65.9447 99.6008C65.0683 99.8193 63.9088 100.055 62.4715 100.299C61.0328 100.547 59.3663 100.671 57.4733 100.671C55.831 100.671 54.4463 100.431 53.3231 99.9514C52.2 99.4727 51.2953 98.7945 50.613 97.9154C49.9227 97.0389 49.4319 96.0034 49.1299 94.8141C48.8292 93.6181 48.6796 92.2981 48.6796 90.8432V78.84H52.502V90.022C52.502 92.6284 52.9119 94.4932 53.7344 95.6151C54.5569 96.7396 55.9402 97.3005 57.8872 97.3005C58.2984 97.3005 58.7258 97.287 59.164 97.2574C59.6022 97.2304 60.0135 97.1967 60.3978 97.1562C60.7793 97.1158 61.1299 97.0753 61.4467 97.0349C61.7595 96.9904 61.9861 96.9459 62.1249 96.8866V78.84H65.9488V99.6049H65.9461L65.9447 99.6008ZM71.4539 79.4548C72.3303 79.2337 73.4939 79.0031 74.9488 78.7537C76.4009 78.511 78.0715 78.3856 79.9645 78.3856C81.6661 78.3856 83.0751 78.6256 84.1982 79.1043C85.324 79.5843 86.2207 80.2544 86.8921 81.1187C87.5636 81.9817 88.0382 83.0172 88.3119 84.22C88.5843 85.4308 88.7218 86.7576 88.7218 88.2112V100.217H84.8966V89.0337C84.8966 87.7163 84.8076 86.5931 84.631 85.6627C84.453 84.727 84.1591 83.9773 83.7465 83.4015C83.338 82.8217 82.7865 82.4064 82.1016 82.1475C81.418 81.8819 80.5645 81.7538 79.5533 81.7538C79.142 81.7538 78.7173 81.7713 78.2818 81.7983C77.8422 81.8253 77.4229 81.8603 77.0279 81.9008C76.6234 81.9412 76.2728 81.9898 75.956 82.0437C75.6378 82.0976 75.4126 82.1408 75.2764 82.1651V100.216H71.4539V79.4548ZM97.56 78.8373H105.661V82.0437H97.56V91.9138C97.56 92.979 97.6436 93.8689 97.8094 94.5633C97.9712 95.2645 98.2193 95.8146 98.5483 96.211C98.8773 96.6048 99.2899 96.8852 99.7807 97.0538C100.274 97.2183 100.85 97.2992 101.507 97.2992C102.684 97.2992 103.615 97.1684 104.304 96.9081C104.988 96.6466 105.454 96.4632 105.7 96.3513L106.522 99.4795C106.139 99.671 105.46 99.9164 104.486 100.217C103.516 100.52 102.413 100.673 101.179 100.673C99.7254 100.673 98.5254 100.488 97.5789 100.116C96.6351 99.7438 95.8746 99.1909 95.3002 98.4507C94.7231 97.7118 94.3186 96.8003 94.0867 95.7175C93.8521 94.6321 93.7362 93.3795 93.7362 91.9556V72.8748L97.5573 72.2141V78.84H97.56V78.8373ZM126.465 99.6008C125.585 99.8193 124.429 100.055 122.987 100.299C121.549 100.547 119.885 100.671 117.998 100.671C116.35 100.671 114.968 100.431 113.845 99.9514C112.716 99.4727 111.813 98.7945 111.129 97.9154C110.442 97.0389 109.952 96.0034 109.646 94.8141C109.35 93.6181 109.195 92.2981 109.195 90.8432V78.84H113.024V90.022C113.024 92.6284 113.434 94.4932 114.255 95.6151C115.077 96.7396 116.462 97.3005 118.408 97.3005C118.819 97.3005 119.244 97.287 119.683 97.2574C120.117 97.2304 120.53 97.1967 120.914 97.1562C121.297 97.1158 121.65 97.0753 121.962 97.0349C122.277 96.9904 122.505 96.9459 122.643 96.8866V78.84H126.468V99.6049H126.465V99.6008Z" fill="#666666"/>
</g>
</g>
<defs>
<clipPath id="clip0_1919_2485">
<rect width="150" height="178" fill="white"/>
</clipPath>
<clipPath id="clip1_1919_2485">
<rect width="144.45" height="43.2" fill="white" transform="translate(3 67)"/>
</clipPath>
</defs>
</svg>
