<svg width="150" height="178" viewBox="0 0 150 178" fill="none" xmlns="http://www.w3.org/2000/svg">
<rect width="150" height="178" fill="white"/>
<path d="M90.1994 89.1367L108.137 58.233L116.805 89.1367L108.137 120.033L90.1994 89.1367ZM81.4568 94.1554L99.3968 125.054L68.1529 117.068L45.5813 94.1554H81.4568ZM99.3929 53.2104L81.4568 84.1141H45.5813L68.1529 61.1999L99.3929 53.2104ZM125 78.6195L114.057 38L73.2115 48.886L67.1652 59.4921L54.8963 59.4044L25 89.1394L54.8963 118.867H54.8975L67.1613 118.777L73.2162 129.383L114.057 140.267L125 99.6555L118.785 89.1371L125 78.6203L125 78.6195Z" fill="#666666"/>
</svg>
