<svg width="150" height="178" viewBox="0 0 150 178" fill="none" xmlns="http://www.w3.org/2000/svg">
<rect width="150" height="178" fill="white"/>
<path d="M82.0203 80.3171H77.8327V90.0717C77.8327 92.5823 76.808 94.5769 73.8029 94.5769C70.8272 94.6067 69.97 92.5525 69.97 89.9427V80.3171H65.7726V91.0144C65.7726 94.1006 66.8565 98.5165 72.6205 98.5462C75.7833 98.576 77.3499 97.028 78.0889 95.6486V98.0004H82.0203V80.3171ZM83.6854 98.0004H87.873V88.2458C87.873 85.765 88.8977 83.7704 91.8733 83.7406C94.8194 83.7406 95.6766 85.765 95.6766 88.4145V98.0004H99.8641V87.3428C99.8641 84.217 98.7803 79.811 93.0557 79.7713C89.9224 79.7415 88.3558 81.2797 87.5872 82.6689C87.6168 81.8354 87.6168 81.0911 87.6168 80.3171H83.6854V98.0004ZM101.47 98.0004H105.658V80.3171H101.47V98.0004ZM101.47 77.9355H105.658V74.1646H101.47V77.9355ZM110.042 98.0004H114.23V83.5719H117.235L115.994 80.3171H114.23V74.1646H110.042V80.3171H107.136V83.5719H110.042V98.0004ZM121.285 104.183H125.758L135 80.3171H130.527L126.31 92.0762L122.024 80.3171H117.55L124.172 97.3257L121.285 104.183ZM42.8052 89L50.4512 75.7027L54.1461 89L50.4512 102.297L42.8052 89ZM39.0808 91.1534L46.7267 104.451L33.4055 101.017L23.779 91.1534H39.0808ZM46.7267 73.5395L39.0808 86.8367H23.779L33.4055 76.9729L46.7267 73.5395ZM57.6439 84.475L52.9736 67L35.5633 71.6838L32.9818 76.2485L27.7498 76.2088L15 89L27.7498 101.791L32.9818 101.751L35.5633 106.316L52.9736 111L57.6439 93.525L54.9934 89L57.6439 84.475Z" fill="#222C37"/>
</svg>
