<?xml version="1.0" encoding="UTF-8"?>
<svg xmlns="http://www.w3.org/2000/svg" xmlns:xlink="http://www.w3.org/1999/xlink" xmlns:svgjs="http://svgjs.com/svgjs" version="1.1" width="512" height="512" x="0" y="0" viewBox="0 0 512 512" style="enable-background:new 0 0 512 512" xml:space="preserve" class="">
  <g>
    <g>
      <path d="m256.223 203.347c-29.032 0-52.652 23.62-52.652 52.653 0 6.211 1.073 12.296 3.191 18.086 1.426 3.898 5.739 5.902 9.639 4.477 3.897-1.426 5.902-5.741 4.477-9.64-1.511-4.131-2.277-8.479-2.277-12.924 0-20.745 16.877-37.623 37.622-37.623s37.622 16.878 37.622 37.623-16.877 37.623-37.622 37.623c-6.851 0-13.553-1.857-19.384-5.371-3.552-2.139-8.173-.996-10.315 2.558-2.142 3.555-.997 8.174 2.558 10.316 8.173 4.925 17.557 7.528 27.142 7.528 29.032 0 52.652-23.62 52.652-52.653-.002-29.033-23.621-52.653-52.653-52.653z" fill="#2ba84a" data-original="#000000" class=""/>
      <path d="m364.301 234.846-13.935-2.095c-2.331-9.497-6.063-18.501-11.139-26.878l8.377-11.34c4.248-5.753 3.662-13.599-1.394-18.655l-9.867-9.868c-5.057-5.056-12.901-5.641-18.654-1.394l-11.34 8.376c-8.376-5.077-17.38-8.809-26.877-11.14l-2.094-13.935c-1.064-7.072-7.026-12.204-14.177-12.204h-13.954c-7.151 0-13.113 5.133-14.177 12.204l-2.095 13.935c-9.496 2.331-18.499 6.062-26.877 11.14l-11.34-8.377c-5.751-4.248-13.596-3.661-18.653 1.395l-9.865 9.867c-5.059 5.057-5.646 12.903-1.395 18.657l8.375 11.339c-5.077 8.376-8.809 17.381-11.138 26.878l-13.933 2.095c-7.073 1.062-12.206 7.024-12.206 14.177v13.954c0 7.153 5.133 13.115 12.204 14.177l13.935 2.095c2.33 9.497 6.062 18.501 11.138 26.878l-8.375 11.339c-4.251 5.754-3.664 13.6 1.393 18.656l9.867 9.868c5.058 5.056 12.903 5.642 18.654 1.393l11.339-8.376c8.378 5.078 17.38 8.809 26.877 11.14l2.095 13.935c1.064 7.072 7.026 12.204 14.177 12.204h13.953c7.151 0 13.113-5.133 14.177-12.205l2.094-13.934c9.497-2.331 18.501-6.063 26.877-11.14l11.341 8.377c5.751 4.248 13.597 3.661 18.653-1.394l9.867-9.868c5.056-5.056 5.642-12.902 1.393-18.656l-8.376-11.339c5.077-8.376 8.809-17.381 11.139-26.878l13.933-2.095c7.073-1.062 12.206-7.024 12.206-14.177v-13.954c.001-7.152-5.131-13.115-12.203-14.177zm-2.826 27.533-18.472 2.777c-3.164.475-5.679 2.902-6.268 6.046-2.094 11.158-6.412 21.581-12.837 30.976-1.805 2.64-1.742 6.134.16 8.707l11.102 15.03-9.023 9.022-15.03-11.103c-2.573-1.9-6.066-1.962-8.707-.159-9.395 6.425-19.817 10.743-30.975 12.837-3.144.59-5.571 3.106-6.046 6.27l-2.776 18.472h-12.759l-2.777-18.473c-.475-3.164-2.902-5.68-6.046-6.269-11.157-2.093-21.578-6.412-30.975-12.837-2.641-1.806-6.134-1.744-8.707.16l-15.029 11.102-9.023-9.022 11.102-15.03c1.901-2.573 1.965-6.067.159-8.707-6.425-9.396-10.743-19.817-12.836-30.975-.589-3.145-3.105-5.572-6.268-6.047l-18.472-2.777v-12.758l18.472-2.777c3.164-.476 5.679-2.902 6.268-6.047 2.093-11.157 6.411-21.579 12.836-30.975 1.806-2.64 1.743-6.134-.159-8.707l-11.102-15.03 9.023-9.022 15.029 11.102c2.573 1.902 6.066 1.963 8.707.16 9.397-6.425 19.818-10.744 30.975-12.838 3.144-.589 5.571-3.105 6.046-6.269l2.777-18.473h12.759l2.776 18.472c.476 3.164 2.902 5.679 6.046 6.27 11.158 2.094 21.58 6.412 30.975 12.838 2.64 1.805 6.133 1.743 8.707-.159l15.03-11.103 9.023 9.022-11.102 15.03c-1.901 2.573-1.965 6.067-.16 8.707 6.425 9.395 10.743 19.817 12.837 30.976.589 3.144 3.105 5.571 6.268 6.046l18.472 2.777z" fill="#2ba84a" data-original="#000000" class=""/>
      <path d="m511.4 253.29c-1.179-2.773-3.901-4.574-6.915-4.574h-12.907c-1.722-56.2-23.348-109.694-61.335-151.343-38.762-42.498-91.297-69.205-148.177-75.42l-20.631-19.869c-4.477-4.615-12.943-1.014-12.727 5.413v13.145c-46.148 1.442-90.265 16.159-128.02 42.78-3.392 2.391-4.203 7.081-1.811 10.473s7.08 4.204 10.473 1.811c37.253-26.267 81.125-40.152 126.874-40.152 4.151 0 7.515-3.364 7.515-7.515v-2.872l39.322 37.87-39.324 31.773v-7.403c0-4.151-3.364-7.515-7.515-7.515-42.272 0-83.143 15.204-115.086 42.809-27.467 23.737-46.857 55.286-55.657 90.091l-16.105-19.934c-2.682-3.478-8.287-3.72-11.259-.489l-17.649 18.328c9.33-44.598 32.364-85.407 66.275-116.713 3.05-2.815 3.24-7.57.425-10.619-2.814-3.049-7.57-3.239-10.619-.425-41.733 38.526-68.047 90.533-74.312 146.689l-20.152 20.926c-4.613 4.481-1.014 12.942 5.413 12.728h13.37c1.72 56.109 23.286 109.538 61.167 151.16 38.65 42.469 91.063 69.223 147.829 75.552l20.684 19.92c4.503 4.618 12.935 1.009 12.727-5.413v-13.13c47.009-1.376 91.848-16.494 130.082-43.933 3.372-2.42 4.144-7.116 1.724-10.488-2.422-3.372-7.116-4.14-10.488-1.724-37.572 26.965-81.962 41.217-128.459 41.215l-.375-.004c-4.151 0-7.515 3.364-7.515 7.515v2.878l-39.322-37.87 39.322-31.772v7.397c0 4.132 3.336 7.489 7.467 7.515l.512.006c42.182 0 82.989-15.148 114.901-42.652 27.439-23.649 46.856-55.102 55.729-89.815l15.754 19.5c2.683 3.476 8.28 3.724 11.259.489l18.233-18.934c-9.124 44.199-31.722 84.77-65.026 116.042-3.026 2.842-3.175 7.597-.335 10.623 2.846 3.03 7.602 3.172 10.623.335 41.009-38.508 66.823-90.221 72.905-145.865l19.633-20.388c2.091-2.168 2.683-5.378 1.503-8.152zm-318.549 189.332c-3.478 2.682-3.722 8.286-.489 11.259l18.573 17.887c-45.135-9.431-86.327-32.875-117.787-67.442-36.992-40.646-57.363-93.323-57.363-148.3l.003-.258c0-4.151-3.364-7.515-7.515-7.515h-3.107l37.868-39.324 31.771 39.324h-7.168c-4.151 0-7.515 3.338-7.515 7.489l-.002.258c0 42.193 15.152 83.007 42.666 114.923 23.657 27.443 55.118 46.858 89.839 55.723zm168.461-64.552c-27.404 23.619-61.98 37.275-98.039 38.853v-15.467c.2-6.127-7.598-9.85-12.238-5.846l-23.42 18.923c-36.188-6.492-69.266-25.376-93.445-53.425-23.58-27.354-37.233-61.857-38.857-97.826h15.226c6.127.201 9.85-7.6 5.846-12.239l-18.77-23.232c6.41-36.288 25.267-69.471 53.348-93.739 27.316-23.607 61.774-37.298 97.744-38.976v15.446c-.201 6.126 7.6 9.851 12.238 5.846l23.508-18.994c36.275 6.418 69.447 25.28 93.706 53.358 23.655 27.38 37.348 61.93 38.973 97.964h-15.69c-6.127-.201-9.85 7.6-5.846 12.239l19.147 23.698c-6.501 36.179-25.387 69.247-53.431 93.417zm87.635-74.999-31.771-39.324h7.632c4.151 0 7.515-3.338 7.515-7.489l.003-.258c0-42.264-15.197-83.132-42.793-115.073-23.728-27.464-55.266-46.859-90.061-55.666l19.658-15.884c3.478-2.682 3.722-8.286.489-11.259l-18.693-18.002c45.285 9.333 86.63 32.759 118.212 67.386 37.093 40.67 57.522 93.407 57.522 148.471l-.003.258c0 4.151 3.364 7.515 7.515 7.515h2.643z" fill="#2ba84a" data-original="#000000" class=""/>
    </g>
  </g>
</svg>
