<svg width="512" height="512" viewBox="0 0 512 512" fill="none" xmlns="http://www.w3.org/2000/svg">
<g clip-path="url(#clip0_1913_2487)">
<path d="M256.001 156.872C278.256 156.872 296.362 138.766 296.362 116.511C296.362 113.094 295.933 109.698 295.087 106.415C293.974 102.096 289.571 99.4965 285.251 100.609C280.931 101.723 278.331 106.126 279.445 110.445C279.952 112.413 280.209 114.453 280.209 116.511C280.209 129.859 269.349 140.719 256.001 140.719C242.652 140.719 231.793 129.859 231.793 116.511C231.793 103.162 242.652 92.3024 256.001 92.3024C258.069 92.3024 260.12 92.5618 262.095 93.0737C266.411 94.1902 270.82 91.5997 271.94 87.2818C273.058 82.9639 270.466 78.5562 266.148 77.4376C262.85 76.5825 259.436 76.1494 256.002 76.1494C233.747 76.1494 215.641 94.2548 215.641 116.511C215.641 138.766 233.746 156.872 256.001 156.872Z" fill="#50514F"/>
<path d="M198.925 173.585C200.502 175.162 202.568 175.95 204.636 175.95C206.704 175.95 208.77 175.162 210.347 173.585C213.502 170.431 213.502 165.318 210.347 162.164C198.153 149.969 191.437 133.756 191.437 116.511C191.437 99.2652 198.153 83.0517 210.347 70.8572C213.502 67.7034 213.502 62.59 210.347 59.4361C207.194 56.2812 202.081 56.2822 198.926 59.4361C183.681 74.6814 175.285 94.9504 175.285 116.511C175.283 138.07 183.68 158.34 198.925 173.585Z" fill="#50514F"/>
<path d="M301.653 173.587C303.23 175.163 305.297 175.952 307.364 175.952C309.432 175.952 311.498 175.163 313.075 173.587C344.546 142.116 344.546 90.9076 313.075 59.4377C309.921 56.2838 304.808 56.2838 301.654 59.4377C298.499 62.5915 298.499 67.7049 301.654 70.8588C326.828 96.0322 326.828 136.991 301.654 162.164C298.498 165.319 298.498 170.433 301.653 173.587Z" fill="#50514F"/>
<path d="M170.39 202.122C171.967 203.7 174.033 204.487 176.101 204.487C178.168 204.487 180.235 203.699 181.812 202.122C184.967 198.968 184.967 193.854 181.812 190.701C140.905 149.792 140.905 83.231 181.812 42.3237C184.967 39.1698 184.967 34.0564 181.812 30.9025C178.658 27.7486 173.545 27.7486 170.391 30.9025C123.185 78.1075 123.185 154.916 170.39 202.122Z" fill="#50514F"/>
<path d="M330.188 190.7C327.034 193.854 327.034 198.967 330.188 202.121C331.765 203.698 333.832 204.486 335.899 204.486C337.967 204.486 340.034 203.698 341.611 202.121C388.817 154.915 388.817 78.1065 341.611 30.9006C338.457 27.7467 333.343 27.7467 330.189 30.9006C327.035 34.0544 327.035 39.1678 330.189 42.3217C371.096 83.2301 371.096 149.791 330.188 190.7Z" fill="#50514F"/>
<path d="M147.565 233.022C149.632 233.022 151.7 232.234 153.277 230.657C156.431 227.503 156.431 222.39 153.277 219.236C96.6352 162.593 96.6352 70.4308 153.277 13.7885C156.431 10.6346 156.431 5.52121 153.277 2.36735C150.123 -0.786513 145.009 -0.786513 141.855 2.36735C78.9154 65.3073 78.9154 167.718 141.855 230.658C143.431 232.233 145.498 233.022 147.565 233.022Z" fill="#50514F"/>
<path d="M358.724 219.235C355.569 222.389 355.569 227.502 358.724 230.656C360.301 232.233 362.367 233.021 364.435 233.021C366.502 233.021 368.569 232.233 370.146 230.656C433.086 167.716 433.086 65.3054 370.146 2.3654C366.992 -0.788466 361.878 -0.788466 358.725 2.3654C355.57 5.51926 355.57 10.6327 358.725 13.7865C415.365 70.4289 415.365 162.593 358.724 219.235Z" fill="#50514F"/>
<path d="M400.38 507.633C400.467 507.465 400.54 507.294 400.614 507.123C400.642 507.056 400.677 506.992 400.703 506.925C400.773 506.752 400.829 506.577 400.886 506.4C400.909 506.327 400.937 506.257 400.958 506.183C401.004 506.025 401.039 505.867 401.074 505.707C401.097 505.608 401.124 505.51 401.143 505.411C401.167 505.28 401.181 505.15 401.2 505.02C401.218 504.888 401.239 504.755 401.251 504.622C401.26 504.522 401.26 504.422 401.265 504.322C401.273 504.158 401.283 503.994 401.281 503.83C401.28 503.754 401.273 503.679 401.27 503.603C401.263 503.418 401.255 503.232 401.235 503.046C401.227 502.974 401.213 502.904 401.203 502.832C401.177 502.647 401.152 502.463 401.114 502.278C401.084 502.137 401.043 501.997 401.006 501.857C400.976 501.746 400.954 501.635 400.92 501.525C400.838 501.262 400.743 501.003 400.634 500.748L263.433 177.921C263.397 177.835 263.351 177.755 263.312 177.671C263.248 177.536 263.187 177.401 263.116 177.268C263.054 177.153 262.988 177.044 262.921 176.934C262.853 176.819 262.785 176.704 262.71 176.593C262.635 176.479 262.553 176.37 262.472 176.261C262.396 176.159 262.322 176.058 262.242 175.96C262.155 175.854 262.063 175.752 261.971 175.651C261.885 175.557 261.801 175.463 261.711 175.372C261.616 175.278 261.517 175.188 261.418 175.099C261.322 175.011 261.225 174.924 261.124 174.841C261.021 174.757 260.914 174.678 260.807 174.598C260.703 174.521 260.6 174.444 260.492 174.371C260.375 174.292 260.254 174.222 260.133 174.149C260.028 174.086 259.924 174.023 259.816 173.964C259.679 173.89 259.538 173.826 259.397 173.76C259.316 173.723 259.24 173.679 259.159 173.644C259.137 173.635 259.114 173.629 259.093 173.62C258.946 173.558 258.794 173.508 258.643 173.455C258.54 173.42 258.438 173.379 258.334 173.347C258.193 173.305 258.051 173.274 257.909 173.239C257.793 173.211 257.677 173.177 257.56 173.153C257.428 173.127 257.294 173.112 257.161 173.093C257.034 173.075 256.909 173.05 256.783 173.038C256.636 173.023 256.486 173.022 256.337 173.015C256.226 173.01 256.115 173 256.004 173C255.823 173 255.642 173.013 255.462 173.025C255.383 173.03 255.304 173.029 255.225 173.037C255.053 173.055 254.88 173.085 254.707 173.112C254.621 173.126 254.534 173.134 254.447 173.151C254.305 173.18 254.163 173.219 254.022 173.255C253.906 173.285 253.788 173.31 253.673 173.345C253.555 173.381 253.437 173.427 253.32 173.468C253.184 173.517 253.047 173.562 252.913 173.618C252.889 173.628 252.865 173.634 252.841 173.644C252.751 173.682 252.667 173.73 252.579 173.771C252.448 173.833 252.318 173.892 252.19 173.96C252.073 174.023 251.961 174.091 251.849 174.159C251.736 174.227 251.623 174.293 251.513 174.366C251.399 174.443 251.289 174.523 251.18 174.605C251.078 174.681 250.977 174.756 250.879 174.835C250.774 174.922 250.673 175.013 250.573 175.104C250.478 175.19 250.384 175.277 250.292 175.367C250.199 175.46 250.11 175.557 250.022 175.655C249.933 175.753 249.844 175.851 249.76 175.954C249.677 176.055 249.6 176.159 249.523 176.263C249.444 176.37 249.365 176.476 249.29 176.588C249.214 176.701 249.146 176.818 249.075 176.935C249.011 177.044 248.944 177.151 248.884 177.264C248.814 177.397 248.751 177.534 248.687 177.67C248.648 177.754 248.604 177.833 248.567 177.919L111.364 500.75C111.256 501.005 111.16 501.264 111.078 501.527C111.044 501.637 111.022 501.748 110.993 501.859C110.956 501.999 110.914 502.139 110.885 502.28C110.846 502.465 110.821 502.648 110.796 502.834C110.786 502.906 110.772 502.976 110.763 503.048C110.743 503.235 110.735 503.42 110.728 503.605C110.725 503.681 110.718 503.756 110.717 503.832C110.715 503.996 110.725 504.16 110.733 504.324C110.738 504.424 110.738 504.524 110.747 504.624C110.759 504.757 110.781 504.89 110.799 505.022C110.817 505.152 110.831 505.282 110.855 505.413C110.875 505.512 110.901 505.61 110.924 505.709C110.96 505.868 110.995 506.027 111.04 506.185C111.061 506.259 111.09 506.329 111.113 506.402C111.169 506.578 111.227 506.754 111.296 506.927C111.323 506.994 111.356 507.058 111.384 507.125C111.458 507.296 111.532 507.468 111.619 507.635C111.683 507.76 111.758 507.878 111.829 508C111.889 508.103 111.943 508.207 112.007 508.308C112.311 508.779 112.67 509.219 113.07 509.621C113.132 509.683 113.197 509.739 113.259 509.798C113.403 509.934 113.551 510.067 113.706 510.193C113.797 510.266 113.89 510.335 113.983 510.405C114.114 510.502 114.247 510.596 114.386 510.685C114.5 510.759 114.615 510.831 114.731 510.9C114.855 510.971 114.981 511.039 115.111 511.104C115.242 511.171 115.373 511.238 115.506 511.297C115.549 511.316 115.588 511.34 115.632 511.358C115.722 511.396 115.815 511.423 115.906 511.459C116.035 511.508 116.164 511.559 116.296 511.602C116.463 511.657 116.631 511.7 116.8 511.743C116.901 511.769 117 511.799 117.102 511.82C117.328 511.869 117.555 511.904 117.783 511.933C117.832 511.939 117.881 511.95 117.93 511.955C118.216 511.986 118.503 512.004 118.787 512.004C118.8 512.004 118.811 512.002 118.823 512.002C119.169 512.001 119.515 511.972 119.86 511.926C119.908 511.92 119.958 511.916 120.006 511.908C120.348 511.857 120.687 511.78 121.024 511.683C121.069 511.67 121.114 511.657 121.158 511.643C121.494 511.54 121.826 511.416 122.15 511.268C122.178 511.256 122.204 511.241 122.231 511.228C122.536 511.084 122.834 510.921 123.123 510.736C123.155 510.716 123.188 510.698 123.219 510.677C123.429 510.539 123.635 510.393 123.835 510.232L255.998 404.502L388.16 510.232C388.36 510.393 388.567 510.54 388.777 510.678C388.807 510.699 388.84 510.716 388.871 510.735C389.163 510.921 389.462 511.085 389.769 511.231C389.795 511.243 389.819 511.256 389.844 511.268C390.17 511.417 390.503 511.541 390.841 511.645C390.884 511.658 390.927 511.671 390.971 511.684C391.307 511.781 391.647 511.858 391.99 511.909C392.038 511.916 392.086 511.92 392.135 511.927C392.48 511.973 392.826 512.002 393.173 512.003C393.185 512.003 393.196 512.005 393.208 512.005C393.493 512.005 393.778 511.987 394.064 511.957C394.116 511.951 394.167 511.939 394.218 511.933C394.443 511.905 394.668 511.87 394.891 511.822C394.996 511.8 395.099 511.77 395.203 511.742C395.367 511.7 395.532 511.658 395.695 511.604C395.829 511.562 395.959 511.51 396.09 511.46C396.181 511.425 396.273 511.398 396.363 511.36C396.406 511.342 396.446 511.318 396.488 511.299C396.622 511.24 396.752 511.174 396.884 511.106C397.012 511.041 397.139 510.973 397.263 510.902C397.38 510.834 397.494 510.762 397.609 510.687C397.747 510.598 397.88 510.504 398.011 510.407C398.104 510.337 398.197 510.269 398.288 510.195C398.443 510.069 398.591 509.936 398.735 509.8C398.798 509.741 398.862 509.685 398.924 509.623C399.325 509.221 399.683 508.781 399.987 508.31C400.052 508.21 400.106 508.105 400.166 508.002C400.241 507.877 400.315 507.758 400.38 507.633ZM198.249 337.612L256 201.728L313.751 337.612L275.168 368.478C271.685 371.264 271.121 376.346 273.906 379.83C275.501 381.824 277.849 382.862 280.218 382.862C281.987 382.862 283.77 382.283 285.259 381.092L320.312 353.05L373.251 477.614L198.249 337.612ZM138.748 477.612L191.688 353.048L243.07 394.154L138.748 477.612Z" fill="#50514F"/>
</g>
<defs>
<clipPath id="clip0_1913_2487">
<rect width="512" height="512" fill="white"/>
</clipPath>
</defs>
</svg>
