<svg width="512" height="512" viewBox="0 0 512 512" fill="none" xmlns="http://www.w3.org/2000/svg">
<g clip-path="url(#clip0_578_62)">
<mask id="mask0_578_62" style="mask-type:luminance" maskUnits="userSpaceOnUse" x="0" y="0" width="512" height="512">
<path d="M512 0H0V512H512V0Z" fill="white"/>
</mask>
<g mask="url(#mask0_578_62)">
<path d="M88 502C131.078 502 166 467.078 166 424C166 380.922 131.078 346 88 346C44.9218 346 10 380.922 10 424C10 467.078 44.9218 502 88 502Z" stroke="#EFEFEF" stroke-width="20"/>
<path d="M88 458C106.778 458 122 442.778 122 424C122 405.222 106.778 390 88 390C69.2223 390 54 405.222 54 424C54 442.778 69.2223 458 88 458Z" stroke="#EFEFEF" stroke-width="20"/>
<path d="M424 502C467.078 502 502 467.078 502 424C502 380.922 467.078 346 424 346C380.922 346 346 380.922 346 424C346 467.078 380.922 502 424 502Z" stroke="#EFEFEF" stroke-width="20"/>
<path d="M424 458C442.778 458 458 442.778 458 424C458 405.222 442.778 390 424 390C405.222 390 390 405.222 390 424C390 442.778 405.222 458 424 458Z" stroke="#EFEFEF" stroke-width="20"/>
<path d="M174 414H338" stroke="#EFEFEF" stroke-width="20"/>
<mask id="mask1_578_62" style="mask-type:luminance" maskUnits="userSpaceOnUse" x="44" y="188" width="424" height="160">
<path d="M44 218C44 201.431 57.4315 188 74 188H438C454.569 188 468 201.431 468 218V348H44V218Z" fill="white"/>
</mask>
<g mask="url(#mask1_578_62)">
<path d="M24 218C24 190.386 46.3858 168 74 168H438C465.614 168 488 190.386 488 218H448C448 212.477 443.523 208 438 208H74C68.4772 208 64 212.477 64 218H24ZM24 348V218C24 190.386 46.3858 168 74 168V208C68.4772 208 64 212.477 64 218V348H24ZM438 168C465.614 168 488 190.386 488 218V348H448V218C448 212.477 443.523 208 438 208V168Z" fill="#EFEFEF"/>
</g>
<mask id="mask2_578_62" style="mask-type:luminance" maskUnits="userSpaceOnUse" x="80" y="152" width="352" height="36">
<path d="M80 182C80 165.431 93.4315 152 110 152H402C418.569 152 432 165.431 432 182V188H80V182Z" fill="white"/>
</mask>
<g mask="url(#mask2_578_62)">
<path d="M60 182C60 154.386 82.3858 132 110 132H402C429.614 132 452 154.386 452 182H412C412 176.477 407.523 172 402 172H110C104.477 172 100 176.477 100 182H60ZM60 188V182C60 154.386 82.3858 132 110 132V172C104.477 172 100 176.477 100 182V188H60ZM402 132C429.614 132 452 154.386 452 182V188H412V182C412 176.477 407.523 172 402 172V132Z" fill="#EFEFEF"/>
</g>
<mask id="mask3_578_62" style="mask-type:luminance" maskUnits="userSpaceOnUse" x="128" y="0" width="256" height="152">
<path d="M128 30C128 13.4315 141.431 0 158 0H354C370.569 0 384 13.4315 384 30V152H128V30Z" fill="white"/>
</mask>
<g mask="url(#mask3_578_62)">
<path d="M108 30C108 2.38576 130.386 -20 158 -20H354C381.614 -20 404 2.38576 404 30H364C364 24.4772 359.523 20 354 20H158C152.477 20 148 24.4772 148 30H108ZM108 152V30C108 2.38576 130.386 -20 158 -20V20C152.477 20 148 24.4772 148 30V152H108ZM354 -20C381.614 -20 404 2.38576 404 30V152H364V30C364 24.4772 359.523 20 354 20V-20Z" fill="#EFEFEF"/>
</g>
<mask id="mask4_578_62" style="mask-type:luminance" maskUnits="userSpaceOnUse" x="216" y="20" width="80" height="80">
<path d="M216 20H296V70C296 86.5685 282.569 100 266 100H246C229.431 100 216 86.5685 216 70V20Z" fill="white"/>
</mask>
<g mask="url(#mask4_578_62)">
<path d="M316 70C316 97.6142 293.614 120 266 120H246C218.386 120 196 97.6142 196 70H236C236 75.5228 240.477 80 246 80H266C271.523 80 276 75.5228 276 70H316ZM246 120C218.386 120 196 97.6142 196 70V20H236V70C236 75.5228 240.477 80 246 80V120ZM316 20V70C316 97.6142 293.614 120 266 120V80C271.523 80 276 75.5228 276 70V20H316Z" fill="#EFEFEF"/>
</g>
<path d="M324 263C324 246.431 337.431 233 354 233H452V297H354C337.431 297 324 283.569 324 267V263Z" fill="#EFEFEF"/>
<path d="M88 265C88 256.163 95.1634 249 104 249H264C272.837 249 280 256.163 280 265C280 273.837 272.837 281 264 281H104C95.1634 281 88 273.837 88 265Z" fill="#EFEFEF"/>
</g>
</g>
<defs>
<clipPath id="clip0_578_62">
<rect width="512" height="512" fill="white"/>
</clipPath>
</defs>
</svg>
