<svg width="512" height="512" viewBox="0 0 512 512" fill="none" xmlns="http://www.w3.org/2000/svg">
<g clip-path="url(#clip0_556_746)">
<circle cx="88" cy="424" r="78" stroke="#7C7C7C" stroke-width="20"/>
<circle cx="88" cy="424" r="34" stroke="#7C7C7C" stroke-width="20"/>
<circle cx="424" cy="424" r="78" stroke="#7C7C7C" stroke-width="20"/>
<circle cx="424" cy="424" r="34" stroke="#7C7C7C" stroke-width="20"/>
<line x1="174" y1="414" x2="338" y2="414" stroke="#7C7C7C" stroke-width="20"/>
<mask id="path-6-inside-1_556_746" fill="white">
<path d="M44 218C44 201.431 57.4315 188 74 188H438C454.569 188 468 201.431 468 218V348H44V218Z"/>
</mask>
<path d="M24 218C24 190.386 46.3858 168 74 168H438C465.614 168 488 190.386 488 218H448C448 212.477 443.523 208 438 208H74C68.4772 208 64 212.477 64 218H24ZM468 348H44H468ZM24 348V218C24 190.386 46.3858 168 74 168V208C68.4772 208 64 212.477 64 218V348H24ZM438 168C465.614 168 488 190.386 488 218V348H448V218C448 212.477 443.523 208 438 208V168Z" fill="#7C7C7C" mask="url(#path-6-inside-1_556_746)"/>
<mask id="path-8-inside-2_556_746" fill="white">
<path d="M80 182C80 165.431 93.4315 152 110 152H402C418.569 152 432 165.431 432 182V188H80V182Z"/>
</mask>
<path d="M60 182C60 154.386 82.3858 132 110 132H402C429.614 132 452 154.386 452 182H412C412 176.477 407.523 172 402 172H110C104.477 172 100 176.477 100 182H60ZM432 188H80H432ZM60 188V182C60 154.386 82.3858 132 110 132V172C104.477 172 100 176.477 100 182V188H60ZM402 132C429.614 132 452 154.386 452 182V188H412V182C412 176.477 407.523 172 402 172V132Z" fill="#7C7C7C" mask="url(#path-8-inside-2_556_746)"/>
<mask id="path-10-inside-3_556_746" fill="white">
<path d="M128 30C128 13.4315 141.431 0 158 0H354C370.569 0 384 13.4315 384 30V152H128V30Z"/>
</mask>
<path d="M108 30C108 2.38576 130.386 -20 158 -20H354C381.614 -20 404 2.38576 404 30H364C364 24.4772 359.523 20 354 20H158C152.477 20 148 24.4772 148 30H108ZM384 152H128H384ZM108 152V30C108 2.38576 130.386 -20 158 -20V20C152.477 20 148 24.4772 148 30V152H108ZM354 -20C381.614 -20 404 2.38576 404 30V152H364V30C364 24.4772 359.523 20 354 20V-20Z" fill="#7C7C7C" mask="url(#path-10-inside-3_556_746)"/>
<mask id="path-12-inside-4_556_746" fill="white">
<path d="M216 20H296V70C296 86.5685 282.569 100 266 100H246C229.431 100 216 86.5685 216 70V20Z"/>
</mask>
<path d="M216 20H296H216ZM316 70C316 97.6142 293.614 120 266 120H246C218.386 120 196 97.6142 196 70H236C236 75.5228 240.477 80 246 80H266C271.523 80 276 75.5228 276 70H316ZM246 120C218.386 120 196 97.6142 196 70V20H236V70C236 75.5228 240.477 80 246 80V120ZM316 20V70C316 97.6142 293.614 120 266 120V80C271.523 80 276 75.5228 276 70V20H316Z" fill="#7C7C7C" mask="url(#path-12-inside-4_556_746)"/>
<path d="M324 263C324 246.431 337.431 233 354 233H452V297H354C337.431 297 324 283.569 324 267V263Z" fill="#7C7C7C"/>
<path d="M88 265C88 256.163 95.1634 249 104 249H264C272.837 249 280 256.163 280 265C280 273.837 272.837 281 264 281H104C95.1634 281 88 273.837 88 265Z" fill="#7C7C7C"/>
</g>
<defs>
<clipPath id="clip0_556_746">
<rect width="512" height="512" fill="white"/>
</clipPath>
</defs>
</svg>
