<svg width="512" height="512" viewBox="0 0 512 512" fill="none" xmlns="http://www.w3.org/2000/svg">
<mask id="mask0_1742_2045" style="mask-type:luminance" maskUnits="userSpaceOnUse" x="118" y="64" width="384" height="384">
<path d="M118 64H502V448H118V64Z" fill="white"/>
</mask>
<g mask="url(#mask0_1742_2045)">
<path d="M463.418 349.573V347.387V274.043C463.418 264.39 456.734 256.025 447.324 253.885C433.55 250.758 418.414 247.804 402.026 245.339H402.011" stroke="#50514F" stroke-width="15" stroke-miterlimit="10" stroke-linecap="round" stroke-linejoin="round"/>
<path d="M217.971 245.197C201.206 247.691 185.737 250.698 171.716 253.885C162.298 256.025 155.614 264.383 155.614 274.043V305.098V349.882" stroke="#50514F" stroke-width="15" stroke-miterlimit="10" stroke-linecap="round" stroke-linejoin="round"/>
<path d="M402.312 399.752H217.685" stroke="#50514F" stroke-width="15" stroke-miterlimit="10" stroke-linecap="round" stroke-linejoin="round"/>
<path d="M181.2 305.099H223.029C230.076 305.099 236.835 307.899 241.819 312.883L268.533 339.602C273.517 344.586 280.276 347.386 287.324 347.386H463.42" stroke="#50514F" stroke-width="15" stroke-miterlimit="10" stroke-linecap="round" stroke-linejoin="round"/>
<path d="M217.973 394.567C217.973 420.623 196.852 441.747 170.799 441.747C144.746 441.747 123.625 420.623 123.625 394.567C123.625 368.51 144.746 347.387 170.799 347.387C196.852 347.387 217.973 368.51 217.973 394.567Z" stroke="#50514F" stroke-width="15" stroke-miterlimit="10" stroke-linecap="round" stroke-linejoin="round"/>
<path d="M188.233 394.567C188.233 404.305 180.339 412.2 170.602 412.2C160.865 412.2 152.971 404.305 152.971 394.567C152.971 384.828 160.865 376.933 170.602 376.933C180.339 376.933 188.233 384.828 188.233 394.567Z" stroke="#50514F" stroke-width="15" stroke-miterlimit="10" stroke-linecap="round" stroke-linejoin="round"/>
<path d="M496.375 394.567C496.375 420.623 475.254 441.747 449.202 441.747C423.148 441.747 402.027 420.623 402.027 394.567C402.027 368.51 423.148 347.387 449.202 347.387C475.254 347.387 496.375 368.51 496.375 394.567Z" stroke="#50514F" stroke-width="15" stroke-miterlimit="10" stroke-linecap="round" stroke-linejoin="round"/>
<path d="M466.635 394.567C466.635 404.305 458.741 412.2 449.004 412.2C439.267 412.2 431.373 404.305 431.373 394.567C431.373 384.828 439.267 376.933 449.004 376.933C458.741 376.933 466.635 384.828 466.635 394.567Z" stroke="#50514F" stroke-width="15" stroke-miterlimit="10" stroke-linecap="round" stroke-linejoin="round"/>
<path d="M368.099 223.709H395.305C399.018 223.709 402.028 226.72 402.028 230.433V245.34H217.973V230.433C217.973 226.72 220.983 223.709 224.695 223.709H340.681" stroke="#50514F" stroke-width="15" stroke-miterlimit="10" stroke-linecap="round" stroke-linejoin="round"/>
<path d="M238.179 223.572C235.335 223.572 233.029 221.266 233.029 218.422V75.4035C233.029 72.5588 235.335 70.2533 238.179 70.2533H381.822C384.666 70.2533 386.972 72.5588 386.972 75.4035V218.422C386.972 221.266 384.666 223.572 381.822 223.572" stroke="#50514F" stroke-width="15" stroke-miterlimit="10" stroke-linecap="round" stroke-linejoin="round"/>
<path d="M329.791 131.133L310 118.84L290.209 131.133C289.485 131.582 288.561 131.049 288.561 130.183V70.253H331.44V130.183C331.44 131.049 330.514 131.582 329.791 131.133Z" stroke="#50514F" stroke-width="15" stroke-miterlimit="10" stroke-linecap="round" stroke-linejoin="round"/>
<path d="M277.405 173.272L264.528 160.393L251.649 173.272" stroke="#50514F" stroke-width="15" stroke-miterlimit="10" stroke-linecap="round" stroke-linejoin="round"/>
<path d="M264.527 189.019V160.393" stroke="#50514F" stroke-width="15" stroke-miterlimit="10" stroke-linecap="round" stroke-linejoin="round"/>
<path d="M251.649 205.616H277.405" stroke="#50514F" stroke-width="15" stroke-miterlimit="10" stroke-linecap="round" stroke-linejoin="round"/>
<path d="M462.048 326.243C446.845 326.243 434.521 313.917 434.521 298.712C434.521 283.507 446.845 271.181 462.048 271.181" stroke="#50514F" stroke-width="15" stroke-miterlimit="10" stroke-linecap="round" stroke-linejoin="round"/>
<path d="M413.33 298.712C413.33 301.833 410.799 304.364 407.678 304.364C404.558 304.364 402.028 301.833 402.028 298.712C402.028 295.59 404.558 293.061 407.678 293.061C410.799 293.061 413.33 295.59 413.33 298.712Z" fill="#50514F"/>
<path d="M385.678 298.712C385.678 301.833 383.148 304.364 380.027 304.364C376.906 304.364 374.376 301.833 374.376 298.712C374.376 295.59 376.906 293.061 380.027 293.061C383.148 293.061 385.678 295.59 385.678 298.712Z" fill="#50514F"/>
<path d="M188.233 278.613C188.233 281.733 185.703 284.264 182.582 284.264C179.461 284.264 176.931 281.733 176.931 278.613C176.931 275.491 179.461 272.961 182.582 272.961C185.703 272.961 188.233 275.491 188.233 278.613Z" fill="#50514F"/>
</g>
<path fill-rule="evenodd" clip-rule="evenodd" d="M62.6725 128.828C64.5367 129.764 65.9535 131.4 66.6123 133.378C67.2711 135.357 67.1181 137.515 66.1869 139.381L20.6891 230.369L66.2027 321.342C66.6758 322.268 66.9609 323.278 67.0415 324.314C67.1222 325.35 66.9968 326.392 66.6727 327.38C66.3486 328.367 65.832 329.281 65.1529 330.068C64.4738 330.855 63.6455 331.5 62.7157 331.965C61.786 332.431 60.7733 332.708 59.7359 332.781C58.6985 332.853 57.657 332.72 56.6714 332.388C55.6859 332.057 54.7757 331.534 53.9935 330.849C53.2112 330.164 52.5723 329.331 52.1136 328.398L4.83499 233.897C4.28591 232.802 4 231.594 4 230.369C4 229.145 4.28591 227.937 4.83499 226.841L52.1136 132.34C53.05 130.477 54.6873 129.061 56.6666 128.403C58.646 127.745 60.8058 127.897 62.6725 128.828Z" fill="#50514F"/>
</svg>
