<?xml version="1.0" encoding="UTF-8"?>
<svg xmlns="http://www.w3.org/2000/svg" xmlns:xlink="http://www.w3.org/1999/xlink" xmlns:svgjs="http://svgjs.com/svgjs" version="1.1" width="512" height="512" x="0" y="0" viewBox="0 0 511.997 511.997" style="enable-background:new 0 0 512 512" xml:space="preserve" class="">
  <g>
    <g>
      <g>
        <path d="m341.052 213.808c8.531-8.444 13.826-20.15 13.826-33.073 0-25.668-20.887-46.55-46.56-46.55-19.783 0-37.317 12.541-43.864 30.918-2.744-.506-5.567-.784-8.456-.784s-5.711.278-8.456.784c-6.547-18.378-24.082-30.918-43.864-30.918-25.673 0-46.56 20.882-46.56 46.55 0 12.923 5.296 24.629 13.827 33.073-20.464 11.657-33.638 33.731-33.638 57.738 0 4.143 3.358 7.5 7.5 7.5s7.5-3.357 7.5-7.5c0-21.203 13.275-40.457 33.061-48.008 5.624 2.415 11.813 3.757 18.311 3.757 2.862 0 5.696-.276 8.47-.788 2.371 6.631 6.201 12.571 11.107 17.431-20.65 11.692-33.627 33.603-33.627 57.745 0 4.143 3.358 7.5 7.5 7.5s7.5-3.357 7.5-7.5c0-20.693 12.316-39.274 31.376-47.336.51-.216.981-.485 1.415-.792 5.695 2.489 11.976 3.879 18.578 3.879 6.5 0 12.69-1.343 18.314-3.759 19.777 7.551 33.055 26.825 33.055 48.008 0 4.143 3.358 7.5 7.5 7.5s7.5-3.357 7.5-7.5c0-23.985-13.177-46.077-33.635-57.738 4.91-4.861 8.743-10.804 11.115-17.438 2.775.512 5.608.788 8.47.788 6.498 0 12.687-1.342 18.31-3.757 19.786 7.551 33.061 26.803 33.061 48.008 0 4.143 3.358 7.5 7.5 7.5s7.5-3.357 7.5-7.5c.002-24.008-13.172-46.081-33.636-57.738zm-131.61-2.931c0 .295.017.585.022.878-1.889.352-3.824.54-5.785.54-17.402 0-31.56-14.157-31.56-31.56 0-17.396 14.158-31.55 31.56-31.55 13.426 0 25.319 8.519 29.745 20.993-14.29 7.958-23.982 23.215-23.982 40.699zm15 0c0-17.4 14.156-31.557 31.557-31.557s31.557 14.156 31.557 31.557-14.156 31.557-31.557 31.557-31.557-14.157-31.557-31.557zm78.091.878c.005-.293.022-.584.022-.878 0-17.484-9.692-32.74-23.982-40.698 4.426-12.474 16.319-20.993 29.745-20.993 17.402 0 31.56 14.153 31.56 31.55 0 17.402-14.158 31.56-31.56 31.56-1.961-.001-3.896-.189-5.785-.541z" fill="#ac2dfe" data-original="#000000" class=""/>
        <path d="m450.229 324.137v-136.327c18.695-3.528 32.883-19.972 32.883-39.677 0-22.27-18.117-40.387-40.387-40.387-12.239 0-23.216 5.48-30.628 14.106l-117.987-68.125c1.467-4.179 2.275-8.667 2.275-13.342 0-22.268-18.117-40.385-40.386-40.385s-40.387 18.117-40.387 40.386c0 4.675.807 9.162 2.275 13.342l-117.987 68.124c-7.412-8.626-18.389-14.106-30.628-14.106-22.27 0-40.387 18.117-40.387 40.387 0 19.705 14.188 36.148 32.883 39.677v136.327c-18.695 3.528-32.883 19.972-32.883 39.677 0 22.27 18.117 40.387 40.387 40.387 12.22 0 23.181-5.463 30.593-14.065l118.021 68.137c-1.467 4.178-2.274 8.665-2.274 13.338 0 22.27 18.117 40.387 40.387 40.387s40.387-18.117 40.387-40.387c0-4.673-.807-9.16-2.274-13.338l118.021-68.137c7.412 8.603 18.373 14.065 30.593 14.065 22.27 0 40.387-18.117 40.387-40.387-.001-19.706-14.19-36.149-32.884-39.677zm-7.504-201.391c13.998 0 25.387 11.389 25.387 25.387s-11.389 25.387-25.387 25.387-25.387-11.389-25.387-25.387 11.389-25.387 25.387-25.387zm-186.726-107.746c13.998 0 25.387 11.388 25.387 25.386 0 13.985-11.368 25.365-25.348 25.386-.013 0-.026-.002-.039-.002s-.026.002-.039.002c-13.98-.021-25.348-11.401-25.348-25.386 0-13.998 11.388-25.386 25.387-25.386zm-212.114 133.133c0-13.998 11.389-25.387 25.387-25.387s25.387 11.389 25.387 25.387-11.389 25.387-25.387 25.387-25.387-11.389-25.387-25.387zm25.387 241.067c-13.998 0-25.387-11.389-25.387-25.387s11.389-25.387 25.387-25.387 25.387 11.389 25.387 25.387-11.389 25.387-25.387 25.387zm186.727 107.797c-13.998 0-25.387-11.389-25.387-25.387s11.389-25.387 25.387-25.387 25.387 11.389 25.387 25.387-11.389 25.387-25.387 25.387zm30.595-51.705c-5.857-6.8-13.932-11.631-23.096-13.359v-28.894c0-4.143-3.358-7.5-7.5-7.5s-7.5 3.357-7.5 7.5v28.894c-9.163 1.729-17.238 6.559-23.096 13.359l-118.019-68.136c1.468-4.18 2.275-8.667 2.275-13.342 0-4.679-.809-9.171-2.279-13.354l25.03-14.455c3.587-2.072 4.815-6.659 2.744-10.246s-6.658-4.814-10.246-2.744l-25.052 14.468c-5.857-6.794-13.929-11.62-23.088-13.347v-136.325c9.162-1.727 17.236-6.556 23.093-13.353l25.086 14.487c1.181.682 2.471 1.006 3.744 1.006 2.591 0 5.112-1.345 6.501-3.75 2.072-3.587.843-8.175-2.744-10.246l-25.067-14.476c1.468-4.181 2.276-8.67 2.276-13.346 0-4.656-.801-9.126-2.258-13.291l118.004-68.135c5.857 6.798 13.931 11.628 23.093 13.356v28.897c0 4.143 3.358 7.5 7.5 7.5s7.5-3.357 7.5-7.5v-28.897c9.162-1.728 17.236-6.558 23.093-13.356l118.004 68.135c-1.456 4.165-2.258 8.635-2.258 13.291 0 4.676.808 9.165 2.276 13.346l-25.067 14.476c-3.587 2.071-4.816 6.659-2.744 10.246 1.389 2.405 3.91 3.75 6.501 3.75 1.272 0 2.563-.324 3.744-1.006l25.086-14.487c5.858 6.797 13.932 11.626 23.093 13.353v136.325c-9.159 1.727-17.23 6.553-23.088 13.347l-25.052-14.468c-3.587-2.068-8.174-.843-10.246 2.744s-.843 8.174 2.744 10.246l25.03 14.455c-1.47 4.183-2.279 8.675-2.279 13.354 0 4.675.807 9.163 2.275 13.342zm156.131-56.092c-13.998 0-25.387-11.389-25.387-25.387s11.389-25.387 25.387-25.387 25.387 11.389 25.387 25.387-11.389 25.387-25.387 25.387z" fill="#ac2dfe" data-original="#000000" class=""/>
        <path d="m318.817 333.49h-22.32c-4.142 0-7.5 3.357-7.5 7.5s3.358 7.5 7.5 7.5h22.32c4.142 0 7.5-3.357 7.5-7.5s-3.358-7.5-7.5-7.5z" fill="#ac2dfe" data-original="#000000" class=""/>
        <path d="m318.817 362.865h-125.637c-4.142 0-7.5 3.357-7.5 7.5s3.358 7.5 7.5 7.5h125.638c4.142 0 7.5-3.357 7.5-7.5s-3.359-7.5-7.501-7.5z" fill="#ac2dfe" data-original="#000000" class=""/>
        <path d="m193.18 348.49h.104c4.142 0 7.5-3.357 7.5-7.5s-3.358-7.5-7.5-7.5h-.104c-4.142 0-7.5 3.357-7.5 7.5s3.358 7.5 7.5 7.5z" fill="#ac2dfe" data-original="#000000" class=""/>
        <path d="m219.262 348.49c4.142 0 7.5-3.357 7.5-7.5s-3.358-7.5-7.5-7.5h-.104c-4.142 0-7.5 3.357-7.5 7.5s3.358 7.5 7.5 7.5z" fill="#ac2dfe" data-original="#000000" class=""/>
        <path d="m245.24 348.49c4.142 0 7.5-3.357 7.5-7.5s-3.358-7.5-7.5-7.5h-.104c-4.142 0-7.5 3.357-7.5 7.5s3.358 7.5 7.5 7.5z" fill="#ac2dfe" data-original="#000000" class=""/>
      </g>
    </g>
  </g>
</svg>
