<svg width="400" height="480" viewBox="0 0 400 480" fill="none" xmlns="http://www.w3.org/2000/svg">
<rect width="400" height="480" fill="#D9D9D9"/>
<path d="M392 0H8C3.582 0 0 3.582 0 8V472C0 476.418 3.582 480 8 480H392C396.418 480 400 476.418 400 472V8C400 3.582 396.418 0 392 0ZM48 16H80V48H48V16ZM16 16H32V56C32 60.418 35.582 64 40 64H88C92.418 64 96 60.418 96 56V16H208V80H16V16ZM384 464H16V96H384V464ZM384 80H224V16H384V80Z" fill="black"/>
<path d="M200 128C116.053 128 48 196.053 48 280C48.093 363.909 116.091 431.907 200 432C283.947 432 352 363.947 352 280C352 196.053 283.947 128 200 128ZM200 416C124.889 416 64 355.111 64 280C64.084 204.924 124.924 144.084 200 144C275.111 144 336 204.889 336 280C336 355.111 275.111 416 200 416Z" fill="black"/>
<path d="M312 272H296V288H312V272Z" fill="black"/>
<path d="M128 40H112V56H128V40Z" fill="black"/>
<path d="M48 432H32V448H48V432Z" fill="black"/>
<path d="M368 432H352V448H368V432Z" fill="black"/>
<path d="M368 112H352V128H368V112Z" fill="black"/>
<path d="M80 112H32V128H80V112Z" fill="black"/>
<path d="M48 144H32V160H48V144Z" fill="black"/>
<path d="M160 40H144V56H160V40Z" fill="black"/>
<path d="M192 40H176V56H192V40Z" fill="black"/>
<path d="M368 40H240V56H368V40Z" fill="black"/>
<path d="M298.59 314.02C298.516 313.988 298.442 313.957 298.368 313.928L280 306.584V253.416L298.4 246.072C302.504 244.436 304.505 239.782 302.868 235.678C302.838 235.603 302.807 235.529 302.776 235.456C278.175 178.703 212.224 152.638 155.471 177.239C98.7177 201.84 72.6527 267.791 97.2537 324.544C115.004 365.492 155.37 391.994 200 392C244.629 391.993 284.995 365.491 302.744 324.544C304.503 320.491 302.643 315.779 298.59 314.02ZM200 184C235.273 184.008 267.701 203.36 284.456 234.4L269.024 240.568C265.987 241.785 263.998 244.728 264 248V263.528C246.75 257.22 227.408 261.433 214.344 274.344C201.996 286.666 182.004 286.666 169.656 274.344C151.78 256.556 123.122 255.829 104.368 272.688C108.218 222.699 149.863 184.077 200 184ZM154.514 364.502C127.89 350.146 109.598 324.072 105.16 294.152L113.656 285.656C126.004 273.334 145.996 273.334 158.344 285.656C176.943 304.215 207.057 304.215 225.656 285.656C235.896 275.555 251.68 273.681 264 281.104V312C263.997 315.272 265.987 318.215 269.024 319.432L284.456 325.6C259.316 372.225 201.139 389.642 154.514 364.502Z" fill="black"/>
</svg>
