<svg width="508" height="588" viewBox="0 0 508 588" fill="none" xmlns="http://www.w3.org/2000/svg">
<path d="M508 0H108V480H508V0Z" fill="#D9D9D9"/>
<path d="M500 0H116C111.582 0 108 3.582 108 8V472C108 476.418 111.582 480 116 480H500C504.418 480 508 476.418 508 472V8C508 3.582 504.418 0 500 0ZM156 16H188V48H156V16ZM124 16H140V56C140 60.418 143.582 64 148 64H196C200.418 64 204 60.418 204 56V16H316V80H124V16ZM492 464H124V96H492V464ZM492 80H332V16H492V80Z" fill="black"/>
<path d="M308 128C224.053 128 156 196.053 156 280C156.093 363.909 224.091 431.907 308 432C391.947 432 460 363.947 460 280C460 196.053 391.947 128 308 128ZM308 416C232.889 416 172 355.111 172 280C172.084 204.924 232.924 144.084 308 144C383.111 144 444 204.889 444 280C444 355.111 383.111 416 308 416Z" fill="black"/>
<path d="M420 272H404V288H420V272Z" fill="black"/>
<path d="M236 40H220V56H236V40Z" fill="black"/>
<path d="M156 432H140V448H156V432Z" fill="black"/>
<path d="M476 432H460V448H476V432Z" fill="black"/>
<path d="M476 112H460V128H476V112Z" fill="black"/>
<path d="M188 112H140V128H188V112Z" fill="black"/>
<path d="M156 144H140V160H156V144Z" fill="black"/>
<path d="M268 40H252V56H268V40Z" fill="black"/>
<path d="M300 40H284V56H300V40Z" fill="black"/>
<path d="M476 40H348V56H476V40Z" fill="black"/>
<path d="M406.59 314.019C406.516 313.987 406.442 313.956 406.368 313.927L388 306.583V253.415L406.4 246.071C410.504 244.435 412.505 239.781 410.868 235.677C410.838 235.602 410.807 235.528 410.776 235.455C386.175 178.702 320.224 152.637 263.471 177.238C206.718 201.839 180.653 267.79 205.254 324.543C223.004 365.491 263.37 391.993 308 391.999C352.629 391.992 392.995 365.49 410.744 324.543C412.503 320.49 410.643 315.778 406.59 314.019ZM308 183.999C343.273 184.007 375.701 203.359 392.456 234.399L377.024 240.567C373.987 241.784 371.998 244.727 372 247.999V263.527C354.75 257.219 335.408 261.432 322.344 274.343C309.996 286.665 290.004 286.665 277.656 274.343C259.78 256.555 231.122 255.828 212.368 272.687C216.218 222.698 257.863 184.076 308 183.999ZM262.514 364.501C235.89 350.145 217.598 324.071 213.16 294.151L221.656 285.655C234.004 273.333 253.996 273.333 266.344 285.655C284.943 304.214 315.057 304.214 333.656 285.655C343.896 275.554 359.68 273.68 372 281.103V311.999C371.997 315.271 373.987 318.214 377.024 319.431L392.456 325.599C367.316 372.224 309.139 389.641 262.514 364.501Z" fill="black"/>
<path d="M472 36H72V516H472V36Z" fill="#D9D9D9"/>
<path d="M464 36H80C75.582 36 72 39.582 72 44V508C72 512.418 75.582 516 80 516H464C468.418 516 472 512.418 472 508V44C472 39.582 468.418 36 464 36ZM120 52H152V84H120V52ZM88 52H104V92C104 96.418 107.582 100 112 100H160C164.418 100 168 96.418 168 92V52H280V116H88V52ZM456 500H88V132H456V500ZM456 116H296V52H456V116Z" fill="black"/>
<path d="M272 164C188.053 164 120 232.053 120 316C120.093 399.909 188.091 467.907 272 468C355.947 468 424 399.947 424 316C424 232.053 355.947 164 272 164ZM272 452C196.889 452 136 391.111 136 316C136.084 240.924 196.924 180.084 272 180C347.111 180 408 240.889 408 316C408 391.111 347.111 452 272 452Z" fill="black"/>
<path d="M384 308H368V324H384V308Z" fill="black"/>
<path d="M200 76H184V92H200V76Z" fill="black"/>
<path d="M120 468H104V484H120V468Z" fill="black"/>
<path d="M440 468H424V484H440V468Z" fill="black"/>
<path d="M440 148H424V164H440V148Z" fill="black"/>
<path d="M152 148H104V164H152V148Z" fill="black"/>
<path d="M120 180H104V196H120V180Z" fill="black"/>
<path d="M232 76H216V92H232V76Z" fill="black"/>
<path d="M264 76H248V92H264V76Z" fill="black"/>
<path d="M440 76H312V92H440V76Z" fill="black"/>
<path d="M370.59 350.019C370.516 349.987 370.442 349.956 370.368 349.927L352 342.583V289.415L370.4 282.071C374.504 280.435 376.505 275.781 374.868 271.677C374.838 271.602 374.807 271.528 374.776 271.455C350.175 214.702 284.224 188.637 227.471 213.238C170.718 237.839 144.653 303.79 169.254 360.543C187.004 401.491 227.37 427.993 272 427.999C316.629 427.992 356.995 401.49 374.744 360.543C376.503 356.49 374.643 351.778 370.59 350.019ZM272 219.999C307.273 220.007 339.701 239.359 356.456 270.399L341.024 276.567C337.987 277.784 335.998 280.727 336 283.999V299.527C318.75 293.219 299.408 297.432 286.344 310.343C273.996 322.665 254.004 322.665 241.656 310.343C223.78 292.555 195.122 291.828 176.368 308.687C180.218 258.698 221.863 220.076 272 219.999ZM226.514 400.501C199.89 386.145 181.598 360.071 177.16 330.151L185.656 321.655C198.004 309.333 217.996 309.333 230.344 321.655C248.943 340.214 279.057 340.214 297.656 321.655C307.896 311.554 323.68 309.68 336 317.103V347.999C335.997 351.271 337.987 354.214 341.024 355.431L356.456 361.599C331.316 408.224 273.139 425.641 226.514 400.501Z" fill="black"/>
<path d="M436 72H36V552H436V72Z" fill="#D9D9D9"/>
<path d="M428 72H44C39.582 72 36 75.582 36 80V544C36 548.418 39.582 552 44 552H428C432.418 552 436 548.418 436 544V80C436 75.582 432.418 72 428 72ZM84 88H116V120H84V88ZM52 88H68V128C68 132.418 71.582 136 76 136H124C128.418 136 132 132.418 132 128V88H244V152H52V88ZM420 536H52V168H420V536ZM420 152H260V88H420V152Z" fill="black"/>
<path d="M236 200C152.053 200 84 268.053 84 352C84.093 435.909 152.091 503.907 236 504C319.947 504 388 435.947 388 352C388 268.053 319.947 200 236 200ZM236 488C160.889 488 100 427.111 100 352C100.084 276.924 160.924 216.084 236 216C311.111 216 372 276.889 372 352C372 427.111 311.111 488 236 488Z" fill="black"/>
<path d="M348 344H332V360H348V344Z" fill="black"/>
<path d="M164 112H148V128H164V112Z" fill="black"/>
<path d="M84 504H68V520H84V504Z" fill="black"/>
<path d="M404 504H388V520H404V504Z" fill="black"/>
<path d="M404 184H388V200H404V184Z" fill="black"/>
<path d="M116 184H68V200H116V184Z" fill="black"/>
<path d="M84 216H68V232H84V216Z" fill="black"/>
<path d="M196 112H180V128H196V112Z" fill="black"/>
<path d="M228 112H212V128H228V112Z" fill="black"/>
<path d="M404 112H276V128H404V112Z" fill="black"/>
<path d="M334.59 386.019C334.516 385.987 334.442 385.956 334.368 385.927L316 378.583V325.415L334.4 318.071C338.504 316.435 340.505 311.781 338.868 307.677C338.838 307.602 338.807 307.528 338.776 307.455C314.175 250.702 248.224 224.637 191.471 249.238C134.718 273.839 108.653 339.79 133.254 396.543C151.004 437.491 191.37 463.993 236 463.999C280.629 463.992 320.995 437.49 338.744 396.543C340.503 392.49 338.643 387.778 334.59 386.019ZM236 255.999C271.273 256.007 303.701 275.359 320.456 306.399L305.024 312.567C301.987 313.784 299.998 316.727 300 319.999V335.527C282.75 329.219 263.408 333.432 250.344 346.343C237.996 358.665 218.004 358.665 205.656 346.343C187.78 328.555 159.122 327.828 140.368 344.687C144.218 294.698 185.863 256.076 236 255.999ZM190.514 436.501C163.89 422.145 145.598 396.071 141.16 366.151L149.656 357.655C162.004 345.333 181.996 345.333 194.344 357.655C212.943 376.214 243.057 376.214 261.656 357.655C271.896 347.554 287.68 345.68 300 353.103V383.999C299.997 387.271 301.987 390.214 305.024 391.431L320.456 397.599C295.316 444.224 237.139 461.641 190.514 436.501Z" fill="black"/>
<path d="M400 108H0V588H400V108Z" fill="#D9D9D9"/>
<path d="M392 108H8C3.582 108 0 111.582 0 116V580C0 584.418 3.582 588 8 588H392C396.418 588 400 584.418 400 580V116C400 111.582 396.418 108 392 108ZM48 124H80V156H48V124ZM16 124H32V164C32 168.418 35.582 172 40 172H88C92.418 172 96 168.418 96 164V124H208V188H16V124ZM384 572H16V204H384V572ZM384 188H224V124H384V188Z" fill="black"/>
<path d="M200 236C116.053 236 48 304.053 48 388C48.093 471.909 116.091 539.907 200 540C283.947 540 352 471.947 352 388C352 304.053 283.947 236 200 236ZM200 524C124.889 524 64 463.111 64 388C64.084 312.924 124.924 252.084 200 252C275.111 252 336 312.889 336 388C336 463.111 275.111 524 200 524Z" fill="black"/>
<path d="M312 380H296V396H312V380Z" fill="black"/>
<path d="M128 148H112V164H128V148Z" fill="black"/>
<path d="M48 540H32V556H48V540Z" fill="black"/>
<path d="M368 540H352V556H368V540Z" fill="black"/>
<path d="M368 220H352V236H368V220Z" fill="black"/>
<path d="M80 220H32V236H80V220Z" fill="black"/>
<path d="M48 252H32V268H48V252Z" fill="black"/>
<path d="M160 148H144V164H160V148Z" fill="black"/>
<path d="M192 148H176V164H192V148Z" fill="black"/>
<path d="M368 148H240V164H368V148Z" fill="black"/>
<path d="M298.59 422.019C298.516 421.987 298.442 421.956 298.368 421.927L280 414.583V361.415L298.4 354.071C302.504 352.435 304.505 347.781 302.868 343.677C302.838 343.602 302.807 343.528 302.776 343.455C278.175 286.702 212.224 260.637 155.471 285.238C98.7177 309.839 72.6527 375.79 97.2537 432.543C115.004 473.491 155.37 499.993 200 499.999C244.629 499.992 284.995 473.49 302.744 432.543C304.503 428.49 302.643 423.778 298.59 422.019ZM200 291.999C235.273 292.007 267.701 311.359 284.456 342.399L269.024 348.567C265.987 349.784 263.998 352.727 264 355.999V371.527C246.75 365.219 227.408 369.432 214.344 382.343C201.996 394.665 182.004 394.665 169.656 382.343C151.78 364.555 123.122 363.828 104.368 380.687C108.218 330.698 149.863 292.076 200 291.999ZM154.514 472.501C127.89 458.145 109.598 432.071 105.16 402.151L113.656 393.655C126.004 381.333 145.996 381.333 158.344 393.655C176.943 412.214 207.057 412.214 225.656 393.655C235.896 383.554 251.68 381.68 264 389.103V419.999C263.997 423.271 265.987 426.214 269.024 427.431L284.456 433.599C259.316 480.224 201.139 497.641 154.514 472.501Z" fill="black"/>
</svg>
