<svg width="512" height="512" viewBox="0 0 512 512" fill="none" xmlns="http://www.w3.org/2000/svg">
<path fill-rule="evenodd" clip-rule="evenodd" d="M62.6725 128.828C64.5367 129.764 65.9535 131.4 66.6123 133.378C67.2711 135.357 67.1181 137.515 66.1869 139.381L20.6891 230.369L66.2027 321.342C66.6758 322.268 66.9609 323.278 67.0415 324.314C67.1222 325.35 66.9968 326.392 66.6727 327.38C66.3486 328.367 65.832 329.281 65.1529 330.068C64.4738 330.855 63.6455 331.5 62.7157 331.965C61.786 332.431 60.7733 332.708 59.7359 332.781C58.6985 332.853 57.657 332.72 56.6714 332.388C55.6859 332.057 54.7757 331.534 53.9935 330.849C53.2112 330.164 52.5723 329.331 52.1136 328.398L4.83499 233.897C4.28591 232.802 4 231.594 4 230.369C4 229.145 4.28591 227.937 4.83499 226.841L52.1136 132.34C53.05 130.477 54.6873 129.061 56.6666 128.403C58.646 127.745 60.8058 127.897 62.6725 128.828Z" fill="#50514F"/>
<path d="M343.175 196.7H276.825C262.42 196.7 250.7 208.42 250.7 222.825V289.175C250.7 303.58 262.42 315.3 276.825 315.3H343.175C357.58 315.3 369.3 303.58 369.3 289.175V222.825C369.3 208.42 357.58 196.7 343.175 196.7ZM356.86 289.175C356.86 296.721 350.721 302.86 343.175 302.86H276.825C269.279 302.86 263.14 296.721 263.14 289.175V222.825C263.14 215.279 269.279 209.14 276.825 209.14H343.175C350.721 209.14 356.86 215.279 356.86 222.825V289.175Z" fill="#50514F"/>
<path d="M210.475 196.7H144.125C129.72 196.7 118 208.42 118 222.825V289.175C118 303.58 129.72 315.3 144.125 315.3H210.475C224.881 315.3 236.6 303.58 236.6 289.175V222.825C236.6 208.42 224.881 196.7 210.475 196.7ZM224.16 289.175C224.16 296.721 218.021 302.86 210.475 302.86H144.125C136.58 302.86 130.441 296.721 130.441 289.175V222.825C130.441 215.279 136.58 209.14 144.125 209.14H210.475C218.021 209.14 224.16 215.279 224.16 222.825V289.175Z" fill="#50514F"/>
<path d="M475.875 196.7H409.525C395.119 196.7 383.4 208.42 383.4 222.825V289.175C383.4 303.58 395.119 315.3 409.525 315.3H475.875C490.28 315.3 502 303.58 502 289.175V222.825C502 208.42 490.28 196.7 475.875 196.7ZM489.559 289.175C489.559 296.721 483.42 302.86 475.875 302.86H409.525C401.979 302.86 395.84 296.721 395.84 289.175V222.825C395.84 215.279 401.979 209.14 409.525 209.14H475.875C483.42 209.14 489.559 215.279 489.559 222.825V289.175Z" fill="#50514F"/>
<path d="M343.175 64H276.825C262.42 64 250.7 75.7199 250.7 90.1253V156.475C250.7 170.881 262.42 182.6 276.825 182.6H343.175C357.58 182.6 369.3 170.881 369.3 156.475V90.1253C369.3 75.7199 357.58 64 343.175 64ZM356.86 156.475C356.86 164.021 350.721 170.16 343.175 170.16H276.825C269.279 170.16 263.14 164.021 263.14 156.475V90.1253C263.14 82.5796 269.279 76.4406 276.825 76.4406H343.175C350.721 76.4406 356.86 82.5796 356.86 90.1253V156.475Z" fill="#50514F"/>
<path d="M210.475 64H144.125C129.72 64 118 75.7199 118 90.1253V156.475C118 170.881 129.72 182.6 144.125 182.6H210.475C224.881 182.6 236.6 170.881 236.6 156.475V90.1253C236.6 75.7199 224.881 64 210.475 64ZM224.16 156.475C224.16 164.021 218.021 170.16 210.475 170.16H144.125C136.58 170.16 130.441 164.021 130.441 156.475V90.1253C130.441 82.5796 136.58 76.4406 144.125 76.4406H210.475C218.021 76.4406 224.16 82.5796 224.16 90.1253V156.475Z" fill="#50514F"/>
<path d="M475.875 64H409.525C395.119 64 383.4 75.7199 383.4 90.1253V156.475C383.4 170.881 395.119 182.6 409.525 182.6H475.875C490.28 182.6 502 170.881 502 156.475V90.1253C502 75.7199 490.28 64 475.875 64ZM489.559 156.475C489.559 164.021 483.42 170.16 475.875 170.16H409.525C401.979 170.16 395.84 164.021 395.84 156.475V90.1253C395.84 82.5796 401.979 76.4406 409.525 76.4406H475.875C483.42 76.4406 489.559 82.5796 489.559 90.1253V156.475Z" fill="#50514F"/>
<path d="M343.175 329.4H276.825C262.42 329.4 250.7 341.119 250.7 355.525V421.875C250.7 436.28 262.42 448 276.825 448H343.175C357.58 448 369.3 436.28 369.3 421.875V355.525C369.3 341.119 357.58 329.4 343.175 329.4ZM356.86 421.875C356.86 429.42 350.721 435.559 343.175 435.559H276.825C269.279 435.559 263.14 429.42 263.14 421.875V355.525C263.14 347.979 269.279 341.84 276.825 341.84H343.175C350.721 341.84 356.86 347.979 356.86 355.525V421.875Z" fill="#50514F"/>
<path d="M210.475 329.4H144.125C129.72 329.4 118 341.119 118 355.525V421.875C118 436.28 129.72 448 144.125 448H210.475C224.881 448 236.6 436.28 236.6 421.875V355.525C236.6 341.119 224.881 329.4 210.475 329.4ZM224.16 421.875C224.16 429.42 218.021 435.559 210.475 435.559H144.125C136.58 435.559 130.441 429.42 130.441 421.875V355.525C130.441 347.979 136.58 341.84 144.125 341.84H210.475C218.021 341.84 224.16 347.979 224.16 355.525V421.875Z" fill="#50514F"/>
<path d="M475.875 329.4H409.525C395.119 329.4 383.4 341.119 383.4 355.525V421.875C383.4 436.28 395.119 448 409.525 448H475.875C490.28 448 502 436.28 502 421.875V355.525C502 341.119 490.28 329.4 475.875 329.4ZM489.559 421.875C489.559 429.42 483.42 435.559 475.875 435.559H409.525C401.979 435.559 395.84 429.42 395.84 421.875V355.525C395.84 347.979 401.979 341.84 409.525 341.84H475.875C483.42 341.84 489.559 347.979 489.559 355.525V421.875Z" fill="#50514F"/>
</svg>
